<svg width="211" height="773" viewBox="0 0 211 773" fill="none" xmlns="http://www.w3.org/2000/svg">
<path d="M-22.5334 448.719C-22.9115 448.375 -23.1006 447.911 -23.1006 447.438C-23.1006 447.025 -22.9545 446.604 -22.6537 446.278C-22.0177 445.573 -20.9175 445.521 -20.2127 446.157C27.73 489.639 54.1338 543.676 54.1338 598.297C54.1338 652.918 30.4976 703.706 -10.7153 738.816C-11.4459 739.435 -12.5374 739.349 -13.1563 738.618C-13.7751 737.896 -13.6891 736.805 -12.9586 736.177C27.4808 701.729 50.6786 651.474 50.6786 598.297C50.6786 545.12 24.6788 491.53 -22.5334 448.71L-22.5334 448.719Z" fill="#0B2253"/>
<path d="M17.4851 0.413523C59.1621 35.9795 99.5327 105.59 98.2778 182.73C181.09 237.205 210.477 326.352 210.477 386.156C210.477 473.163 175.942 535.751 101.793 583.101C100.994 583.617 99.9194 583.376 99.4037 582.577C98.8966 581.769 99.1287 580.703 99.928 580.187C172.994 533.534 207.021 471.874 207.021 386.156C207.021 327.641 178.443 240.643 98.1489 186.821C98.1145 187.887 98.0973 188.944 98.0457 190.01C97.2808 205.258 94.857 220.153 90.8518 234.644C91.1612 234.67 91.4706 234.747 91.737 234.945C142.353 271.937 166.96 321.401 166.96 386.156C166.96 445.195 143.152 490.929 89.8719 534.29C94.4616 549.839 97.2206 565.868 98.0457 582.302C102.034 662.416 60.4685 735.224 17.485 771.898C16.7545 772.517 15.6629 772.431 15.0441 771.709C14.4252 770.987 14.5112 769.896 15.2332 769.268C57.5806 733.144 98.5184 661.436 94.582 582.474C93.7654 566.118 90.9893 550.174 86.3652 534.703C86.1761 534.419 86.0643 534.093 86.0643 533.766C86.0643 533.757 86.0643 533.74 86.0643 533.732C74.2205 494.796 50.4726 458.964 15.6887 427.601C15.4395 427.498 15.2074 427.36 15.0269 427.137C14.9581 427.059 14.9323 426.965 14.8808 426.87C5.44349 418.422 -4.80172 410.291 -15.8377 402.521C-18.0638 433.531 -26.547 463.459 -40.5826 490.645C-40.0325 490.473 -39.4137 490.542 -38.941 490.946C-7.406 517.728 10.6778 556.852 10.6778 598.297C10.6778 639.742 -7.406 678.866 -38.941 705.648C-39.6715 706.267 -40.7631 706.181 -41.3733 705.451C-41.9922 704.72 -41.9062 703.628 -41.1757 703.018C-10.4142 676.89 7.22265 638.728 7.22265 598.306C7.22265 557.884 -10.4228 519.713 -41.1756 493.593C-41.4163 493.387 -41.5624 493.12 -41.6655 492.837C-48.0172 504.827 -55.512 516.232 -63.9609 526.976C-44.1839 545.232 -32.8471 571.128 -32.8471 598.306C-32.8471 627.021 -45.3442 654.087 -67.1411 672.575C-67.8717 673.194 -68.9632 673.099 -69.5734 672.377C-69.8485 672.051 -69.986 671.655 -69.986 671.26C-69.986 670.77 -69.7797 670.28 -69.3758 669.945C-48.3525 652.119 -36.3023 626.007 -36.3023 598.314C-36.3023 572.186 -47.1663 547.295 -66.1269 529.692C-74.4726 539.989 -83.738 549.632 -93.923 558.468C-82.7237 568.67 -76.2861 583.05 -76.2861 598.306C-76.2861 613.562 -83.2394 629.248 -95.3498 639.493C-96.0803 640.112 -97.1719 640.017 -97.7821 639.287C-98.401 638.556 -98.3064 637.464 -97.5759 636.854C-86.2391 627.262 -79.7327 613.209 -79.7327 598.306C-79.7327 583.402 -86.2391 569.349 -97.5759 559.757C-97.6102 559.731 -97.6188 559.688 -97.6532 559.654C-97.6876 559.62 -97.7392 559.603 -97.7736 559.56C-97.8337 559.482 -97.8595 559.396 -97.9111 559.31C-97.9626 559.224 -98.0142 559.147 -98.0572 559.052C-98.1088 558.915 -98.1345 558.777 -98.1517 558.631C-98.1517 558.563 -98.1947 558.502 -98.1947 558.434C-98.1947 558.408 -98.1861 558.391 -98.1861 558.365C-98.1861 558.287 -98.1603 558.21 -98.1431 558.124C-98.1173 557.995 -98.0916 557.875 -98.04 557.755C-98.0056 557.669 -97.9541 557.6 -97.9025 557.523C-97.8595 557.454 -97.8337 557.385 -97.7821 557.316C-97.7477 557.282 -97.7048 557.265 -97.6704 557.23C-97.636 557.196 -97.6188 557.153 -97.5845 557.119C-47.407 514.298 -18.6224 451.985 -18.6224 386.156C-18.6224 320.327 -47.3984 258.014 -97.5844 215.193C-97.6188 215.168 -97.6274 215.116 -97.6618 215.09C-97.6962 215.056 -97.7477 215.039 -97.7821 214.996C-97.8423 214.927 -97.8681 214.832 -97.911 214.755C-97.9626 214.669 -98.0228 214.592 -98.0572 214.497C-98.1087 214.36 -98.1345 214.222 -98.1431 214.076C-98.1431 214.007 -98.1861 213.947 -98.1861 213.878C-98.1861 213.853 -98.1775 213.827 -98.1775 213.81C-98.1775 213.724 -98.1517 213.638 -98.1345 213.552C-98.1087 213.431 -98.0829 213.311 -98.0314 213.199C-97.997 213.113 -97.9454 213.045 -97.8939 212.967C-97.8509 212.898 -97.8251 212.83 -97.7735 212.761C-97.7392 212.727 -97.6962 212.709 -97.6618 212.675C-97.6274 212.641 -97.6102 212.598 -97.5758 212.563C-86.2391 202.971 -79.7327 188.919 -79.7327 174.015C-79.7327 159.111 -86.2391 145.058 -97.5758 135.466C-97.9798 135.123 -98.1861 134.633 -98.1861 134.143C-98.1861 133.747 -98.0486 133.352 -97.7735 133.025C-97.1547 132.295 -96.0631 132.209 -95.3412 132.819C-83.2222 143.073 -76.2775 158.088 -76.2775 174.006C-76.2775 189.924 -82.7151 203.65 -93.9144 213.844C-83.7293 222.68 -74.4725 232.323 -66.1182 242.628C-47.1577 225.035 -36.2937 200.144 -36.2937 174.006C-36.2937 146.313 -48.3524 120.21 -69.3757 102.367C-69.7797 102.023 -69.986 101.542 -69.986 101.052C-69.986 100.657 -69.8484 100.261 -69.5734 99.9348C-68.9546 99.2042 -67.863 99.1182 -67.1324 99.7371C-45.3356 118.233 -32.8385 145.308 -32.8385 174.006C-32.8385 201.184 -44.1753 227.072 -63.9523 245.336C-55.5035 256.08 -48.0086 267.485 -41.657 279.475C-41.5624 279.192 -41.4163 278.925 -41.167 278.719C-10.4056 252.59 7.23126 214.428 7.23126 174.006C7.23126 133.584 -10.4142 95.4224 -41.167 69.2936C-41.889 68.6834 -41.9836 67.5918 -41.3647 66.8613C-40.7459 66.1307 -39.6543 66.0447 -38.9323 66.6636C-7.39737 93.4455 10.6864 132.578 10.6864 174.015C10.6864 215.451 -7.39738 254.584 -38.9323 281.366C-39.4051 281.77 -40.0239 281.839 -40.574 281.667C-26.547 308.853 -18.0552 338.772 -15.8291 369.783C-4.8017 362.013 5.4349 353.899 14.8722 345.45C14.9238 345.356 14.9581 345.261 15.0355 345.175C15.216 344.96 15.448 344.814 15.6973 344.711C64.5769 300.645 91.6769 247.751 94.582 189.847C98.5271 110.979 57.5806 39.1769 15.2332 3.04359C14.5112 2.42475 14.4253 1.33324 15.0441 0.602671C15.6629 -0.119307 16.7545 -0.205315 17.4851 0.413523ZM163.496 386.156C163.496 322.674 139.422 274.172 89.8977 237.901C85.7893 251.834 80.2198 265.371 73.1633 278.461C73.4212 278.521 73.6704 278.624 73.8853 278.805C105.42 305.587 123.513 344.72 123.513 386.156C123.513 427.592 105.429 466.725 73.8853 493.507C73.6704 493.688 73.4211 493.791 73.1633 493.851C79.5837 505.772 84.8009 518.063 88.7804 530.689C140.385 488.316 163.488 443.639 163.488 386.156L163.496 386.156ZM48.8739 314.826C68.6509 333.091 79.9791 358.979 79.9791 386.156C79.9791 413.333 68.6509 439.221 48.8739 457.477C57.5634 468.255 65.127 479.437 71.5646 490.972C71.599 490.937 71.6162 490.894 71.6506 490.86C102.412 464.731 120.057 426.57 120.057 386.147C120.057 345.725 102.412 307.564 71.6506 281.435C71.6162 281.4 71.599 281.357 71.5646 281.323C65.127 292.858 57.5548 304.04 48.8739 314.826ZM-15.1672 386.156C-15.1673 390.29 -15.279 394.416 -15.5025 398.524C-4.01959 406.517 6.61242 414.88 16.4193 423.596C26.9997 414.047 33.0849 400.518 33.0849 386.156C33.0849 371.794 26.9997 358.265 16.4193 348.716C6.61242 357.432 -4.01959 365.803 -15.5025 373.788C-15.279 377.896 -15.1672 382.022 -15.1672 386.156ZM18.9892 346.396C30.1369 356.589 36.5401 370.934 36.5401 386.156C36.5401 401.378 30.1369 415.714 18.9892 425.916C29.1656 435.173 38.4138 444.808 46.6822 454.795C65.6513 437.202 76.5239 412.302 76.5239 386.156C76.5239 360.01 65.6599 335.119 46.6822 317.516C38.4138 327.504 29.1656 337.139 18.9892 346.396Z" fill="#0B2253"/>
<path d="M54.1338 174.006C54.1338 228.635 27.73 282.663 -20.2127 326.145C-20.9175 326.79 -22.0177 326.738 -22.6537 326.025C-22.9545 325.699 -23.1007 325.277 -23.1007 324.865C-23.1007 324.392 -22.9116 323.928 -22.5334 323.584C24.6788 280.764 50.6786 227.638 50.6786 173.997C50.6786 120.356 27.4894 70.5567 -12.9586 36.1167C-13.6891 35.4978 -13.7751 34.4063 -13.1563 33.6757C-12.5374 32.9537 -11.4459 32.8592 -10.7153 33.478C30.4976 68.5799 54.1338 119.797 54.1338 173.989L54.1338 174.006Z" fill="#0B2253"/>
</svg>
