<svg width="210" height="773" viewBox="0 0 210 773" fill="none" xmlns="http://www.w3.org/2000/svg">
<path d="M233.01 448.719C233.388 448.375 233.577 447.911 233.577 447.438C233.577 447.025 233.431 446.604 233.13 446.278C232.494 445.573 231.394 445.521 230.689 446.157C182.747 489.639 156.343 543.676 156.343 598.297C156.343 652.918 179.979 703.706 221.192 738.816C221.922 739.435 223.014 739.349 223.633 738.618C224.252 737.896 224.166 736.805 223.435 736.177C182.996 701.729 159.798 651.474 159.798 598.297C159.798 545.12 185.798 491.53 233.01 448.71L233.01 448.719Z" fill="#0B2253"/>
<path d="M192.992 0.413523C151.315 35.9796 110.944 105.59 112.199 182.73C29.3862 237.205 1.42653e-05 326.352 1.68794e-05 386.156C2.06826e-05 473.163 34.5346 535.751 108.683 583.101C109.483 583.617 110.557 583.376 111.073 582.577C111.58 581.769 111.348 580.703 110.549 580.187C37.4827 533.534 3.4552 471.874 3.4552 386.156C3.45519 327.641 32.0335 240.643 112.328 186.821C112.362 187.887 112.379 188.944 112.431 190.01C113.196 205.258 115.62 220.153 119.625 234.644C119.315 234.67 119.006 234.747 118.74 234.945C68.1238 271.937 43.5164 321.401 43.5164 386.156C43.5164 445.195 67.3245 490.929 120.605 534.29C116.015 549.839 113.256 565.868 112.431 582.302C108.443 662.416 150.008 735.224 192.992 771.898C193.722 772.517 194.814 772.431 195.433 771.709C196.051 770.987 195.965 769.896 195.243 769.268C152.896 733.144 111.958 661.436 115.895 582.474C116.711 566.118 119.487 550.174 124.111 534.703C124.301 534.419 124.412 534.093 124.412 533.766C124.412 533.757 124.412 533.74 124.412 533.732C136.256 494.796 160.004 458.964 194.788 427.601C195.037 427.498 195.269 427.36 195.45 427.137C195.518 427.059 195.544 426.965 195.596 426.87C205.033 418.422 215.278 410.291 226.314 402.521C228.54 433.531 237.024 463.459 251.059 490.645C250.509 490.473 249.89 490.542 249.418 490.946C217.883 517.728 199.799 556.852 199.799 598.297C199.799 639.742 217.883 678.866 249.418 705.648C250.148 706.267 251.24 706.181 251.85 705.451C252.469 704.72 252.383 703.628 251.652 703.018C220.891 676.89 203.254 638.728 203.254 598.306C203.254 557.884 220.899 519.713 251.652 493.593C251.893 493.387 252.039 493.12 252.142 492.837C258.494 504.827 265.989 516.232 274.437 526.976C254.66 545.232 243.324 571.128 243.324 598.306C243.324 627.021 255.821 654.087 277.618 672.575C278.348 673.194 279.44 673.099 280.05 672.377C280.325 672.051 280.463 671.655 280.463 671.26C280.463 670.77 280.256 670.28 279.852 669.945C258.829 652.119 246.779 626.007 246.779 598.314C246.779 572.186 257.643 547.295 276.603 529.692C284.949 539.989 294.215 549.632 304.4 558.468C293.2 568.67 286.763 583.05 286.763 598.306C286.763 613.562 293.716 629.248 305.826 639.493C306.557 640.112 307.648 640.017 308.259 639.287C308.878 638.556 308.783 637.464 308.052 636.854C296.716 627.262 290.209 613.209 290.209 598.306C290.209 583.402 296.716 569.349 308.052 559.757C308.087 559.731 308.095 559.688 308.13 559.654C308.164 559.62 308.216 559.603 308.25 559.56C308.31 559.482 308.336 559.396 308.388 559.31C308.439 559.224 308.491 559.147 308.534 559.052C308.585 558.915 308.611 558.777 308.628 558.631C308.628 558.563 308.671 558.502 308.671 558.434C308.671 558.408 308.663 558.391 308.663 558.365C308.663 558.287 308.637 558.21 308.62 558.124C308.594 557.995 308.568 557.875 308.517 557.755C308.482 557.669 308.431 557.6 308.379 557.523C308.336 557.454 308.31 557.385 308.259 557.316C308.224 557.282 308.181 557.265 308.147 557.23C308.113 557.196 308.095 557.153 308.061 557.119C257.884 514.298 229.099 451.985 229.099 386.156C229.099 320.327 257.875 258.013 308.061 215.193C308.095 215.168 308.104 215.116 308.138 215.09C308.173 215.056 308.224 215.039 308.259 214.996C308.319 214.927 308.345 214.832 308.388 214.755C308.439 214.669 308.499 214.592 308.534 214.497C308.585 214.36 308.611 214.222 308.62 214.076C308.62 214.007 308.663 213.947 308.663 213.878C308.663 213.853 308.654 213.827 308.654 213.81C308.654 213.724 308.628 213.638 308.611 213.552C308.585 213.431 308.56 213.311 308.508 213.199C308.474 213.113 308.422 213.045 308.37 212.967C308.327 212.898 308.302 212.83 308.25 212.761C308.216 212.727 308.173 212.709 308.138 212.675C308.104 212.641 308.087 212.598 308.052 212.563C296.716 202.971 290.209 188.919 290.209 174.015C290.209 159.111 296.716 145.058 308.052 135.466C308.456 135.123 308.663 134.633 308.663 134.143C308.663 133.747 308.525 133.352 308.25 133.025C307.631 132.295 306.54 132.209 305.818 132.819C293.699 143.073 286.754 158.088 286.754 174.006C286.754 189.924 293.192 203.65 304.391 213.844C294.206 222.68 284.949 232.323 276.595 242.628C257.634 225.035 246.77 200.144 246.77 174.006C246.77 146.313 258.829 120.21 279.852 102.367C280.256 102.023 280.463 101.542 280.463 101.052C280.463 100.657 280.325 100.261 280.05 99.9348C279.431 99.2042 278.34 99.1182 277.609 99.7371C255.812 118.233 243.315 145.308 243.315 174.006C243.315 201.184 254.652 227.072 274.429 245.336C265.98 256.08 258.485 267.485 252.134 279.475C252.039 279.191 251.893 278.925 251.644 278.719C220.882 252.59 203.245 214.428 203.245 174.006C203.245 133.584 220.891 95.4224 251.644 69.2936C252.366 68.6834 252.46 67.5919 251.841 66.8613C251.222 66.1307 250.131 66.0447 249.409 66.6636C217.874 93.4456 199.79 132.579 199.79 174.015C199.79 215.451 217.874 254.584 249.409 281.366C249.882 281.77 250.501 281.839 251.051 281.667C237.024 308.853 228.532 338.772 226.306 369.783C215.278 362.013 205.042 353.899 195.604 345.45C195.553 345.356 195.518 345.261 195.441 345.175C195.261 344.96 195.029 344.814 194.779 344.711C145.9 300.645 118.8 247.751 115.895 189.847C111.95 110.979 152.896 39.1769 195.243 3.04359C195.965 2.42475 196.051 1.33326 195.432 0.602671C194.814 -0.119314 193.722 -0.205312 192.992 0.413523ZM46.9801 386.156C46.9801 322.674 71.0546 274.172 120.579 237.901C124.687 251.834 130.257 265.371 137.313 278.461C137.055 278.521 136.806 278.624 136.591 278.805C105.056 305.587 86.964 344.72 86.964 386.156C86.964 427.592 105.048 466.725 136.591 493.507C136.806 493.688 137.055 493.791 137.313 493.851C130.893 505.772 125.676 518.063 121.696 530.689C70.092 488.316 46.9887 443.639 46.9887 386.156L46.9801 386.156ZM161.603 314.826C141.826 333.091 130.497 358.979 130.497 386.156C130.498 413.333 141.826 439.221 161.603 457.477C152.913 468.255 145.35 479.437 138.912 490.972C138.878 490.937 138.86 490.894 138.826 490.86C108.065 464.731 90.4191 426.57 90.4191 386.147C90.4191 345.725 108.065 307.564 138.826 281.435C138.86 281.4 138.878 281.357 138.912 281.323C145.35 292.858 152.922 304.04 161.603 314.826ZM225.644 386.156C225.644 390.29 225.756 394.416 225.979 398.524C214.496 406.517 203.864 414.88 194.057 423.596C183.477 414.047 177.392 400.518 177.392 386.156C177.392 371.794 183.477 358.265 194.057 348.716C203.864 357.432 214.496 365.803 225.979 373.788C225.756 377.896 225.644 382.022 225.644 386.156ZM191.487 346.396C180.34 356.589 173.936 370.934 173.936 386.156C173.936 401.378 180.34 415.714 191.487 425.916C181.311 435.173 172.063 444.808 163.794 454.795C144.825 437.202 133.953 412.302 133.953 386.156C133.953 360.01 144.817 335.119 163.794 317.516C172.063 327.504 181.311 337.139 191.487 346.396Z" fill="#0B2253"/>
<path d="M156.343 174.006C156.343 228.635 182.747 282.663 230.689 326.145C231.394 326.79 232.494 326.738 233.13 326.025C233.431 325.699 233.577 325.277 233.577 324.865C233.577 324.392 233.388 323.928 233.01 323.584C185.798 280.764 159.798 227.638 159.798 173.997C159.798 120.356 182.987 70.5567 223.435 36.1167C224.166 35.4978 224.252 34.4063 223.633 33.6757C223.014 32.9537 221.922 32.8592 221.192 33.478C179.979 68.5799 156.343 119.797 156.343 173.989L156.343 174.006Z" fill="#0B2253"/>
</svg>
