<svg width="209" height="90" viewBox="0 0 209 90" fill="none" xmlns="http://www.w3.org/2000/svg">
<path d="M105.905 44.3747C131.082 51.9745 142.541 32.5476 173.073 44.7645C199.563 55.3828 207.842 72.689 207.842 72.689C182.657 58.7732 158.102 65.1392 143.603 71.4515C124.577 79.7237 111.781 73.6689 111.781 73.6689C108.211 81.68 100.536 87.581 91.1341 88.4215C82.1681 89.2262 73.8852 85.192 68.8353 78.4934C64.1824 84.0583 57.398 87.8278 49.6301 88.5288C35.3138 89.8199 22.5426 80.2208 19.4347 66.5769C18.2223 67.0919 16.8919 67.4388 15.515 67.5569C8.2549 68.2113 1.8639 62.8861 1.20942 55.626C0.630049 48.9489 5.12199 42.9907 11.5488 41.6102C11.5988 41.5816 11.6239 41.578 11.6739 41.5744C11.2841 40.6338 10.9694 39.6575 10.7262 38.6525C10.6547 38.4022 10.6046 38.1232 10.5545 37.8728C10.3185 36.943 10.1862 36.006 10.1039 35.0368C8.93442 22.1475 18.4476 10.746 31.3655 9.60151C37.5562 9.04002 43.3714 10.9748 47.917 14.5333C51.1394 7.29474 58.074 1.99812 66.4821 1.2435C77.6118 0.227804 87.5362 7.48072 90.3151 17.9202C105.086 12.9955 115.031 20.1948 117.506 30.1192C119.051 36.403 115.235 42.7153 108.977 44.2853C107.947 44.5285 106.895 44.5678 105.905 44.3711V44.3747Z" fill="#0B2253"/>
<path d="M68.8387 79.6555C68.5526 79.6555 68.2665 79.5482 68.0448 79.3408C67.5798 78.9044 67.5584 78.1713 67.9983 77.7064C70.5947 74.9561 71.9645 71.3618 71.85 67.578C71.7392 63.8157 70.1691 60.3251 67.4332 57.7537C64.007 54.5171 58.6067 54.6601 55.3879 58.0684C53.4996 60.0676 53.5854 63.2291 55.5811 65.1175C56.046 65.5574 56.0639 66.2905 55.6276 66.7519C55.1912 67.2168 54.4581 67.2383 53.9932 66.7984C51.0712 64.0338 50.9425 59.406 53.707 56.4805C57.7984 52.1495 64.6651 51.9671 69.0176 56.0692C72.2041 59.0662 74.0316 63.129 74.1604 67.5101C74.2891 71.909 72.6977 76.097 69.6756 79.2943C69.4467 79.5339 69.1427 79.6555 68.8352 79.6555H68.8387Z" fill="url(#paint0_linear_37_31670)"/>
<path d="M29.4413 55.1359C21.1226 55.1359 13.4406 49.9752 10.465 42.0213C10.0501 40.9484 9.7533 39.8755 9.58521 38.8455C9.54229 38.7239 9.48864 38.4449 9.43857 38.1839C9.31698 37.5544 9.72111 36.9071 10.3506 36.7891C10.98 36.6639 11.5773 37.0358 11.6917 37.6617L11.7096 37.7511C11.7453 37.9442 11.7847 38.1517 11.8383 38.3376C12.01 39.3462 12.2675 40.2653 12.6287 41.1987C15.5971 49.1312 23.8192 53.92 32.2166 52.6074C38.157 51.674 42.234 46.0626 41.3006 40.0936C41.0252 38.3806 40.1025 36.8749 38.697 35.8556C37.295 34.8364 35.5748 34.4251 33.8617 34.704C32.8889 34.8542 32.0342 35.38 31.4512 36.1775C30.8683 36.9786 30.6322 37.9514 30.7824 38.9206C30.879 39.5536 30.4498 40.1437 29.8168 40.2403C29.1874 40.344 28.5973 39.9077 28.4971 39.2747C28.2539 37.6939 28.6402 36.1096 29.5844 34.8149C30.5321 33.5131 31.9233 32.6655 33.5005 32.4187C35.8252 32.0504 38.1498 32.6047 40.056 33.9816C41.9622 35.3621 43.214 37.4042 43.5859 39.7289C44.716 46.9603 39.7771 53.7626 32.5778 54.8892C31.5299 55.0537 30.482 55.1324 29.4449 55.1324L29.4413 55.1359Z" fill="url(#paint1_linear_37_31670)"/>
<path d="M47.0945 89.8019C33.9262 89.8019 22.1492 80.9074 18.6265 68.1111C17.6465 68.4223 16.6344 68.6261 15.6116 68.712C11.8206 69.066 8.07969 67.9001 5.14348 65.4503C2.20727 63.0041 0.401194 59.5528 0.0542845 55.7333C-0.535819 48.9524 3.74154 42.7331 10.1361 40.7876C9.92869 40.1796 9.74987 39.5609 9.59608 38.9278C9.51383 38.6453 9.42799 38.327 9.39938 37.9765C9.1991 37.2541 9.0489 36.292 8.94876 35.1404C8.35508 28.5992 10.3471 22.219 14.5637 17.1763C18.7767 12.13 24.7063 9.03282 31.2618 8.45344C37.0055 7.93845 42.7134 9.46199 47.4807 12.7809C51.193 5.63168 58.31 0.81786 66.3784 0.0954299C77.5367 -0.895229 87.7115 5.91421 91.0912 16.4681C97.9829 14.4189 104.288 14.8087 109.395 17.6126C114.012 20.1482 117.292 24.4935 118.629 29.8438C120.317 36.7105 116.115 43.6916 109.263 45.4118C108.018 45.7051 106.82 45.7373 105.683 45.5084C105.057 45.3832 104.649 44.7752 104.774 44.1494C104.9 43.5235 105.515 43.1301 106.133 43.241C106.942 43.4019 107.814 43.3769 108.716 43.1623C114.323 41.7568 117.771 36.0274 116.387 30.3946C115.21 25.6809 112.331 21.8577 108.286 19.6368C103.476 16.9974 97.3928 16.7828 90.6835 19.0181C90.3831 19.1182 90.0505 19.0896 89.7679 18.9394C89.4854 18.7856 89.2815 18.5281 89.1993 18.2206C86.5063 8.09938 76.9967 1.44373 66.5894 2.39862C58.8787 3.08887 52.13 7.92056 48.9757 15.009C48.829 15.3344 48.5429 15.574 48.196 15.6599C47.8491 15.7457 47.4843 15.6706 47.2054 15.4489C42.692 11.9118 37.1056 10.2488 31.4728 10.7566C25.5325 11.2824 20.1607 14.0898 16.3447 18.6605C12.5287 23.2311 10.7226 29.0105 11.2591 34.9366C11.3485 35.9666 11.4808 36.8106 11.6811 37.5938C11.7276 37.9729 11.7848 38.1446 11.8349 38.3163C12.0817 39.3355 12.3821 40.2618 12.7469 41.1345C12.8864 41.4742 12.8577 41.8605 12.6682 42.1752C12.5037 42.4434 12.239 42.633 11.935 42.7045C11.8885 42.7188 11.8421 42.7331 11.7956 42.7438C5.8981 44.0099 1.84605 49.5032 2.36821 55.5294C2.65789 58.7303 4.17071 61.6236 6.63126 63.6728C9.09181 65.7257 12.2176 66.6913 15.4184 66.4052C16.6451 66.3015 17.8468 65.9975 18.9877 65.5111C19.306 65.3788 19.6636 65.3895 19.9676 65.5469C20.2752 65.7042 20.4933 65.9868 20.5684 66.3194C23.5798 79.5413 36.0113 88.5895 49.53 87.3771C56.765 86.7262 63.3063 83.3108 67.952 77.7531C68.1773 77.4848 68.4849 77.3454 68.8675 77.3382C69.2216 77.3454 69.5506 77.517 69.7616 77.7996C74.79 84.4731 82.7475 88.0066 91.034 87.2734C99.6566 86.5009 107.203 81.1113 110.726 73.2003C112.299 69.7455 113 66.0511 112.814 62.2173C112.782 61.5807 113.276 61.037 113.912 61.0049C114.549 60.9798 115.092 61.4662 115.125 62.1028C115.328 66.255 114.534 70.4179 112.836 74.1481C108.977 82.8172 100.701 88.729 91.2414 89.5766C82.6223 90.3491 74.3323 86.8979 68.796 80.2995C63.8284 85.7034 57.1155 89.0187 49.7374 89.6839C48.8505 89.7626 47.9743 89.8019 47.0981 89.8019H47.0945Z" fill="url(#paint2_linear_37_31670)"/>
<path d="M105.75 45.4939C105.675 45.4939 105.6 45.4868 105.525 45.4725C102.288 44.8359 99.6847 42.3574 98.8908 39.1566C98.1075 36.0344 100.014 32.855 103.136 32.0682C103.758 31.9144 104.384 32.2863 104.541 32.9051C104.695 33.5238 104.323 34.1532 103.705 34.3106C101.816 34.7862 100.661 36.7103 101.137 38.5951C101.716 40.9305 103.615 42.7365 105.972 43.2015C106.598 43.3266 107.006 43.9346 106.884 44.5605C106.777 45.1113 106.29 45.4939 105.75 45.4939Z" fill="url(#paint3_linear_37_31670)"/>
<path d="M123.926 76.9876C116.233 76.9876 111.605 74.8704 111.287 74.7166C110.711 74.4448 110.465 73.7582 110.736 73.1788C111.008 72.603 111.695 72.3598 112.274 72.6244C112.399 72.6817 124.881 78.3288 143.142 70.3928C158.392 63.7479 181.13 58.4941 204.674 69.7562C200.822 64.2521 191.298 53.3155 172.644 45.8373C156.364 39.3211 145.577 42.0106 135.149 44.6035C126.401 46.7815 117.353 49.0346 105.586 45.4832C105.483 45.4618 105.39 45.4332 105.322 45.4081C104.728 45.1721 104.438 44.4997 104.678 43.9061C104.907 43.3374 105.533 43.0477 106.098 43.2337C106.148 43.2409 106.194 43.2516 106.241 43.2659C117.406 46.6384 125.757 44.557 134.591 42.3575C145.381 39.6716 156.536 36.8999 173.505 43.6915C200.11 54.3527 208.54 71.4657 208.887 72.1881C209.105 72.6423 209.001 73.1824 208.636 73.5293C208.272 73.8762 207.724 73.9477 207.284 73.7009C183.255 60.4254 159.643 65.7292 144.068 72.5136C136.147 75.9576 129.291 76.9876 123.93 76.9876H123.926Z" fill="url(#paint4_linear_37_31670)"/>
<defs>
<linearGradient id="paint0_linear_37_31670" x1="15.1178" y1="59.4668" x2="190.346" y2="83.5001" gradientUnits="userSpaceOnUse">
<stop stop-color="#F5CC62"/>
<stop offset="0.07" stop-color="#D4A243"/>
<stop offset="0.13" stop-color="#BA812B"/>
<stop offset="0.19" stop-color="#A8691A"/>
<stop offset="0.24" stop-color="#9C5A0F"/>
<stop offset="0.29" stop-color="#99560C"/>
<stop offset="0.33" stop-color="#9E5E13"/>
<stop offset="0.38" stop-color="#AE7727"/>
<stop offset="0.45" stop-color="#C79E48"/>
<stop offset="0.53" stop-color="#E9D475"/>
<stop offset="0.58" stop-color="#FFF691"/>
<stop offset="0.73" stop-color="#D6B558"/>
<stop offset="0.8" stop-color="#C5983F"/>
<stop offset="1" stop-color="#FBF09C"/>
</linearGradient>
<linearGradient id="paint1_linear_37_31670" x1="17.5427" y1="41.7674" x2="192.771" y2="65.8043" gradientUnits="userSpaceOnUse">
<stop stop-color="#F5CC62"/>
<stop offset="0.07" stop-color="#D4A243"/>
<stop offset="0.13" stop-color="#BA812B"/>
<stop offset="0.19" stop-color="#A8691A"/>
<stop offset="0.24" stop-color="#9C5A0F"/>
<stop offset="0.29" stop-color="#99560C"/>
<stop offset="0.33" stop-color="#9E5E13"/>
<stop offset="0.38" stop-color="#AE7727"/>
<stop offset="0.45" stop-color="#C79E48"/>
<stop offset="0.53" stop-color="#E9D475"/>
<stop offset="0.58" stop-color="#FFF691"/>
<stop offset="0.73" stop-color="#D6B558"/>
<stop offset="0.8" stop-color="#C5983F"/>
<stop offset="1" stop-color="#FBF09C"/>
</linearGradient>
<linearGradient id="paint2_linear_37_31670" x1="17.8611" y1="39.4464" x2="193.09" y2="63.4797" gradientUnits="userSpaceOnUse">
<stop stop-color="#F5CC62"/>
<stop offset="0.07" stop-color="#D4A243"/>
<stop offset="0.13" stop-color="#BA812B"/>
<stop offset="0.19" stop-color="#A8691A"/>
<stop offset="0.24" stop-color="#9C5A0F"/>
<stop offset="0.29" stop-color="#99560C"/>
<stop offset="0.33" stop-color="#9E5E13"/>
<stop offset="0.38" stop-color="#AE7727"/>
<stop offset="0.45" stop-color="#C79E48"/>
<stop offset="0.53" stop-color="#E9D475"/>
<stop offset="0.58" stop-color="#FFF691"/>
<stop offset="0.73" stop-color="#D6B558"/>
<stop offset="0.8" stop-color="#C5983F"/>
<stop offset="1" stop-color="#FBF09C"/>
</linearGradient>
<linearGradient id="paint3_linear_37_31670" x1="19.5558" y1="27.1006" x2="194.784" y2="51.1375" gradientUnits="userSpaceOnUse">
<stop stop-color="#F5CC62"/>
<stop offset="0.07" stop-color="#D4A243"/>
<stop offset="0.13" stop-color="#BA812B"/>
<stop offset="0.19" stop-color="#A8691A"/>
<stop offset="0.24" stop-color="#9C5A0F"/>
<stop offset="0.29" stop-color="#99560C"/>
<stop offset="0.33" stop-color="#9E5E13"/>
<stop offset="0.38" stop-color="#AE7727"/>
<stop offset="0.45" stop-color="#C79E48"/>
<stop offset="0.53" stop-color="#E9D475"/>
<stop offset="0.58" stop-color="#FFF691"/>
<stop offset="0.73" stop-color="#D6B558"/>
<stop offset="0.8" stop-color="#C5983F"/>
<stop offset="1" stop-color="#FBF09C"/>
</linearGradient>
<linearGradient id="paint4_linear_37_31670" x1="17.5679" y1="41.5957" x2="192.797" y2="65.629" gradientUnits="userSpaceOnUse">
<stop stop-color="#F5CC62"/>
<stop offset="0.07" stop-color="#D4A243"/>
<stop offset="0.13" stop-color="#BA812B"/>
<stop offset="0.19" stop-color="#A8691A"/>
<stop offset="0.24" stop-color="#9C5A0F"/>
<stop offset="0.29" stop-color="#99560C"/>
<stop offset="0.33" stop-color="#9E5E13"/>
<stop offset="0.38" stop-color="#AE7727"/>
<stop offset="0.45" stop-color="#C79E48"/>
<stop offset="0.53" stop-color="#E9D475"/>
<stop offset="0.58" stop-color="#FFF691"/>
<stop offset="0.73" stop-color="#D6B558"/>
<stop offset="0.8" stop-color="#C5983F"/>
<stop offset="1" stop-color="#FBF09C"/>
</linearGradient>
</defs>
</svg>
