<svg width="209" height="90" viewBox="0 0 209 90" fill="none" xmlns="http://www.w3.org/2000/svg">
<path d="M103.095 44.3747C77.9177 51.9745 66.4589 32.5476 35.9273 44.7645C9.43704 55.3828 1.1577 72.689 1.1577 72.689C26.3426 58.7732 50.8981 65.1392 65.3968 71.4515C84.4231 79.7237 97.2194 73.6689 97.2194 73.6689C100.789 81.68 108.464 87.581 117.866 88.4215C126.832 89.2262 135.115 85.192 140.165 78.4934C144.818 84.0583 151.602 87.8278 159.37 88.5288C173.686 89.8199 186.457 80.2208 189.565 66.5769C190.778 67.0919 192.108 67.4388 193.485 67.5569C200.745 68.2113 207.136 62.8861 207.791 55.626C208.37 48.9489 203.878 42.9907 197.451 41.6102C197.401 41.5816 197.376 41.578 197.326 41.5744C197.716 40.6338 198.031 39.6575 198.274 38.6525C198.345 38.4022 198.395 38.1232 198.445 37.8728C198.682 36.943 198.814 36.006 198.896 35.0368C200.066 22.1475 190.552 10.746 177.634 9.60151C171.444 9.04002 165.629 10.9748 161.083 14.5333C157.861 7.29474 150.926 1.99812 142.518 1.2435C131.388 0.227804 121.464 7.48072 118.685 17.9202C103.914 12.9955 93.9685 20.1948 91.4937 30.1192C89.9487 36.403 93.7647 42.7153 100.023 44.2853C101.053 44.5285 102.105 44.5678 103.095 44.3711V44.3747Z" fill="#0B2253"/>
<path d="M140.161 79.6555C140.447 79.6555 140.733 79.5482 140.955 79.3408C141.42 78.9044 141.442 78.1713 141.002 77.7064C138.405 74.9561 137.036 71.3618 137.15 67.578C137.261 63.8157 138.831 60.3251 141.567 57.7537C144.993 54.5171 150.393 54.6601 153.612 58.0684C155.5 60.0676 155.415 63.2291 153.419 65.1175C152.954 65.5574 152.936 66.2905 153.372 66.7519C153.809 67.2168 154.542 67.2383 155.007 66.7984C157.929 64.0338 158.058 59.406 155.293 56.4805C151.202 52.1495 144.335 51.9671 139.982 56.0692C136.796 59.0662 134.968 63.129 134.84 67.5101C134.711 71.909 136.302 76.097 139.324 79.2943C139.553 79.5339 139.857 79.6555 140.165 79.6555H140.161Z" fill="url(#paint0_linear_37_31679)"/>
<path d="M179.559 55.1359C187.877 55.1359 195.559 49.9752 198.535 42.0213C198.95 40.9484 199.247 39.8755 199.415 38.8455C199.458 38.7239 199.511 38.4449 199.561 38.1839C199.683 37.5544 199.279 36.9071 198.649 36.7891C198.02 36.6639 197.423 37.0358 197.308 37.6617L197.29 37.7511C197.255 37.9442 197.215 38.1517 197.162 38.3376C196.99 39.3462 196.733 40.2653 196.371 41.1987C193.403 49.1312 185.181 53.92 176.783 52.6074C170.843 51.674 166.766 46.0626 167.699 40.0936C167.975 38.3806 168.897 36.8749 170.303 35.8556C171.705 34.8364 173.425 34.4251 175.138 34.704C176.111 34.8542 176.966 35.38 177.549 36.1775C178.132 36.9786 178.368 37.9514 178.218 38.9206C178.121 39.5536 178.55 40.1437 179.183 40.2403C179.813 40.344 180.403 39.9077 180.503 39.2747C180.746 37.6939 180.36 36.1096 179.416 34.8149C178.468 33.5131 177.077 32.6655 175.499 32.4187C173.175 32.0504 170.85 32.6047 168.944 33.9816C167.038 35.3621 165.786 37.4042 165.414 39.7289C164.284 46.9603 169.223 53.7626 176.422 54.8892C177.47 55.0537 178.518 55.1324 179.555 55.1324L179.559 55.1359Z" fill="url(#paint1_linear_37_31679)"/>
<path d="M161.906 89.8019C175.074 89.8019 186.851 80.9074 190.374 68.1111C191.353 68.4223 192.366 68.6261 193.388 68.712C197.179 69.066 200.92 67.9001 203.857 65.4503C206.793 63.0041 208.599 59.5528 208.946 55.7333C209.536 48.9524 205.258 42.7331 198.864 40.7876C199.071 40.1796 199.25 39.5609 199.404 38.9278C199.486 38.6453 199.572 38.327 199.601 37.9765C199.801 37.2541 199.951 36.292 200.051 35.1404C200.645 28.5992 198.653 22.219 194.436 17.1763C190.223 12.13 184.294 9.03282 177.738 8.45344C171.994 7.93845 166.287 9.46199 161.519 12.7809C157.807 5.63168 150.69 0.81786 142.622 0.0954299C131.463 -0.895229 121.288 5.91421 117.909 16.4681C111.017 14.4189 104.712 14.8087 99.6049 17.6126C94.9877 20.1482 91.7082 24.4935 90.3706 29.8438C88.6826 36.7105 92.8848 43.6916 99.7372 45.4118C100.982 45.7051 102.18 45.7373 103.317 45.5084C103.943 45.3832 104.351 44.7752 104.226 44.1494C104.1 43.5235 103.485 43.1301 102.867 43.241C102.058 43.4019 101.186 43.3769 100.284 43.1623C94.6766 41.7568 91.229 36.0274 92.613 30.3946C93.7896 25.6809 96.6686 21.8577 100.714 19.6368C105.524 16.9974 111.607 16.7828 118.317 19.0181C118.617 19.1182 118.95 19.0896 119.232 18.9394C119.515 18.7856 119.718 18.5281 119.801 18.2206C122.494 8.09938 132.003 1.44373 142.411 2.39862C150.121 3.08887 156.87 7.92056 160.024 15.009C160.171 15.3344 160.457 15.574 160.804 15.6599C161.151 15.7457 161.516 15.6706 161.795 15.4489C166.308 11.9118 171.894 10.2488 177.527 10.7566C183.468 11.2824 188.839 14.0898 192.655 18.6605C196.471 23.2311 198.277 29.0105 197.741 34.9366C197.651 35.9666 197.519 36.8106 197.319 37.5938C197.272 37.9729 197.215 38.1446 197.165 38.3163C196.918 39.3355 196.618 40.2618 196.253 41.1345C196.114 41.4742 196.142 41.8605 196.332 42.1752C196.496 42.4434 196.761 42.633 197.065 42.7045C197.111 42.7188 197.158 42.7331 197.204 42.7438C203.102 44.0099 207.154 49.5032 206.632 55.5294C206.342 58.7303 204.829 61.6236 202.369 63.6728C199.908 65.7257 196.782 66.6913 193.582 66.4052C192.355 66.3015 191.153 65.9975 190.012 65.5111C189.694 65.3788 189.336 65.3895 189.032 65.5469C188.725 65.7042 188.507 65.9868 188.432 66.3194C185.42 79.5413 172.989 88.5895 159.47 87.3771C152.235 86.7262 145.694 83.3108 141.048 77.7531C140.823 77.4848 140.515 77.3454 140.132 77.3382C139.778 77.3454 139.449 77.517 139.238 77.7996C134.21 84.4731 126.253 88.0066 117.966 87.2734C109.343 86.5009 101.797 81.1113 98.2744 73.2003C96.7008 69.7455 95.9999 66.0511 96.1858 62.2173C96.218 61.5807 95.7245 61.037 95.0879 61.0049C94.4513 60.9798 93.9077 61.4662 93.8755 62.1028C93.6716 66.255 94.4656 70.4179 96.1644 74.1481C100.023 82.8172 108.299 88.729 117.759 89.5766C126.378 90.3491 134.668 86.8979 140.204 80.2995C145.172 85.7034 151.884 89.0187 159.263 89.6839C160.15 89.7626 161.026 89.8019 161.902 89.8019H161.906Z" fill="url(#paint2_linear_37_31679)"/>
<path d="M103.25 45.4939C103.325 45.4939 103.4 45.4868 103.475 45.4725C106.712 44.8359 109.315 42.3574 110.109 39.1566C110.892 36.0344 108.986 32.855 105.864 32.0682C105.242 31.9144 104.616 32.2863 104.459 32.9051C104.305 33.5238 104.677 34.1532 105.295 34.3106C107.184 34.7862 108.339 36.7103 107.863 38.5951C107.284 40.9305 105.385 42.7365 103.028 43.2015C102.402 43.3266 101.994 43.9346 102.116 44.5605C102.223 45.1113 102.71 45.4939 103.25 45.4939Z" fill="url(#paint3_linear_37_31679)"/>
<path d="M85.074 76.9876C92.7668 76.9876 97.3946 74.8704 97.7129 74.7166C98.2887 74.4448 98.5355 73.7582 98.2637 73.1788C97.9919 72.603 97.3052 72.3598 96.7258 72.6244C96.6006 72.6817 84.1191 78.3288 65.858 70.3928C50.6083 63.7479 27.8696 58.4941 4.32629 69.7562C8.17806 64.2521 17.702 53.3155 36.3564 45.8373C52.6361 39.3211 63.4225 42.0106 73.8513 44.6035C82.5991 46.7815 91.6474 49.0346 103.414 45.4832C103.517 45.4618 103.61 45.4332 103.678 45.4081C104.272 45.1721 104.562 44.4997 104.322 43.9061C104.093 43.3374 103.467 43.0477 102.902 43.2337C102.852 43.2409 102.806 43.2516 102.759 43.2659C91.5937 46.6384 83.2428 44.557 74.4092 42.3575C63.6192 39.6716 52.4645 36.8999 35.4945 43.6915C8.88978 54.3527 0.460236 71.4657 0.113327 72.1881C-0.104836 72.6423 -0.00111389 73.1824 0.363678 73.5293C0.72847 73.8762 1.27564 73.9477 1.71554 73.7009C25.7453 60.4254 49.3566 65.7292 64.9317 72.5136C72.8534 75.9576 79.7094 76.9876 85.0704 76.9876H85.074Z" fill="url(#paint4_linear_37_31679)"/>
<defs>
<linearGradient id="paint0_linear_37_31679" x1="193.882" y1="59.4668" x2="18.6535" y2="83.5001" gradientUnits="userSpaceOnUse">
<stop stop-color="#F5CC62"/>
<stop offset="0.07" stop-color="#D4A243"/>
<stop offset="0.13" stop-color="#BA812B"/>
<stop offset="0.19" stop-color="#A8691A"/>
<stop offset="0.24" stop-color="#9C5A0F"/>
<stop offset="0.29" stop-color="#99560C"/>
<stop offset="0.33" stop-color="#9E5E13"/>
<stop offset="0.38" stop-color="#AE7727"/>
<stop offset="0.45" stop-color="#C79E48"/>
<stop offset="0.53" stop-color="#E9D475"/>
<stop offset="0.58" stop-color="#FFF691"/>
<stop offset="0.73" stop-color="#D6B558"/>
<stop offset="0.8" stop-color="#C5983F"/>
<stop offset="1" stop-color="#FBF09C"/>
</linearGradient>
<linearGradient id="paint1_linear_37_31679" x1="191.457" y1="41.7674" x2="16.2287" y2="65.8043" gradientUnits="userSpaceOnUse">
<stop stop-color="#F5CC62"/>
<stop offset="0.07" stop-color="#D4A243"/>
<stop offset="0.13" stop-color="#BA812B"/>
<stop offset="0.19" stop-color="#A8691A"/>
<stop offset="0.24" stop-color="#9C5A0F"/>
<stop offset="0.29" stop-color="#99560C"/>
<stop offset="0.33" stop-color="#9E5E13"/>
<stop offset="0.38" stop-color="#AE7727"/>
<stop offset="0.45" stop-color="#C79E48"/>
<stop offset="0.53" stop-color="#E9D475"/>
<stop offset="0.58" stop-color="#FFF691"/>
<stop offset="0.73" stop-color="#D6B558"/>
<stop offset="0.8" stop-color="#C5983F"/>
<stop offset="1" stop-color="#FBF09C"/>
</linearGradient>
<linearGradient id="paint2_linear_37_31679" x1="191.139" y1="39.4464" x2="15.9103" y2="63.4797" gradientUnits="userSpaceOnUse">
<stop stop-color="#F5CC62"/>
<stop offset="0.07" stop-color="#D4A243"/>
<stop offset="0.13" stop-color="#BA812B"/>
<stop offset="0.19" stop-color="#A8691A"/>
<stop offset="0.24" stop-color="#9C5A0F"/>
<stop offset="0.29" stop-color="#99560C"/>
<stop offset="0.33" stop-color="#9E5E13"/>
<stop offset="0.38" stop-color="#AE7727"/>
<stop offset="0.45" stop-color="#C79E48"/>
<stop offset="0.53" stop-color="#E9D475"/>
<stop offset="0.58" stop-color="#FFF691"/>
<stop offset="0.73" stop-color="#D6B558"/>
<stop offset="0.8" stop-color="#C5983F"/>
<stop offset="1" stop-color="#FBF09C"/>
</linearGradient>
<linearGradient id="paint3_linear_37_31679" x1="189.444" y1="27.1006" x2="14.2156" y2="51.1375" gradientUnits="userSpaceOnUse">
<stop stop-color="#F5CC62"/>
<stop offset="0.07" stop-color="#D4A243"/>
<stop offset="0.13" stop-color="#BA812B"/>
<stop offset="0.19" stop-color="#A8691A"/>
<stop offset="0.24" stop-color="#9C5A0F"/>
<stop offset="0.29" stop-color="#99560C"/>
<stop offset="0.33" stop-color="#9E5E13"/>
<stop offset="0.38" stop-color="#AE7727"/>
<stop offset="0.45" stop-color="#C79E48"/>
<stop offset="0.53" stop-color="#E9D475"/>
<stop offset="0.58" stop-color="#FFF691"/>
<stop offset="0.73" stop-color="#D6B558"/>
<stop offset="0.8" stop-color="#C5983F"/>
<stop offset="1" stop-color="#FBF09C"/>
</linearGradient>
<linearGradient id="paint4_linear_37_31679" x1="191.432" y1="41.5957" x2="16.2035" y2="65.629" gradientUnits="userSpaceOnUse">
<stop stop-color="#F5CC62"/>
<stop offset="0.07" stop-color="#D4A243"/>
<stop offset="0.13" stop-color="#BA812B"/>
<stop offset="0.19" stop-color="#A8691A"/>
<stop offset="0.24" stop-color="#9C5A0F"/>
<stop offset="0.29" stop-color="#99560C"/>
<stop offset="0.33" stop-color="#9E5E13"/>
<stop offset="0.38" stop-color="#AE7727"/>
<stop offset="0.45" stop-color="#C79E48"/>
<stop offset="0.53" stop-color="#E9D475"/>
<stop offset="0.58" stop-color="#FFF691"/>
<stop offset="0.73" stop-color="#D6B558"/>
<stop offset="0.8" stop-color="#C5983F"/>
<stop offset="1" stop-color="#FBF09C"/>
</linearGradient>
</defs>
</svg>
