<svg width="518" height="151" viewBox="0 0 518 151" fill="none" xmlns="http://www.w3.org/2000/svg">
<path d="M250.798 117.465C247.626 125.108 239.947 130.33 231.297 130.153C226.901 136.785 219.152 140.929 210.642 140.279C204.877 139.881 199.832 137.323 196.081 133.502C190.456 143.235 179.646 149.398 167.712 148.532C161.585 148.099 156.036 145.828 151.494 142.333C151.471 142.31 151.447 142.286 151.424 142.263C150.522 141.578 149.656 140.823 148.83 140.027C144.037 142.983 138.307 144.534 132.25 144.066C124.067 143.486 117.003 139.378 112.355 133.396C112.355 133.396 86.6206 147.847 51.913 145.254C6.67683 141.905 1.7373 112.565 1.7373 112.565C1.7373 112.565 24.7683 127.666 43.8718 116.493C62.9401 105.284 75.5885 107.807 75.5885 107.807C67.4416 99.8414 62.7588 88.4518 63.6601 76.1609C65.2815 54.0665 84.531 37.5208 106.625 39.1421C117.617 39.9729 127.204 45.1592 133.911 52.8731C134.163 53.1249 134.415 53.3766 134.631 53.6636C135.029 54.0967 135.386 54.5649 135.714 55.0332C136.832 42.0575 148.151 32.3597 161.162 33.3366C167.687 33.8048 173.417 36.8662 177.345 41.4483C177.526 41.6295 177.743 41.846 177.884 42.0626C179.324 43.8299 180.517 45.8087 181.378 47.9034C181.448 48.0846 181.484 48.2256 181.559 48.4069C181.74 48.7694 181.846 49.1269 181.992 49.5247C183.181 49.0564 184.369 48.6234 185.633 48.2256C185.633 48.0796 185.668 47.9386 185.668 47.7926C188.478 19.6811 213.528 -0.791995 241.644 1.9824C269.398 4.75679 289.725 29.2329 287.49 56.9466C288.859 58.1349 290.158 59.3987 291.347 60.7683C296.86 45.703 312.938 36.9065 328.904 40.7987C330.742 41.267 332.474 41.8813 334.131 42.6013C335.646 41.4835 337.192 40.4765 338.854 39.6104C339.79 39.0314 340.802 38.5278 341.845 38.1351C349.523 34.7464 358.35 33.7746 367.111 35.9347C388.304 41.126 401.28 62.5004 396.089 83.6935C396.089 83.6935 412.055 69.4188 452.317 94.4336C492.578 119.448 516.007 90.6471 516.007 90.6471C508.797 134.549 453.832 101.1 420.494 134.438C397.03 157.902 373.783 147.016 362.106 138.512C359.513 136.603 357.494 134.871 356.16 133.648C355.978 133.466 355.797 133.285 355.656 133.144C355.586 133.074 355.51 132.963 355.404 132.892C354.684 132.172 354.322 131.775 354.322 131.775C349.241 142.263 337.419 148.174 325.631 145.289C321.417 144.242 317.701 142.187 314.675 139.489C306.603 145.546 295.934 148.104 285.335 145.506C274.992 142.983 266.881 136.1 262.445 127.303C261.256 124.997 260.355 122.545 259.705 119.987C259.705 119.917 259.705 119.881 259.67 119.806C256.785 119.408 253.794 118.723 250.803 117.465H250.798Z" fill="#0B2253"/>
<path d="M124.751 87.5505C121.03 87.5505 117.309 86.0953 114.525 83.2051C111.051 79.5949 111.146 73.8044 114.746 70.2999C115.436 69.6302 116.534 69.6453 117.204 70.3301C117.873 71.0149 117.858 72.1176 117.173 72.7873C114.943 74.9625 114.877 78.5526 117.032 80.7882C121.126 85.0379 127.898 85.1789 132.128 81.1054C138.966 74.4942 139.902 63.7239 134.308 56.0604C133.744 55.2849 133.91 54.1973 134.686 53.6284C135.461 53.0594 136.549 53.2306 137.118 54.006C143.734 63.0643 142.626 75.7883 134.545 83.6029C131.811 86.2363 128.286 87.5454 124.756 87.5454L124.751 87.5505Z" fill="url(#paint0_linear_37_28892)"/>
<path d="M151.428 144C151.021 144 150.608 143.859 150.28 143.567C141.131 135.516 140.2 121.498 148.206 112.324C150.668 109.504 154.077 107.817 157.803 107.565C161.539 107.334 165.079 108.527 167.858 110.969C171.594 114.217 171.997 119.912 168.744 123.653C168.11 124.383 167.012 124.453 166.287 123.824C165.562 123.195 165.487 122.092 166.116 121.367C167.083 120.254 167.561 118.834 167.455 117.364C167.35 115.899 166.68 114.554 165.567 113.587C163.478 111.755 160.814 110.848 158.035 111.035C155.235 111.221 152.672 112.49 150.829 114.61C144.077 122.349 144.863 134.166 152.576 140.959C153.296 141.593 153.367 142.691 152.733 143.411C152.39 143.804 151.912 144 151.428 144Z" fill="url(#paint1_linear_37_28892)"/>
<path d="M170.341 69.4288C167.355 69.4288 164.364 68.3009 162.068 66.0502C160.567 64.5749 159.731 62.6011 159.711 60.4964C159.691 58.3866 160.497 56.4027 161.972 54.9023C162.647 54.2124 163.75 54.2074 164.429 54.8821C165.114 55.5568 165.124 56.6595 164.449 57.3393C163.624 58.1751 163.176 59.2829 163.191 60.4611C163.201 61.6343 163.669 62.737 164.505 63.5678C167.778 66.7803 173.044 66.74 176.242 63.4822C180.003 59.6555 181.398 54.0715 179.887 48.8953C179.62 47.9738 180.144 47.0071 181.066 46.7352C181.987 46.4582 182.954 46.992 183.226 47.9134C185.094 54.298 183.367 61.1963 178.724 65.9142C176.428 68.2506 173.387 69.4238 170.336 69.4238L170.341 69.4288Z" fill="url(#paint2_linear_37_28892)"/>
<path d="M181.377 49.6405C180.652 49.6405 179.977 49.1873 179.731 48.4622C179.066 46.5036 178.019 44.7513 176.614 43.2559C175.959 42.556 175.99 41.4533 176.694 40.7987C177.394 40.1441 178.497 40.1794 179.152 40.8792C180.899 42.7423 182.203 44.9175 183.024 47.3444C183.336 48.2558 182.847 49.2427 181.936 49.5499C181.75 49.6153 181.564 49.6405 181.377 49.6405Z" fill="url(#paint3_linear_37_28892)"/>
<path d="M341.663 72.027C339.856 72.027 338.053 71.6493 336.351 70.8991C333.109 69.4741 330.621 66.8659 329.337 63.5628C325.631 54.1419 329.252 43.4422 337.947 38.13C338.768 37.6265 339.841 37.8883 340.334 38.7091C340.833 39.5248 340.576 40.5973 339.755 41.0958C332.504 45.5267 329.483 54.444 332.575 62.2939C333.521 64.741 335.359 66.6645 337.746 67.7118C340.128 68.7641 342.776 68.8145 345.208 67.8679C347.847 66.8155 349.171 63.8095 348.149 61.1761C347.801 60.2798 348.244 59.2728 349.141 58.9254C350.037 58.5779 351.044 59.021 351.391 59.9173C353.103 64.3281 350.898 69.3432 346.482 71.1055C344.916 71.7148 343.285 72.0219 341.658 72.0219L341.663 72.027Z" fill="url(#paint4_linear_37_28892)"/>
<path d="M355.394 134.63C354.906 134.63 354.422 134.428 354.08 134.025C345.495 124.096 344.296 109.897 351.099 98.6833C353.727 94.3782 357.861 91.3621 362.74 90.1839C367.594 89.0107 372.599 89.8012 376.849 92.4094C379.583 94.061 381.507 96.6843 382.267 99.786C383.022 102.883 382.519 106.095 380.847 108.819C379.785 110.592 378.078 111.845 376.043 112.344C373.989 112.842 371.859 112.515 370.057 111.412C369.236 110.914 368.979 109.841 369.483 109.021C369.981 108.2 371.053 107.938 371.874 108.447C372.881 109.061 374.07 109.252 375.218 108.965C376.34 108.688 377.287 107.998 377.876 107.017C379.07 105.073 379.422 102.802 378.888 100.607C378.355 98.4064 376.99 96.5534 375.046 95.3752C371.577 93.2553 367.499 92.6108 363.561 93.5625C359.583 94.5242 356.215 96.9814 354.075 100.491C348.058 110.405 349.12 122.968 356.713 131.754C357.343 132.48 357.262 133.577 356.532 134.207C356.205 134.489 355.797 134.63 355.394 134.63Z" fill="url(#paint5_linear_37_28892)"/>
<path d="M362.096 140.254C361.789 140.254 361.482 140.173 361.2 140.007C358.788 138.547 356.653 136.805 354.86 134.816C354.216 134.101 354.276 133.003 354.986 132.359C355.701 131.709 356.799 131.775 357.444 132.485C359.009 134.217 360.878 135.747 362.997 137.026C363.818 137.52 364.085 138.592 363.586 139.413C363.259 139.952 362.685 140.254 362.096 140.254Z" fill="url(#paint6_linear_37_28892)"/>
<path d="M390.036 150.395C378.072 150.395 367.78 144.801 361.078 139.922C358.304 137.877 356.23 136.08 354.976 134.932L354.719 134.675C348.702 144.655 336.683 149.78 325.208 146.981C321.351 146.024 317.705 144.206 314.578 141.694C305.913 147.706 295.183 149.715 284.911 147.197C274.483 144.655 265.722 137.691 260.883 128.089C259.816 126.014 258.934 123.748 258.265 121.357C255.898 120.969 253.723 120.415 251.689 119.68C247.983 126.946 240.425 131.709 232.208 131.89C227.233 138.799 218.985 142.656 210.511 142.016C205.345 141.659 200.42 139.619 196.438 136.221C190.048 145.772 179.252 151.13 167.586 150.274C161.367 149.836 155.431 147.57 150.431 143.718C149.781 143.215 149.172 142.706 148.593 142.187C143.543 145.002 137.868 146.256 132.113 145.808C124.313 145.259 117.028 141.563 111.907 135.606C106.192 138.512 82.6422 149.307 51.7765 146.996C5.71953 143.577 0.0750732 113.159 0.0247212 112.852C-0.0910883 112.173 0.205988 111.488 0.790071 111.11C1.36408 110.733 2.11433 110.738 2.69337 111.11C2.90989 111.251 25.0647 125.481 42.9951 114.992C55.8852 107.414 65.9455 105.934 71.4036 105.823C64.5558 97.5504 61.1319 86.916 61.9274 76.035C62.7431 64.8871 67.8589 54.7361 76.3331 47.4401C84.7973 40.1542 95.6028 36.5842 106.756 37.41C117.506 38.2207 127.36 43.0545 134.61 51.0453C137.511 39.1371 148.79 30.7031 161.287 31.6095C168.089 32.0979 174.258 35.1895 178.663 40.3204C178.83 40.4764 179.127 40.7937 179.333 41.1008C180.798 42.8833 182.057 44.993 182.989 47.2387C182.989 47.2538 182.999 47.2689 183.009 47.284C183.346 47.1632 183.683 47.0423 184.021 46.9265C187.354 18.2158 213.109 -2.55937 241.81 0.255306C269.962 3.06998 291.084 28.0748 289.282 56.2165C289.8 56.6847 290.294 57.148 290.767 57.6162C297.449 43.1552 313.521 35.26 329.316 39.1119C330.877 39.5097 332.383 40.0082 333.904 40.6225C335.318 39.6205 336.683 38.7796 338.047 38.0696C338.989 37.4805 340.097 36.9317 341.225 36.5087C349.513 32.8481 358.636 32.0526 367.523 34.2479C378.223 36.8662 387.261 43.4976 392.976 52.9134C398.002 61.2013 399.93 70.7682 398.535 80.2394C405.418 77.1629 422.493 73.8648 453.233 92.9633C491.661 116.835 513.735 90.6874 514.657 89.5545C515.16 88.9452 516.006 88.7488 516.721 89.0711C517.441 89.3934 517.849 90.1587 517.723 90.9341C513.6 116.055 494.103 117.263 473.464 118.547C456.163 119.625 436.556 120.838 421.722 135.677C410.751 146.649 399.834 150.405 390.036 150.405V150.395ZM148.835 138.285C149.273 138.285 149.706 138.451 150.038 138.768C150.819 139.514 151.634 140.229 152.48 140.873C157.022 144.388 162.304 146.407 167.843 146.8C178.845 147.6 189.076 142.167 194.58 132.636C194.852 132.162 195.325 131.845 195.869 131.78C196.402 131.719 196.946 131.9 197.329 132.288C200.949 135.979 205.723 138.2 210.768 138.547C218.346 139.121 225.642 135.536 229.851 129.192C230.178 128.698 230.732 128.361 231.337 128.411C239.091 128.567 246.246 123.905 249.196 116.8C249.373 116.372 249.715 116.035 250.143 115.858C250.571 115.682 251.049 115.687 251.477 115.863C253.995 116.926 256.749 117.651 259.906 118.084C260.697 118.195 261.286 118.809 261.392 119.564C262.021 122.047 262.892 124.383 263.99 126.508C268.375 135.209 276.301 141.513 285.742 143.819C295.445 146.195 305.611 144.111 313.627 138.099C314.286 137.6 315.208 137.641 315.827 138.189C318.753 140.798 322.287 142.671 326.044 143.602C336.713 146.205 347.947 140.919 352.75 131.014C353.002 130.496 353.495 130.133 354.064 130.053C354.654 129.982 355.212 130.178 355.6 130.601C355.615 130.622 355.958 130.994 356.622 131.659L357.373 132.409C358.516 133.456 360.484 135.168 363.128 137.112C374.412 145.329 396.712 155.752 419.26 133.21C435.025 117.439 455.332 116.181 473.247 115.068C492.25 113.89 507.618 112.933 512.995 95.8888C504.214 103.059 482.532 115.254 451.4 95.9089C412.981 72.0421 397.392 84.8667 397.236 84.9976C396.667 85.4911 395.831 85.5616 395.187 85.1688C394.542 84.7761 394.22 84.0107 394.401 83.2756C396.803 73.4771 395.242 63.3362 390.006 54.7109C384.774 46.0907 376.496 40.0233 366.693 37.6215C358.561 35.6074 350.212 36.3375 342.544 39.7212C341.537 40.1038 340.631 40.552 339.764 41.0857C338.193 41.9115 336.723 42.843 335.167 43.996C334.669 44.3686 334.009 44.4442 333.44 44.1924C331.774 43.4673 330.152 42.9084 328.476 42.4804C313.526 38.845 298.259 46.9517 292.977 61.3624C292.766 61.9415 292.262 62.3644 291.658 62.4752C291.059 62.591 290.435 62.3695 290.032 61.9062C288.964 60.6776 287.761 59.4843 286.351 58.2607C285.933 57.8982 285.712 57.3594 285.757 56.8056C287.902 30.1845 268.038 6.36803 241.472 3.70945C214.323 1.05087 190.108 20.8845 187.399 47.9638C187.329 48.6586 186.82 49.6757 186.156 49.8822C184.937 50.2649 183.784 50.6828 182.631 51.141C182.193 51.3071 181.705 51.2971 181.277 51.1057C180.849 50.9094 180.516 50.5519 180.355 50.1088C180.179 49.6002 180.108 49.3887 180.008 49.1823C179.967 49.1068 179.847 48.7694 179.816 48.6888C178.976 46.6345 177.883 44.8168 176.539 43.1602C176.357 42.8984 176.221 42.7826 176.116 42.6768C172.233 38.1603 166.906 35.4916 161.035 35.0737C148.991 34.1573 138.483 43.2055 137.445 55.1893C137.38 55.9194 136.866 56.5337 136.161 56.72C135.451 56.9113 134.701 56.6293 134.283 56.0302C134.006 55.6223 133.694 55.2195 133.352 54.8469C133.08 54.4995 132.883 54.3081 132.687 54.1117C125.9 46.3122 116.63 41.6446 106.499 40.8793C96.2775 40.1542 86.3683 43.3918 78.604 50.0735C70.8397 56.7603 66.1519 66.0653 65.4017 76.2867C64.5709 87.621 68.73 98.6581 76.8115 106.563C77.3603 107.102 77.4862 107.933 77.1337 108.613C76.7812 109.292 76.0209 109.65 75.2606 109.514C75.1347 109.489 62.9193 107.314 44.7574 117.993C29.4857 126.921 12.2149 120.108 4.65207 116.221C7.75375 124.081 18.3025 141.024 52.0433 143.522C85.8144 146.044 111.257 132.021 111.509 131.88C112.259 131.462 113.206 131.654 113.735 132.328C118.276 138.164 125.069 141.815 132.38 142.328C137.843 142.756 143.226 141.447 147.924 138.547C148.205 138.376 148.523 138.29 148.835 138.29V138.285Z" fill="url(#paint7_linear_37_28892)"/>
<path d="M262.439 129.046C261.859 129.046 261.291 128.753 260.958 128.23C259.422 125.773 258.425 123.094 257.977 120.259C256.603 111.382 260.57 102.762 268.038 98.1143C271.285 96.1002 275.112 95.4759 278.818 96.357C282.524 97.2332 285.666 99.504 287.665 102.757C290.389 107.198 289.009 113.054 284.578 115.813C283.763 116.312 282.69 116.07 282.182 115.254C281.673 114.443 281.925 113.366 282.74 112.857C285.55 111.105 286.431 107.389 284.699 104.574C283.189 102.117 280.812 100.4 278.012 99.7407C275.213 99.071 272.318 99.5493 269.865 101.07C263.587 104.977 260.253 112.218 261.366 119.519C261.406 119.69 261.426 119.861 261.426 119.992C261.779 122.087 262.62 124.333 263.904 126.387C264.412 127.203 264.161 128.275 263.35 128.784C263.063 128.96 262.746 129.046 262.428 129.046H262.439Z" fill="url(#paint8_linear_37_28892)"/>
<path d="M262.182 81.05C261.875 81.05 261.573 81.05 261.261 81.0349C251.664 80.6774 244.126 72.611 244.443 63.0542C244.544 59.9929 245.838 57.158 248.079 55.0735C250.319 52.9889 253.255 51.866 256.301 52.002C260.581 52.143 263.96 55.7431 263.819 60.0331C263.788 60.9898 263.079 61.7048 262.021 61.7149C261.059 61.6847 260.309 60.879 260.339 59.9173C260.415 57.5457 258.552 55.5518 256.185 55.4763C254.055 55.3454 252.011 56.1611 250.45 57.6162C248.889 59.0664 247.993 61.0351 247.923 63.1701C247.666 70.8135 253.708 77.2736 261.387 77.5606C274.206 77.9735 285.173 67.8377 285.606 54.9073C285.636 53.9506 286.316 53.2457 287.404 53.2255C288.365 53.2608 289.116 54.0614 289.085 55.0231C288.592 69.5547 276.613 81.045 262.182 81.045V81.05Z" fill="url(#paint9_linear_37_28892)"/>
<defs>
<linearGradient id="paint0_linear_37_28892" x1="192.45" y1="-35.0213" x2="113.372" y2="96.0902" gradientUnits="userSpaceOnUse">
<stop stop-color="#B56B02"/>
<stop offset="0.04" stop-color="#BF7D14"/>
<stop offset="0.13" stop-color="#D5A23A"/>
<stop offset="0.23" stop-color="#E6C057"/>
<stop offset="0.32" stop-color="#F3D56C"/>
<stop offset="0.4" stop-color="#FAE179"/>
<stop offset="0.49" stop-color="#FDE67E"/>
<stop offset="0.56" stop-color="#F9DF77"/>
<stop offset="0.66" stop-color="#EFCE66"/>
<stop offset="0.78" stop-color="#DEB148"/>
<stop offset="0.91" stop-color="#C68920"/>
<stop offset="1" stop-color="#B56B02"/>
</linearGradient>
<linearGradient id="paint1_linear_37_28892" x1="235.123" y1="-9.28134" x2="156.041" y2="121.825" gradientUnits="userSpaceOnUse">
<stop stop-color="#B56B02"/>
<stop offset="0.04" stop-color="#BF7D14"/>
<stop offset="0.13" stop-color="#D5A23A"/>
<stop offset="0.23" stop-color="#E6C057"/>
<stop offset="0.32" stop-color="#F3D56C"/>
<stop offset="0.4" stop-color="#FAE179"/>
<stop offset="0.49" stop-color="#FDE67E"/>
<stop offset="0.56" stop-color="#F9DF77"/>
<stop offset="0.66" stop-color="#EFCE66"/>
<stop offset="0.78" stop-color="#DEB148"/>
<stop offset="0.91" stop-color="#C68920"/>
<stop offset="1" stop-color="#B56B02"/>
</linearGradient>
<linearGradient id="paint2_linear_37_28892" x1="218.573" y1="-19.2662" x2="139.49" y2="111.845" gradientUnits="userSpaceOnUse">
<stop stop-color="#B56B02"/>
<stop offset="0.04" stop-color="#BF7D14"/>
<stop offset="0.13" stop-color="#D5A23A"/>
<stop offset="0.23" stop-color="#E6C057"/>
<stop offset="0.32" stop-color="#F3D56C"/>
<stop offset="0.4" stop-color="#FAE179"/>
<stop offset="0.49" stop-color="#FDE67E"/>
<stop offset="0.56" stop-color="#F9DF77"/>
<stop offset="0.66" stop-color="#EFCE66"/>
<stop offset="0.78" stop-color="#DEB148"/>
<stop offset="0.91" stop-color="#C68920"/>
<stop offset="1" stop-color="#B56B02"/>
</linearGradient>
<linearGradient id="paint3_linear_37_28892" x1="218.431" y1="-19.3467" x2="139.353" y2="111.76" gradientUnits="userSpaceOnUse">
<stop stop-color="#B56B02"/>
<stop offset="0.04" stop-color="#BF7D14"/>
<stop offset="0.13" stop-color="#D5A23A"/>
<stop offset="0.23" stop-color="#E6C057"/>
<stop offset="0.32" stop-color="#F3D56C"/>
<stop offset="0.4" stop-color="#FAE179"/>
<stop offset="0.49" stop-color="#FDE67E"/>
<stop offset="0.56" stop-color="#F9DF77"/>
<stop offset="0.66" stop-color="#EFCE66"/>
<stop offset="0.78" stop-color="#DEB148"/>
<stop offset="0.91" stop-color="#C68920"/>
<stop offset="1" stop-color="#B56B02"/>
</linearGradient>
<linearGradient id="paint4_linear_37_28892" x1="341.643" y1="54.9677" x2="262.566" y2="186.079" gradientUnits="userSpaceOnUse">
<stop stop-color="#B56B02"/>
<stop offset="0.04" stop-color="#BF7D14"/>
<stop offset="0.13" stop-color="#D5A23A"/>
<stop offset="0.23" stop-color="#E6C057"/>
<stop offset="0.32" stop-color="#F3D56C"/>
<stop offset="0.4" stop-color="#FAE179"/>
<stop offset="0.49" stop-color="#FDE67E"/>
<stop offset="0.56" stop-color="#F9DF77"/>
<stop offset="0.66" stop-color="#EFCE66"/>
<stop offset="0.78" stop-color="#DEB148"/>
<stop offset="0.91" stop-color="#C68920"/>
<stop offset="1" stop-color="#B56B02"/>
</linearGradient>
<linearGradient id="paint5_linear_37_28892" x1="381.058" y1="78.7439" x2="301.976" y2="209.85" gradientUnits="userSpaceOnUse">
<stop stop-color="#B56B02"/>
<stop offset="0.04" stop-color="#BF7D14"/>
<stop offset="0.13" stop-color="#D5A23A"/>
<stop offset="0.23" stop-color="#E6C057"/>
<stop offset="0.32" stop-color="#F3D56C"/>
<stop offset="0.4" stop-color="#FAE179"/>
<stop offset="0.49" stop-color="#FDE67E"/>
<stop offset="0.56" stop-color="#F9DF77"/>
<stop offset="0.66" stop-color="#EFCE66"/>
<stop offset="0.78" stop-color="#DEB148"/>
<stop offset="0.91" stop-color="#C68920"/>
<stop offset="1" stop-color="#B56B02"/>
</linearGradient>
<linearGradient id="paint6_linear_37_28892" x1="390.338" y1="84.338" x2="311.256" y2="215.444" gradientUnits="userSpaceOnUse">
<stop stop-color="#B56B02"/>
<stop offset="0.04" stop-color="#BF7D14"/>
<stop offset="0.13" stop-color="#D5A23A"/>
<stop offset="0.23" stop-color="#E6C057"/>
<stop offset="0.32" stop-color="#F3D56C"/>
<stop offset="0.4" stop-color="#FAE179"/>
<stop offset="0.49" stop-color="#FDE67E"/>
<stop offset="0.56" stop-color="#F9DF77"/>
<stop offset="0.66" stop-color="#EFCE66"/>
<stop offset="0.78" stop-color="#DEB148"/>
<stop offset="0.91" stop-color="#C68920"/>
<stop offset="1" stop-color="#B56B02"/>
</linearGradient>
<linearGradient id="paint7_linear_37_28892" x1="302.726" y1="31.4936" x2="223.643" y2="162.605" gradientUnits="userSpaceOnUse">
<stop stop-color="#B56B02"/>
<stop offset="0.04" stop-color="#BF7D14"/>
<stop offset="0.13" stop-color="#D5A23A"/>
<stop offset="0.23" stop-color="#E6C057"/>
<stop offset="0.32" stop-color="#F3D56C"/>
<stop offset="0.4" stop-color="#FAE179"/>
<stop offset="0.49" stop-color="#FDE67E"/>
<stop offset="0.56" stop-color="#F9DF77"/>
<stop offset="0.66" stop-color="#EFCE66"/>
<stop offset="0.78" stop-color="#DEB148"/>
<stop offset="0.91" stop-color="#C68920"/>
<stop offset="1" stop-color="#B56B02"/>
</linearGradient>
<linearGradient id="paint8_linear_37_28892" x1="316.154" y1="39.5953" x2="237.071" y2="170.702" gradientUnits="userSpaceOnUse">
<stop stop-color="#B56B02"/>
<stop offset="0.04" stop-color="#BF7D14"/>
<stop offset="0.13" stop-color="#D5A23A"/>
<stop offset="0.23" stop-color="#E6C057"/>
<stop offset="0.32" stop-color="#F3D56C"/>
<stop offset="0.4" stop-color="#FAE179"/>
<stop offset="0.49" stop-color="#FDE67E"/>
<stop offset="0.56" stop-color="#F9DF77"/>
<stop offset="0.66" stop-color="#EFCE66"/>
<stop offset="0.78" stop-color="#DEB148"/>
<stop offset="0.91" stop-color="#C68920"/>
<stop offset="1" stop-color="#B56B02"/>
</linearGradient>
<linearGradient id="paint9_linear_37_28892" x1="289.377" y1="23.4424" x2="210.295" y2="154.554" gradientUnits="userSpaceOnUse">
<stop stop-color="#B56B02"/>
<stop offset="0.04" stop-color="#BF7D14"/>
<stop offset="0.13" stop-color="#D5A23A"/>
<stop offset="0.23" stop-color="#E6C057"/>
<stop offset="0.32" stop-color="#F3D56C"/>
<stop offset="0.4" stop-color="#FAE179"/>
<stop offset="0.49" stop-color="#FDE67E"/>
<stop offset="0.56" stop-color="#F9DF77"/>
<stop offset="0.66" stop-color="#EFCE66"/>
<stop offset="0.78" stop-color="#DEB148"/>
<stop offset="0.91" stop-color="#C68920"/>
<stop offset="1" stop-color="#B56B02"/>
</linearGradient>
</defs>
</svg>
