<svg width="380" height="380" viewBox="0 0 380 380" fill="none" xmlns="http://www.w3.org/2000/svg">
<path d="M331.64 190.091C331.64 111.915 268.266 48.5415 190.09 48.5415C111.915 48.5415 48.541 111.915 48.541 190.091C48.541 268.266 111.915 331.64 190.09 331.64C268.266 331.64 331.64 268.266 331.64 190.091Z" fill="#091C46"/>
<path d="M331.64 190.091C331.64 111.915 268.266 48.5415 190.09 48.5415C111.915 48.5415 48.541 111.915 48.541 190.091C48.541 268.266 111.915 331.64 190.09 331.64C268.266 331.64 331.64 268.266 331.64 190.091Z" stroke="url(#paint0_linear_37_35925)" stroke-width="4.31115"/>
<path d="M323.735 190.091C323.735 116.28 263.9 56.4453 190.09 56.4453C116.279 56.4453 56.4443 116.28 56.4443 190.091C56.4443 263.901 116.279 323.736 190.09 323.736C263.9 323.736 323.735 263.901 323.735 190.091Z" stroke="url(#paint1_linear_37_35925)" stroke-width="2.8741"/>
<path d="M101.901 230.73L100.522 233.489H79.5521V231.351L86.0361 226.247V184.446L78.8623 182.032L80.2419 179.272H101.211V181.411L94.6583 186.515V228.247L101.901 230.73ZM132.458 233.489H119.973L98.5901 206.312L119.766 187.826L111.765 182.032L113.145 179.272H131.7V181.411L106.868 203.07L125.837 226.799L133.838 230.73L132.458 233.489ZM195.736 233.489H174.766V231.351L181.25 226.247V208.036H154.004V228.247L161.247 230.73L159.867 233.489H138.898V231.351L145.382 226.247V184.446L138.208 182.032L139.587 179.272H160.557V181.411L154.004 186.515V204.932H181.25V184.446L174.077 182.032L175.456 179.272H196.426V181.411L189.873 186.515V228.247L197.115 230.73L195.736 233.489ZM225.68 233.489H204.71V231.351L211.194 226.247V184.446L204.02 182.032L205.4 179.272H226.369V181.411L219.816 186.515V228.247L227.059 230.73L225.68 233.489ZM299.872 233.558H278.903V231.42L285.387 226.316V188.171L266.969 233.558H263.176L244.896 187.688V227.143L252.139 230.799L250.76 233.558H234.619V231.42L241.103 226.316V185.894L233.929 182.032L235.308 179.272H250.277L267.521 222.591L284.697 179.272H300.562V181.411L294.009 186.515V228.247L301.252 230.799L299.872 233.558Z" fill="url(#paint2_linear_37_35925)"/>
<path d="M208.484 155.141H171.983V147.657C177.142 149.478 183.376 150.542 190.09 150.542C196.929 150.542 203.271 149.438 208.484 147.554V155.141Z" fill="url(#paint3_linear_37_35925)"/>
<path d="M140.368 113.208C140.368 122.47 145.592 131.352 154.889 137.901C164.187 144.45 176.797 148.129 189.946 148.129C203.095 148.129 215.706 144.45 225.003 137.901C234.301 131.352 239.525 122.47 239.525 113.208H234.007C234.007 121.439 229.365 129.333 221.102 135.153C212.839 140.973 201.632 144.243 189.946 144.242C178.261 144.242 167.054 140.973 158.791 135.153C150.528 129.333 145.886 121.439 145.886 113.208H140.368Z" fill="url(#paint4_linear_37_35925)"/>
<path d="M149.886 113.668C150.921 119.703 153.129 125.452 156.042 129.7C158.956 133.948 162.348 136.364 165.503 136.439C168.658 136.514 171.329 134.241 172.953 130.1C174.577 125.959 175.027 120.274 174.208 114.244L172.97 114.134C173.706 119.557 173.302 124.669 171.842 128.393C170.381 132.116 167.979 134.16 165.142 134.093C162.305 134.026 159.255 131.853 156.635 128.033C154.015 124.213 152.03 119.044 151.099 113.617L149.886 113.668Z" fill="url(#paint5_linear_37_35925)"/>
<path d="M228.282 115.392C227.758 118.449 226.927 121.463 225.838 124.261C224.748 127.06 223.421 129.588 221.932 131.702C220.443 133.816 218.822 135.475 217.161 136.583C215.5 137.691 213.831 138.227 212.25 138.16C210.669 138.093 209.207 137.424 207.947 136.193C206.687 134.961 205.654 133.19 204.907 130.981C204.161 128.772 203.714 126.169 203.594 123.319C203.473 120.469 203.681 117.429 204.206 114.372L205.419 114.424C204.947 117.172 204.76 119.906 204.869 122.469C204.977 125.031 205.378 127.372 206.05 129.359C206.722 131.345 207.651 132.937 208.783 134.045C209.916 135.152 211.231 135.753 212.653 135.814C214.074 135.874 215.575 135.392 217.068 134.396C218.562 133.4 220.02 131.908 221.359 130.007C222.698 128.106 223.891 125.833 224.871 123.316C225.85 120.8 226.597 118.09 227.069 115.341L228.282 115.392Z" fill="url(#paint6_linear_37_35925)"/>
<path d="M153.979 114.56C154.801 119.189 156.405 123.622 158.452 126.925C160.5 130.228 162.832 132.143 164.956 132.265C167.08 132.387 168.83 130.707 169.837 127.58C170.844 124.452 171.03 120.122 170.354 115.502L168.715 115.288C169.257 118.994 169.108 122.468 168.301 124.977C167.493 127.486 166.089 128.833 164.385 128.735C162.681 128.638 160.81 127.102 159.168 124.452C157.525 121.802 156.238 118.246 155.579 114.532L153.979 114.56Z" fill="url(#paint7_linear_37_35925)"/>
<path d="M224.477 114.848C224.061 117.192 223.439 119.51 222.649 121.669C221.858 123.828 220.913 125.785 219.868 127.43C218.823 129.074 217.698 130.374 216.557 131.254C215.417 132.134 214.283 132.577 213.221 132.559C212.159 132.54 211.189 132.06 210.367 131.146C209.545 130.232 208.886 128.901 208.429 127.231C207.973 125.56 207.726 123.581 207.704 121.408C207.682 119.236 207.884 116.911 208.3 114.566L209.9 114.594C209.566 116.475 209.404 118.34 209.421 120.083C209.439 121.826 209.637 123.413 210.004 124.754C210.37 126.094 210.898 127.161 211.558 127.895C212.217 128.628 212.995 129.013 213.847 129.028C214.7 129.043 215.609 128.687 216.524 127.981C217.439 127.275 218.341 126.233 219.18 124.913C220.018 123.594 220.776 122.024 221.411 120.292C222.045 118.56 222.543 116.701 222.877 114.82L224.477 114.848Z" fill="url(#paint8_linear_37_35925)"/>
<path d="M157.896 114.638C158.452 117.629 159.407 120.518 160.558 122.695C161.709 124.872 162.967 126.166 164.067 126.305C165.167 126.444 166.022 125.416 166.453 123.439C166.884 121.463 166.856 118.69 166.375 115.708L165.523 115.524C165.909 117.917 165.931 120.14 165.586 121.726C165.24 123.312 164.554 124.137 163.671 124.025C162.789 123.914 161.78 122.875 160.856 121.129C159.933 119.383 159.167 117.065 158.721 114.666L157.896 114.638Z" fill="url(#paint9_linear_37_35925)"/>
<path d="M220.847 114.66C220.565 116.175 220.179 117.679 219.709 119.086C219.239 120.493 218.696 121.775 218.109 122.86C217.523 123.944 216.905 124.81 216.291 125.406C215.678 126.003 215.08 126.32 214.532 126.339C213.984 126.357 213.497 126.077 213.099 125.514C212.701 124.951 212.399 124.116 212.211 123.058C212.022 122 211.952 120.738 212.002 119.345C212.053 117.952 212.224 116.455 212.505 114.94L213.33 114.912C213.104 116.128 212.967 117.329 212.926 118.446C212.886 119.563 212.943 120.576 213.094 121.425C213.245 122.274 213.487 122.943 213.807 123.395C214.126 123.846 214.517 124.071 214.956 124.057C215.395 124.042 215.875 123.788 216.368 123.309C216.86 122.83 217.355 122.136 217.826 121.266C218.296 120.396 218.732 119.367 219.109 118.238C219.486 117.11 219.796 115.903 220.022 114.688L220.847 114.66Z" fill="url(#paint10_linear_37_35925)"/>
<path d="M180.031 114.933C180.031 120.459 180.985 125.76 182.683 129.667C184.381 133.575 186.684 135.77 189.085 135.77C191.486 135.77 193.788 133.575 195.486 129.667C197.184 125.76 198.138 120.459 198.138 114.933H196.656C196.656 119.555 195.859 123.988 194.439 127.256C193.019 130.524 191.093 132.36 189.085 132.36C187.077 132.36 185.151 130.524 183.731 127.256C182.311 123.988 181.513 119.555 181.513 114.933H180.031Z" fill="url(#paint11_linear_37_35925)"/>
<path d="M176.295 114.502C176.295 121.591 177.627 128.39 179.999 133.402C182.37 138.415 185.587 141.231 188.941 141.231C192.295 141.231 195.511 138.415 197.883 133.402C200.255 128.39 201.587 121.591 201.587 114.502H200.032C200.032 120.719 198.863 126.682 196.783 131.078C194.703 135.474 191.882 137.944 188.941 137.944C186 137.944 183.179 135.474 181.099 131.078C179.019 126.682 177.85 120.719 177.85 114.502H176.295Z" fill="url(#paint12_linear_37_35925)"/>
<path d="M183.791 114.461C183.722 116.226 183.807 118.005 184.04 119.689C184.274 121.372 184.651 122.924 185.149 124.248C185.646 125.572 186.252 126.64 186.931 127.385C187.61 128.131 188.347 128.538 189.094 128.581C189.843 128.625 190.586 128.304 191.28 127.638C191.973 126.972 192.601 125.976 193.125 124.712C193.65 123.447 194.058 121.941 194.326 120.286C194.595 118.632 194.716 116.865 194.684 115.094L193.571 115.208C193.597 116.617 193.5 118.024 193.286 119.341C193.073 120.657 192.747 121.856 192.33 122.863C191.913 123.869 191.413 124.662 190.861 125.192C190.309 125.722 189.717 125.978 189.122 125.943C188.526 125.908 187.94 125.584 187.4 124.991C186.86 124.398 186.377 123.548 185.981 122.494C185.585 121.44 185.285 120.205 185.099 118.865C184.913 117.525 184.845 116.109 184.9 114.704L183.791 114.461Z" fill="url(#paint13_linear_37_35925)"/>
<path d="M185.779 114.502C185.779 116.941 186.112 119.28 186.705 121.005C187.298 122.73 188.102 123.699 188.941 123.699C189.779 123.699 190.583 122.73 191.176 121.005C191.769 119.28 192.102 116.941 192.102 114.502H191.457C191.457 116.443 191.192 118.306 190.72 119.678C190.248 121.051 189.608 121.823 188.941 121.823C188.273 121.823 187.633 121.051 187.161 119.678C186.69 118.306 186.424 116.443 186.424 114.502H185.779Z" fill="url(#paint14_linear_37_35925)"/>
<path d="M184.893 105.78C185.02 104.49 184.628 103.201 183.742 101.996C182.856 100.791 181.496 99.6968 179.751 98.7858C178.006 97.8747 175.915 97.1668 173.613 96.7081C171.312 96.2491 168.852 96.0496 166.394 96.1226C163.935 96.1956 161.534 96.5394 159.346 97.1317C157.158 97.7238 155.232 98.5512 153.694 99.5597C152.156 100.568 151.04 101.735 150.419 102.985C149.798 104.235 149.686 105.54 150.09 106.814L152.001 106.647C151.642 105.514 151.742 104.353 152.294 103.242C152.847 102.13 153.839 101.092 155.207 100.195C156.575 99.2976 158.288 98.5616 160.234 98.035C162.181 97.5082 164.316 97.2024 166.503 97.1375C168.69 97.0725 170.878 97.2498 172.925 97.658C174.972 98.0661 176.832 98.6961 178.385 99.5063C179.937 100.317 181.146 101.289 181.934 102.361C182.722 103.433 183.071 104.58 182.958 105.728L184.893 105.78Z" fill="url(#paint15_linear_37_35925)"/>
<path d="M179.854 106.414C180.163 105.454 180.067 104.469 179.572 103.531C179.077 102.592 178.196 101.723 176.992 100.986C175.788 100.248 174.29 99.6606 172.606 99.2649C170.922 98.8694 169.094 98.6754 167.252 98.6969C165.41 98.7185 163.6 98.955 161.95 99.3896C160.301 99.8244 158.854 100.446 157.713 101.211C156.572 101.976 155.764 102.865 155.349 103.814C154.933 104.763 154.919 105.749 155.308 106.702L157.78 106.419C157.469 105.66 157.48 104.873 157.812 104.116C158.144 103.359 158.788 102.649 159.698 102.039C160.609 101.429 161.763 100.933 163.078 100.586C164.394 100.239 165.838 100.051 167.308 100.033C168.778 100.016 170.236 100.171 171.579 100.487C172.923 100.802 174.118 101.271 175.078 101.859C176.039 102.448 176.742 103.141 177.136 103.89C177.531 104.638 177.608 105.424 177.361 106.19L179.854 106.414Z" fill="url(#paint16_linear_37_35925)"/>
<path d="M176.283 105.649C176.344 105.105 176.155 104.561 175.726 104.052C175.298 103.544 174.64 103.082 173.796 102.698C172.952 102.314 171.941 102.015 170.828 101.822C169.715 101.628 168.525 101.544 167.336 101.575C166.147 101.605 164.986 101.75 163.928 102C162.87 102.25 161.939 102.599 161.195 103.025C160.451 103.45 159.911 103.942 159.611 104.47C159.311 104.997 159.256 105.547 159.452 106.085L161.993 105.892C161.857 105.517 161.895 105.134 162.104 104.767C162.313 104.4 162.688 104.057 163.206 103.761C163.724 103.465 164.373 103.222 165.109 103.048C165.846 102.874 166.654 102.773 167.482 102.752C168.31 102.73 169.138 102.789 169.912 102.923C170.687 103.058 171.391 103.266 171.979 103.534C172.567 103.801 173.024 104.123 173.323 104.476C173.621 104.83 173.753 105.209 173.71 105.588L176.283 105.649Z" fill="url(#paint17_linear_37_35925)"/>
<path d="M148.703 114.646H230.902" stroke="url(#paint18_linear_37_35925)" stroke-width="2.01187"/>
<path d="M140.655 110.334H239.812" stroke="url(#paint19_linear_37_35925)" stroke-width="2.01187"/>
<path d="M97.5449 261.512H123.987" stroke="url(#paint20_linear_37_35925)" stroke-width="1.43705"/>
<path d="M255.62 261.512H282.062" stroke="url(#paint21_linear_37_35925)" stroke-width="1.43705"/>
<path d="M228.028 146.835H294.133" stroke="url(#paint22_linear_37_35925)" stroke-width="1.43705"/>
<path d="M84.3232 146.835H150.427" stroke="url(#paint23_linear_37_35925)" stroke-width="1.43705"/>
<path d="M196.968 106.053L220.823 70.7017" stroke="url(#paint24_linear_37_35925)" stroke-width="1.43705"/>
<path d="M202.745 106.012L227.462 74.3975" stroke="url(#paint25_linear_37_35925)" stroke-width="1.43705"/>
<path d="M140.655 106.024H239.812" stroke="url(#paint26_linear_37_35925)" stroke-width="1.43705"/>
<path d="M75.4141 166.092H308.216" stroke="url(#paint27_linear_37_35925)" stroke-width="1.43705"/>
<path d="M160.659 267.692H152.272V266.837L154.865 264.823L152.741 259.718H143.47L141.208 264.933L146.064 266.589L145.512 267.692H137.124V266.837L139.718 264.795L147.526 246.888L150.395 245.481L158.452 264.906L161.211 266.589L160.659 267.692ZM148.216 248.792L144.022 258.477H152.244L148.216 248.792ZM175.065 262.809C175.065 262.238 174.835 261.705 174.375 261.208C173.916 260.712 173.336 260.261 172.637 259.856C171.957 259.433 171.028 258.918 169.851 258.311C168.453 257.575 167.331 256.95 166.484 256.435C165.638 255.902 164.912 255.276 164.305 254.559C163.716 253.841 163.422 253.05 163.422 252.186C163.422 251.266 163.808 250.282 164.581 249.234C165.353 248.167 166.291 247.275 167.395 246.557C168.517 245.821 169.547 245.454 170.485 245.454C171.626 245.454 172.95 245.592 174.458 245.867C175.967 246.143 177.07 246.438 177.769 246.75V252.103H176.721C175.819 250.613 174.826 249.454 173.741 248.627C172.674 247.799 171.552 247.385 170.375 247.385C169.326 247.385 168.489 247.716 167.864 248.378C167.257 249.022 166.953 249.868 166.953 250.917C166.953 251.524 167.183 252.094 167.643 252.627C168.121 253.142 168.701 253.602 169.381 254.007C170.08 254.412 171.046 254.936 172.279 255.58C173.64 256.26 174.743 256.867 175.59 257.401C176.436 257.916 177.144 258.523 177.714 259.222C178.303 259.902 178.597 260.675 178.597 261.539C178.597 262.459 178.183 263.452 177.355 264.519C176.528 265.568 175.516 266.46 174.32 267.196C173.143 267.913 172.067 268.272 171.092 268.272C169.896 268.272 168.471 268.134 166.815 267.858C165.178 267.582 164.001 267.288 163.284 266.975V261.622H164.332C165.27 263.112 166.337 264.271 167.533 265.099C168.728 265.926 169.961 266.34 171.23 266.34C171.984 266.34 172.656 266.175 173.244 265.844C173.833 265.513 174.284 265.08 174.596 264.547C174.909 263.995 175.065 263.416 175.065 262.809ZM190.577 267.692H182.189V266.837L184.783 264.795V248.075L181.913 247.109L182.465 246.005H190.853V246.861L188.232 248.903V265.595L191.129 266.589L190.577 267.692ZM215.95 267.692H207.562V266.837L210.156 264.823L208.031 259.718H198.76L196.498 264.933L201.354 266.589L200.802 267.692H192.414V266.837L195.008 264.795L202.816 246.888L205.686 245.481L213.743 264.906L216.502 266.589L215.95 267.692ZM203.506 248.792L199.312 258.477H207.535L203.506 248.792ZM236.895 248.93V267.72H235.377L222.271 251.137V265.154L225.169 266.616L224.617 267.72H218.16V266.864L220.754 264.823V248.654L217.884 247.109L218.436 246.005H222.603L235.377 262.174V248.544L232.508 247.109L233.06 246.005H239.516V246.888L236.895 248.93Z" fill="url(#paint28_linear_37_35925)"/>
<path d="M128.171 293.594H124.75L120.703 287.065L119.839 286.439L120.115 285.887H121.145C121.979 285.887 122.635 285.679 123.113 285.262C123.604 284.833 123.849 284.25 123.849 283.514C123.849 282.546 123.579 281.743 123.039 281.105C122.5 280.455 121.715 280.13 120.685 280.13C119.998 280.13 119.367 280.332 118.79 280.737V292.196L120.722 292.859L120.354 293.594H114.762V293.024L116.491 291.663V280.479L114.578 279.854L114.946 279.118H117.08C118.196 279.118 119.293 279.081 120.372 279.008C121.157 278.959 121.74 278.934 122.12 278.934C122.941 278.934 123.671 279.1 124.309 279.431C124.958 279.762 125.455 280.21 125.799 280.774C126.154 281.338 126.332 281.957 126.332 282.632C126.332 283.245 126.142 283.833 125.762 284.397C125.382 284.949 124.879 285.433 124.253 285.851C123.64 286.255 122.99 286.562 122.304 286.77L123.499 287.175L126.35 291.773L128.539 292.859L128.171 293.594ZM140.654 293.558H129.617V292.987L131.346 291.626V280.479L129.433 279.836L129.801 279.1H140.47L141.463 278.769V282.999L140.911 283.183L138.722 279.928H133.645V285.759H136.533L137.876 283.404H138.446V288.996L137.711 289.364L136.552 286.586H133.645V292.73H138.649L141.095 289.106L141.647 289.29V293.889L140.654 293.558ZM152.729 290.302C152.729 289.922 152.575 289.566 152.269 289.235C151.962 288.904 151.576 288.604 151.11 288.334C150.656 288.052 150.037 287.708 149.252 287.304C148.32 286.813 147.572 286.396 147.008 286.053C146.444 285.697 145.96 285.28 145.555 284.802C145.163 284.324 144.966 283.796 144.966 283.22C144.966 282.607 145.224 281.951 145.739 281.252C146.254 280.541 146.879 279.946 147.615 279.468C148.363 278.977 149.05 278.732 149.675 278.732C150.435 278.732 151.318 278.824 152.324 279.008C153.33 279.192 154.065 279.388 154.531 279.596V283.165H153.832C153.231 282.172 152.569 281.399 151.846 280.847C151.134 280.295 150.387 280.02 149.602 280.02C148.903 280.02 148.345 280.24 147.928 280.682C147.523 281.111 147.321 281.675 147.321 282.374C147.321 282.779 147.474 283.159 147.781 283.514C148.099 283.858 148.486 284.164 148.939 284.434C149.405 284.704 150.049 285.054 150.871 285.483C151.778 285.936 152.514 286.341 153.078 286.697C153.642 287.04 154.114 287.445 154.494 287.911C154.887 288.364 155.083 288.88 155.083 289.456C155.083 290.069 154.807 290.731 154.255 291.442C153.703 292.141 153.029 292.736 152.232 293.227C151.447 293.705 150.73 293.944 150.08 293.944C149.283 293.944 148.332 293.852 147.229 293.668C146.137 293.484 145.353 293.288 144.874 293.079V289.511H145.573C146.199 290.504 146.91 291.277 147.707 291.829C148.504 292.38 149.326 292.656 150.172 292.656C150.674 292.656 151.122 292.546 151.515 292.325C151.907 292.105 152.208 291.816 152.416 291.461C152.624 291.093 152.729 290.707 152.729 290.302ZM170.391 283.367L169.839 283.551L167.393 279.928H165.148V292.16L167.08 292.822L166.712 293.558H161.12V292.987L162.849 291.626V279.928H160.66L158.214 283.551L157.662 283.367V278.769L158.655 279.1H169.398L170.391 278.769V283.367ZM185.104 293.558H179.513V292.987L181.242 291.645L179.825 288.242H173.645L172.137 291.718L175.374 292.822L175.006 293.558H169.414V292.987L171.143 291.626L176.349 279.688L178.262 278.75L183.633 291.7L185.472 292.822L185.104 293.558ZM176.809 280.958L174.013 287.414H179.494L176.809 280.958ZM199.693 281.031V287.855C199.693 289.143 199.381 290.247 198.755 291.166C198.142 292.086 197.382 292.779 196.474 293.245C195.567 293.699 194.678 293.926 193.807 293.926C192.716 293.926 191.735 293.686 190.864 293.208C190.006 292.718 189.331 292.049 188.841 291.203C188.363 290.345 188.123 289.382 188.123 288.315V280.479L186.21 279.836L186.578 279.1H192.17V279.67L190.423 281.031V287.432C190.423 288.99 190.803 290.204 191.563 291.074C192.336 291.945 193.501 292.38 195.058 292.38C195.634 292.38 196.198 292.197 196.75 291.829C197.314 291.448 197.774 290.897 198.13 290.173C198.498 289.45 198.682 288.597 198.682 287.616V280.792L196.769 279.836L197.137 279.1H201.441V279.67L199.693 281.031ZM216.532 293.594H213.111L209.064 287.065L208.2 286.439L208.475 285.887H209.506C210.339 285.887 210.995 285.679 211.474 285.262C211.964 284.833 212.209 284.25 212.209 283.514C212.209 282.546 211.94 281.743 211.4 281.105C210.86 280.455 210.076 280.13 209.046 280.13C208.359 280.13 207.727 280.332 207.151 280.737V292.196L209.082 292.859L208.715 293.594H203.123V293.024L204.852 291.663V280.479L202.939 279.854L203.307 279.118H205.44C206.556 279.118 207.654 279.081 208.733 279.008C209.518 278.959 210.1 278.934 210.48 278.934C211.302 278.934 212.032 279.1 212.669 279.431C213.319 279.762 213.816 280.21 214.159 280.774C214.515 281.338 214.693 281.957 214.693 282.632C214.693 283.245 214.502 283.833 214.122 284.397C213.742 284.949 213.24 285.433 212.614 285.851C212.001 286.255 211.351 286.562 210.664 286.77L211.86 287.175L214.711 291.773L216.9 292.859L216.532 293.594ZM232.509 293.558H226.917V292.987L228.646 291.645L227.23 288.242H221.05L219.541 291.718L222.779 292.822L222.411 293.558H216.819V292.987L218.548 291.626L223.754 279.688L225.667 278.75L231.038 291.7L232.877 292.822L232.509 293.558ZM224.213 280.958L221.418 287.414H226.899L224.213 280.958ZM246.472 281.05V293.576H245.461L236.724 282.521V291.865L238.655 292.84L238.287 293.576H233.983V293.006L235.712 291.645V280.866L233.799 279.836L234.167 279.1H236.944L245.461 289.879V280.792L243.548 279.836L243.916 279.1H248.22V279.688L246.472 281.05ZM262.973 283.367L262.421 283.551L259.974 279.928H257.73V292.16L259.662 292.822L259.294 293.558H253.702V292.987L255.431 291.626V279.928H253.242L250.796 283.551L250.244 283.367V278.769L251.237 279.1H261.979L262.973 278.769V283.367Z" fill="url(#paint29_linear_37_35925)"/>
<path d="M363.712 166.904L363.663 166.911L362.905 160.708L341.499 163.331C340.286 157.783 337.348 145.203 333.412 133.985C334.573 133.53 335.961 133.004 337.304 132.502L345.384 159.016L361.419 156.257L360.922 153.17C360.804 152.436 357.915 135.083 347.771 114.671L347.778 114.666L345.158 108.909L325.528 117.843C322.704 112.914 316.122 101.798 308.994 92.2835C309.966 91.4986 311.13 90.5808 312.259 89.6976L327.935 112.557L342.4 105.107L340.997 102.31C340.662 101.645 332.639 85.8445 316.71 69.3571L316.673 69.3915L312.537 64.7659L296.461 79.1423C292.298 75.2794 282.702 66.6285 273.064 59.6679C273.758 58.6296 274.595 57.4067 275.412 56.2282L297.186 73.3799L308.775 61.9586L306.603 59.7073C306.086 59.1733 293.806 46.5759 273.825 35.6122L273.83 35.6048L268.392 32.3742L257.379 50.9161C252.247 48.4827 240.496 43.1165 229.212 39.3742C229.561 38.176 229.992 36.7563 230.418 35.3883L256.338 45.203L263.961 30.8266L261.212 29.3331C260.558 28.9788 245.001 20.6183 222.571 16.1747L222.576 16.155L216.366 14.9642L212.306 36.1461C206.652 35.5999 193.777 34.5444 181.893 34.8568C181.814 33.6118 181.738 32.1282 181.671 30.6987L209.386 31.1268L211.671 15.0158L208.579 14.5434C207.846 14.4327 190.44 11.8665 167.903 15.2693V15.2594L161.619 15.9902L164.111 37.4132C158.556 38.5918 145.958 41.4533 134.716 45.3235C134.269 44.1573 133.749 42.7671 133.255 41.4237L159.818 33.5036L157.158 17.4517L154.065 17.9315C153.33 18.0471 135.831 20.8446 115.257 30.957L115.279 31.0013L109.608 33.5208L118.369 53.2289C113.416 56.0092 102.243 62.4925 92.665 69.5367C91.89 68.5575 90.9796 67.3863 90.1086 66.2496L113.106 50.7759L105.784 36.2445L102.974 37.6224C102.31 37.9496 86.5533 45.7812 69.997 61.4443L69.9896 61.437L65.2483 65.6246L79.5263 81.7872C75.6388 85.9282 66.9313 95.4697 59.9116 105.065C58.8783 104.364 57.6579 103.52 56.4867 102.699L73.7713 81.0294L62.4213 69.3719L60.1577 71.5321C59.6188 72.0464 46.8516 84.3363 35.7378 104.386L35.7846 104.413L32.9009 109.516L51.6765 120.128C49.3539 125.312 44.2411 137.174 40.7448 148.539C39.5392 148.214 38.1097 147.816 36.7343 147.419L45.9905 121.292L31.4542 113.982L30.0198 116.762C29.6802 117.422 21.6912 133.097 17.72 155.541H17.7102L16.3963 161.727L37.4921 166.205C36.8352 171.847 35.5238 184.698 35.6025 196.586C34.3551 196.638 32.8714 196.687 31.4394 196.724L32.4162 169.022L16.3545 166.419L15.8206 169.502C15.6951 170.233 12.7795 187.606 15.7492 210.23H15.7369L16.357 216.526L37.8194 214.407C38.902 219.983 41.542 232.629 45.2154 243.935C44.0418 244.363 42.6443 244.858 41.291 245.328L33.8359 218.632L17.7397 221.011L18.1654 224.111C18.2663 224.847 20.7464 242.264 30.4061 262.908H30.3962L32.8788 268.729L52.7124 260.258C55.4189 265.25 61.7397 276.519 68.6413 286.198C67.6522 286.958 66.4662 287.851 65.3148 288.705L50.1806 265.484L35.5435 272.592L36.8819 275.421C37.2018 276.093 45.1219 292.699 60.6227 309.535L60.6079 309.548L64.8768 314.213L80.786 299.652C84.9933 303.465 94.6875 312.006 104.406 318.853C103.725 319.899 102.9 321.134 102.098 322.32L80.1291 305.419L68.6733 316.973L70.8729 319.2C71.397 319.729 84.5923 332.698 104.837 343.457L104.871 343.393L110.188 346.469L120.987 327.799C126.147 330.173 137.959 335.404 149.287 339.016C148.95 340.219 148.537 341.644 148.128 343.017L122.094 333.5L114.639 347.962L117.405 349.424C118.064 349.771 134.392 358.166 156.932 362.346L158.14 356.013C141.975 353.014 128.582 347.672 123.179 345.192L125.158 341.354L152.235 351.252L153.211 348.061C153.477 347.19 155.822 339.501 156.201 337.451L156.718 334.649L153.986 333.844C138.978 329.421 121.245 320.944 121.068 320.858L118.428 319.591L107.888 337.813C93.3736 330.097 82.0605 320.885 77.6539 316.897L80.695 313.831L103.548 331.411L105.437 328.663C105.951 327.912 110.501 321.284 111.478 319.441L112.814 316.924L110.449 315.335C97.4628 306.605 83.0988 293.191 82.9536 293.055L80.8155 291.055L65.4895 305.079C54.3609 292.999 46.8762 280.714 44.0418 275.495L47.9268 273.608L63.6663 297.762L66.3604 295.794C67.0937 295.255 73.5818 290.506 75.1147 289.094L77.2085 287.163L75.5034 284.879C66.1415 272.341 57.0305 254.926 56.9394 254.751L55.5862 252.155L36.2201 260.425C29.2349 245.557 26.1052 232.167 24.9685 226.336L29.2398 225.703L36.9926 253.472L40.1543 252.404C41.0155 252.111 48.6305 249.533 50.5177 248.644L53.0962 247.431L52.1563 244.742C46.9943 229.97 43.5374 210.623 43.503 210.429L42.9912 207.545L22.0209 209.614H22.0381C19.8754 193.314 20.9481 179.59 21.6321 173.685L25.8961 174.376L24.8799 203.19L28.2163 203.129C29.1266 203.111 37.1649 202.956 39.2316 202.681L42.0562 202.304L41.975 199.458C41.5272 183.817 44.0886 164.33 44.1156 164.133L44.4994 161.23L23.9007 156.858C26.7375 140.678 31.8799 127.923 34.3034 122.5L38.1614 124.439L28.5337 151.615L31.7322 152.559C32.6057 152.815 40.3192 155.084 42.3712 155.443L45.1785 155.933L45.956 153.192C50.2298 138.139 58.5289 120.323 58.6125 120.145L59.8526 117.493L41.4682 107.103C49.3883 92.9133 58.3025 82.6582 62.3327 78.3574L65.3467 81.4526L47.3683 103.99L50.0846 105.927C50.8252 106.453 57.3749 111.118 59.1981 112.129L61.6905 113.51L63.3218 111.175C72.2778 98.3435 85.9431 84.2182 86.0809 84.0754L88.1181 81.9742L74.1773 66.193C86.0932 54.8873 97.8196 47.7028 102.999 44.7921L104.943 48.6476L81.0222 64.7413L83.0299 67.406C83.5786 68.1318 88.4232 74.5486 89.8601 76.0593L91.8235 78.1236L94.0797 76.3866C106.478 66.8401 123.758 57.4732 123.932 57.3797L126.508 55.9871L116.637 33.7816L118.039 36.6357C132.795 29.3824 146.14 26.0165 151.957 24.7789L152.663 29.0403L125.035 37.2779L126.156 40.4199C126.464 41.2761 129.175 48.8444 130.098 50.7144L131.358 53.2708L134.03 52.2841C148.709 46.8638 167.994 43.0722 168.188 43.0353L171.062 42.4743L168.629 21.5582C184.867 19.0805 198.597 19.8801 204.509 20.446L203.904 24.7223L175.077 24.2745L175.205 27.6084C175.242 28.5187 175.555 36.5521 175.87 38.6115L176.303 41.4287L179.147 41.2909C194.776 40.5331 214.309 42.7106 214.506 42.7327L217.417 43.0599L221.38 22.3922C237.437 25.581 250.032 30.9718 255.389 33.5061L253.366 37.3222L226.405 27.1114L225.391 30.2903C225.115 31.1563 222.682 38.8206 222.278 40.8652L221.727 43.6603L224.451 44.4968C239.408 49.0929 257.042 57.7734 257.219 57.8619L259.844 59.1586L270.597 41.0547C285.01 48.9355 295.44 57.8988 299.797 61.9364L296.721 64.9677L274.073 47.127L272.152 49.8557C271.627 50.6012 267.004 57.1779 266.005 59.006L264.64 61.5083L266.985 63.1248C279.87 72.0045 294.079 85.5837 294.222 85.719L296.335 87.744L314.449 71.5469L312.161 73.7564C323.585 85.5812 330.877 97.256 333.837 102.411L329.999 104.389L313.696 80.6112L311.049 82.6435C310.328 83.1971 303.953 88.0983 302.454 89.5475L300.407 91.5281L302.164 93.7696C311.819 106.084 321.338 123.28 321.432 123.452L322.846 126.016L342.011 117.294C349.343 131.995 352.787 145.306 354.06 151.11L349.803 151.843L341.398 124.264L338.263 125.406C337.41 125.718 329.859 128.477 327.991 129.409L325.442 130.684L326.444 133.351C331.952 147.998 335.862 167.258 335.901 167.452L336.48 170.324L357.44 167.755C359.514 184.043 358.375 197.743 357.664 203.638L353.405 202.927L354.564 174.12L351.228 174.164C350.317 174.177 342.279 174.292 340.21 174.558L337.383 174.92L337.449 177.767C337.821 193.41 335.161 212.884 335.134 213.079L334.735 215.98L355.312 220.453C352.394 236.618 347.19 249.348 344.739 254.759L340.891 252.8L350.654 225.671L347.458 224.712C346.587 224.451 338.886 222.143 336.832 221.776L334.027 221.272L333.234 224.008C328.887 239.039 320.499 256.816 320.413 256.993L319.161 259.64L337.486 270.117C329.893 284.641 321.053 295.427 317.109 299.856L314.018 296.839L331.419 273.852L328.655 271.984C327.9 271.475 321.237 266.98 319.387 266.015L316.86 264.699L315.29 267.076C306.662 280.131 293.36 294.598 293.225 294.743L291.242 296.896L305.579 312.318C293.953 323.924 282.412 331.401 277.311 334.445L275.269 330.639L298.773 313.942L296.699 311.329C296.133 310.618 291.126 304.327 289.653 302.85L287.638 300.835L285.426 302.629C273.273 312.488 256.237 322.29 256.065 322.386L253.526 323.843L262.487 342.695C247.766 349.739 234.037 353.208 228.245 354.389L227.576 350.123L255.275 342.121L254.178 338.97C253.878 338.111 251.23 330.52 250.325 328.641L249.087 326.074L246.408 327.036C231.682 332.331 212.365 335.96 212.173 335.995L209.295 336.531L211.548 357.457C195.287 359.797 180.938 358.889 175.028 358.274L175.67 354.003L204.492 354.697L204.394 351.363C204.366 350.452 204.12 342.417 203.823 340.355L203.414 337.535L200.568 337.648C184.931 338.273 165.418 335.928 165.223 335.904L162.315 335.552L156.929 362.408L163.13 363.653L167.371 342.508C173.02 343.101 185.886 344.267 197.772 344.055C197.839 345.303 197.903 346.784 197.957 348.216L170.248 347.552L167.824 363.64L170.912 364.137C171.645 364.256 189.638 366.972 212.223 363.754V363.766L218.512 363.089L216.201 341.647C221.767 340.515 234.389 337.762 245.662 333.987C246.1 335.156 246.607 336.551 247.09 337.899L220.46 345.593L222.985 361.667L226.08 361.214C226.815 361.106 244.627 358.392 265.243 348.496L265.282 348.58L270.995 345.866L261.736 326.387C266.618 323.481 277.621 316.715 287.017 309.432C287.817 310.392 288.757 311.541 289.655 312.655L267.058 328.707L274.747 343.047L277.52 341.597C278.177 341.253 293.727 333.025 309.882 316.946L309.89 316.954L314.523 312.648L299.839 296.852C303.621 292.615 312.084 282.854 318.856 273.081C319.906 273.756 321.146 274.57 322.34 275.362L305.611 297.464L317.254 308.832L319.463 306.615C319.987 306.086 332.44 293.476 343.042 273.15L342.997 273.126L346.078 267.74L327.354 257.037C329.701 251.865 334.873 240.028 338.426 228.68C339.629 229.01 341.056 229.419 342.431 229.82L333.047 255.9L347.547 263.282L348.996 260.509C349.338 259.852 357.406 244.216 361.485 221.791H361.495L362.838 215.613L341.765 211.032C342.449 205.392 343.824 192.549 343.804 180.66C345.052 180.613 346.536 180.574 347.967 180.542L346.855 208.237L362.905 210.918L363.453 207.838C363.584 207.105 366.605 189.643 363.702 166.901L363.712 166.904Z" fill="url(#paint30_linear_37_35925)"/>
<path d="M190 0C85.0647 0 0 85.0647 0 190C0 294.935 85.0647 380 190 380C294.935 380 380 294.935 380 190C380 85.0647 294.933 0 190 0ZM190 370.629C90.2414 370.629 9.369 289.759 9.369 189.998C9.369 90.2389 90.2389 9.36657 190 9.36657C289.759 9.36657 370.631 90.2365 370.631 189.998C370.631 289.756 289.761 370.629 190 370.629Z" fill="url(#paint31_linear_37_35925)"/>
<defs>
<linearGradient id="paint0_linear_37_35925" x1="228.366" y1="-36.6818" x2="24.145" y2="70.9328" gradientUnits="userSpaceOnUse">
<stop stop-color="#EFD977"/>
<stop offset="1" stop-color="#BB7730"/>
</linearGradient>
<linearGradient id="paint1_linear_37_35925" x1="226.228" y1="-24.0194" x2="33.4106" y2="77.5863" gradientUnits="userSpaceOnUse">
<stop stop-color="#EFD977"/>
<stop offset="1" stop-color="#BB7730"/>
</linearGradient>
<linearGradient id="paint2_linear_37_35925" x1="220.124" y1="162.93" x2="183.911" y2="241.106" gradientUnits="userSpaceOnUse">
<stop stop-color="#EFD977"/>
<stop offset="1" stop-color="#BB7730"/>
</linearGradient>
<linearGradient id="paint3_linear_37_35925" x1="197.707" y1="145.399" x2="182.905" y2="157.614" gradientUnits="userSpaceOnUse">
<stop stop-color="#EFD977"/>
<stop offset="1" stop-color="#BB7730"/>
</linearGradient>
<linearGradient id="paint4_linear_37_35925" x1="212.012" y1="108.704" x2="186.221" y2="150.372" gradientUnits="userSpaceOnUse">
<stop stop-color="#EED675"/>
<stop offset="0.9799" stop-color="#BB7730"/>
</linearGradient>
<linearGradient id="paint5_linear_37_35925" x1="166.459" y1="109.047" x2="152.034" y2="122.054" gradientUnits="userSpaceOnUse">
<stop stop-color="#EED675"/>
<stop offset="0.9799" stop-color="#BB7730"/>
</linearGradient>
<linearGradient id="paint6_linear_37_35925" x1="228.746" y1="118.381" x2="224.412" y2="137.653" gradientUnits="userSpaceOnUse">
<stop stop-color="#EED675"/>
<stop offset="0.9799" stop-color="#BB7730"/>
</linearGradient>
<linearGradient id="paint7_linear_37_35925" x1="165.034" y1="111.375" x2="154.592" y2="119.751" gradientUnits="userSpaceOnUse">
<stop stop-color="#EED675"/>
<stop offset="0.9799" stop-color="#BB7730"/>
</linearGradient>
<linearGradient id="paint8_linear_37_35925" x1="223.861" y1="117.089" x2="223.345" y2="130.21" gradientUnits="userSpaceOnUse">
<stop stop-color="#EED675"/>
<stop offset="1" stop-color="#BB7730"/>
</linearGradient>
<linearGradient id="paint9_linear_37_35925" x1="163.512" y1="112.91" x2="157.603" y2="116.847" gradientUnits="userSpaceOnUse">
<stop stop-color="#EED675"/>
<stop offset="0.9799" stop-color="#BB7730"/>
</linearGradient>
<linearGradient id="paint10_linear_37_35925" x1="221.274" y1="117.664" x2="222.258" y2="123.852" gradientUnits="userSpaceOnUse">
<stop stop-color="#EED675"/>
<stop offset="0.9799" stop-color="#BB7730"/>
</linearGradient>
<linearGradient id="paint11_linear_37_35925" x1="193.114" y1="112.245" x2="179.451" y2="119.001" gradientUnits="userSpaceOnUse">
<stop stop-color="#EED675"/>
<stop offset="0.9799" stop-color="#BB7730"/>
</linearGradient>
<linearGradient id="paint12_linear_37_35925" x1="194.569" y1="111.054" x2="176.156" y2="120.967" gradientUnits="userSpaceOnUse">
<stop stop-color="#EED675"/>
<stop offset="0.9799" stop-color="#BB7730"/>
</linearGradient>
<linearGradient id="paint13_linear_37_35925" x1="191.659" y1="113.983" x2="183.326" y2="117.987" gradientUnits="userSpaceOnUse">
<stop stop-color="#EED675"/>
<stop offset="0.9799" stop-color="#BB7730"/>
</linearGradient>
<linearGradient id="paint14_linear_37_35925" x1="190.348" y1="113.316" x2="185.198" y2="115.33" gradientUnits="userSpaceOnUse">
<stop stop-color="#EED675"/>
<stop offset="0.9799" stop-color="#BB7730"/>
</linearGradient>
<linearGradient id="paint15_linear_37_35925" x1="175.187" y1="104.119" x2="169.417" y2="116.637" gradientUnits="userSpaceOnUse">
<stop stop-color="#EED675"/>
<stop offset="0.9799" stop-color="#BB7730"/>
</linearGradient>
<linearGradient id="paint16_linear_37_35925" x1="173.093" y1="104.453" x2="168.924" y2="113.426" gradientUnits="userSpaceOnUse">
<stop stop-color="#EED675"/>
<stop offset="0.9799" stop-color="#BB7730"/>
</linearGradient>
<linearGradient id="paint17_linear_37_35925" x1="171.589" y1="104.948" x2="169.372" y2="110.46" gradientUnits="userSpaceOnUse">
<stop stop-color="#EED675"/>
<stop offset="0.9799" stop-color="#BB7730"/>
</linearGradient>
<linearGradient id="paint18_linear_37_35925" x1="-nan" y1="-nan" x2="-nan" y2="-nan" gradientUnits="userSpaceOnUse">
<stop stop-color="#BB7730"/>
<stop offset="1" stop-color="#EED876"/>
</linearGradient>
<linearGradient id="paint19_linear_37_35925" x1="-nan" y1="-nan" x2="-nan" y2="-nan" gradientUnits="userSpaceOnUse">
<stop stop-color="#BB7730"/>
<stop offset="1" stop-color="#EED876"/>
</linearGradient>
<linearGradient id="paint20_linear_37_35925" x1="-nan" y1="-nan" x2="-nan" y2="-nan" gradientUnits="userSpaceOnUse">
<stop stop-color="#BB7730"/>
<stop offset="1" stop-color="#EED876"/>
</linearGradient>
<linearGradient id="paint21_linear_37_35925" x1="-nan" y1="-nan" x2="-nan" y2="-nan" gradientUnits="userSpaceOnUse">
<stop stop-color="#EED876"/>
<stop offset="1" stop-color="#BB7730"/>
</linearGradient>
<linearGradient id="paint22_linear_37_35925" x1="-nan" y1="-nan" x2="-nan" y2="-nan" gradientUnits="userSpaceOnUse">
<stop stop-color="#EED876"/>
<stop offset="1" stop-color="#BB7730"/>
</linearGradient>
<linearGradient id="paint23_linear_37_35925" x1="-nan" y1="-nan" x2="-nan" y2="-nan" gradientUnits="userSpaceOnUse">
<stop stop-color="#BB7730"/>
<stop offset="1" stop-color="#EED876"/>
</linearGradient>
<linearGradient id="paint24_linear_37_35925" x1="197.682" y1="106.535" x2="221.537" y2="71.184" gradientUnits="userSpaceOnUse">
<stop stop-color="#BB7730"/>
<stop offset="1" stop-color="#EED876"/>
</linearGradient>
<linearGradient id="paint25_linear_37_35925" x1="203.425" y1="106.544" x2="228.142" y2="74.9285" gradientUnits="userSpaceOnUse">
<stop stop-color="#BB7730"/>
<stop offset="1" stop-color="#EED876"/>
</linearGradient>
<linearGradient id="paint26_linear_37_35925" x1="-nan" y1="-nan" x2="-nan" y2="-nan" gradientUnits="userSpaceOnUse">
<stop stop-color="#BB7730"/>
<stop offset="1" stop-color="#EED876"/>
</linearGradient>
<linearGradient id="paint27_linear_37_35925" x1="-nan" y1="-nan" x2="-nan" y2="-nan" gradientUnits="userSpaceOnUse">
<stop stop-color="#BB7730"/>
<stop offset="1" stop-color="#EED876"/>
</linearGradient>
<linearGradient id="paint28_linear_37_35925" x1="202.49" y1="239.384" x2="189.105" y2="271.919" gradientUnits="userSpaceOnUse">
<stop stop-color="#EFD977"/>
<stop offset="1" stop-color="#BB7730"/>
</linearGradient>
<linearGradient id="paint29_linear_37_35925" x1="208.845" y1="274.756" x2="204.256" y2="299.205" gradientUnits="userSpaceOnUse">
<stop stop-color="#EFD977"/>
<stop offset="1" stop-color="#BB7730"/>
</linearGradient>
<linearGradient id="paint30_linear_37_35925" x1="237.082" y1="-92.396" x2="-16.1846" y2="40.5815" gradientUnits="userSpaceOnUse">
<stop stop-color="#EFD977"/>
<stop offset="1" stop-color="#BB7730"/>
</linearGradient>
<linearGradient id="paint31_linear_37_35925" x1="241.376" y1="-114.394" x2="-32.7464" y2="30.0555" gradientUnits="userSpaceOnUse">
<stop stop-color="#EFD977"/>
<stop offset="1" stop-color="#BB7730"/>
</linearGradient>
</defs>
</svg>
