<svg width="310" height="75" viewBox="0 0 310 75" fill="none" xmlns="http://www.w3.org/2000/svg">
<path d="M179.923 -18.43C179.785 -18.5816 179.599 -18.6575 179.41 -18.6575C179.244 -18.6575 179.075 -18.5989 178.944 -18.4782C178.662 -18.2232 178.641 -17.7821 178.896 -17.4995C196.331 1.72415 217.998 12.3113 239.9 12.3113C261.801 12.3113 282.165 2.83386 296.244 -13.6913C296.492 -13.9842 296.457 -14.4219 296.164 -14.6701C295.875 -14.9182 295.437 -14.8837 295.186 -14.5908C281.373 1.6242 261.222 10.9259 239.9 10.9259C218.577 10.9259 197.089 0.5007 179.92 -18.43L179.923 -18.43Z" fill="white"/>
<path d="M0.1661 -2.38394C14.427 14.3273 42.3389 30.5148 73.2697 30.0116C95.1126 63.217 130.858 75 154.838 75C189.725 75 214.821 61.1526 233.807 31.4211C234.014 31.1006 233.917 30.6698 233.597 30.463C233.273 30.2597 232.845 30.3528 232.639 30.6733C213.932 59.9706 189.208 73.6146 154.838 73.6146C131.375 73.6146 96.4911 62.1555 74.9102 29.9599C75.3375 29.9461 75.7614 29.9392 76.1888 29.9185C82.3026 29.6118 88.2751 28.64 94.0856 27.034C94.0959 27.158 94.1269 27.2821 94.2062 27.3889C109.039 47.6844 128.873 57.5512 154.838 57.5512C178.51 57.5512 196.848 48.0049 214.235 26.6411C220.47 28.4814 226.897 29.5877 233.486 29.9185C265.61 31.5176 294.803 14.8512 309.509 -2.38396C309.757 -2.6769 309.723 -3.11459 309.433 -3.36272C309.144 -3.61086 308.706 -3.57639 308.454 -3.2869C293.969 13.6932 265.217 30.1081 233.555 28.5297C226.997 28.2023 220.604 27.0891 214.401 25.235C214.287 25.1591 214.156 25.1143 214.025 25.1143C214.021 25.1143 214.015 25.1143 214.011 25.1143C198.399 20.3653 184.031 10.8431 171.456 -3.10424C171.414 -3.20418 171.359 -3.29723 171.27 -3.3696C171.239 -3.39717 171.201 -3.40751 171.163 -3.4282C167.775 -7.21227 164.515 -11.3203 161.399 -15.7454C173.834 -16.638 185.834 -20.0395 196.735 -25.6674C196.666 -25.4468 196.693 -25.1987 196.855 -25.0091C207.594 -12.3645 223.282 -5.11346 239.9 -5.11346C256.518 -5.11346 272.206 -12.3645 282.945 -25.0091C283.193 -25.3021 283.158 -25.7398 282.865 -25.9844C282.572 -26.2326 282.135 -26.1981 281.89 -25.9052C271.413 -13.5708 256.111 -6.49888 239.903 -6.49888C223.695 -6.49888 208.39 -13.5742 197.917 -25.9052C197.834 -26.0017 197.727 -26.0603 197.613 -26.1016C202.421 -28.6485 206.994 -31.6537 211.302 -35.0414C218.622 -27.1114 229.006 -22.5657 239.903 -22.5657C251.418 -22.5657 262.27 -27.5767 269.683 -36.3166C269.931 -36.6095 269.893 -37.0472 269.604 -37.2919C269.473 -37.4021 269.314 -37.4573 269.156 -37.4573C268.959 -37.4573 268.763 -37.3746 268.629 -37.2126C261.481 -28.7829 251.011 -23.9511 239.907 -23.9511C229.43 -23.9511 219.449 -28.3073 212.391 -35.9099C216.52 -39.2563 220.387 -42.9714 223.93 -47.0553C228.02 -42.5648 233.786 -39.9835 239.903 -39.9835C246.021 -39.9835 252.31 -42.7715 256.418 -47.6274C256.666 -47.9204 256.628 -48.358 256.335 -48.6027C256.043 -48.8509 255.605 -48.813 255.36 -48.52C251.514 -43.9743 245.879 -41.3654 239.903 -41.3654C233.927 -41.3654 228.293 -43.9743 224.447 -48.52C224.436 -48.5338 224.419 -48.5372 224.405 -48.551C224.391 -48.5648 224.385 -48.5855 224.367 -48.5993C224.336 -48.6234 224.302 -48.6337 224.267 -48.6544C224.233 -48.6751 224.202 -48.6958 224.164 -48.713C224.109 -48.7337 224.054 -48.744 223.995 -48.7509C223.968 -48.7509 223.943 -48.7682 223.916 -48.7682C223.906 -48.7682 223.899 -48.7647 223.888 -48.7647C223.857 -48.7647 223.826 -48.7544 223.792 -48.7475C223.74 -48.7371 223.692 -48.7268 223.644 -48.7061C223.609 -48.6923 223.582 -48.6717 223.551 -48.651C223.523 -48.6338 223.495 -48.6234 223.468 -48.6027C223.454 -48.5889 223.447 -48.5717 223.433 -48.5579C223.42 -48.5441 223.402 -48.5373 223.389 -48.5235C206.219 -28.4038 181.233 -16.862 154.838 -16.862C128.442 -16.862 103.456 -28.4003 86.2865 -48.5235C86.2762 -48.5372 86.2555 -48.5407 86.2452 -48.5545C86.2314 -48.5683 86.2245 -48.5889 86.2073 -48.6027C86.1797 -48.6268 86.1418 -48.6372 86.1108 -48.6544C86.0763 -48.6751 86.0453 -48.6992 86.0074 -48.713C85.9522 -48.7337 85.8971 -48.744 85.8385 -48.7475C85.8109 -48.7475 85.7868 -48.7647 85.7593 -48.7647C85.7489 -48.7647 85.7386 -48.7612 85.7317 -48.7612C85.6972 -48.7612 85.6628 -48.7509 85.6283 -48.744C85.58 -48.7337 85.5318 -48.7233 85.487 -48.7027C85.4525 -48.6889 85.4249 -48.6682 85.3939 -48.6475C85.3664 -48.6303 85.3388 -48.62 85.3112 -48.5993C85.2974 -48.5855 85.2905 -48.5683 85.2768 -48.5545C85.263 -48.5407 85.2457 -48.5338 85.232 -48.52C81.3858 -43.9743 75.7511 -41.3654 69.7752 -41.3654C63.7992 -41.3654 58.1644 -43.9743 54.3183 -48.52C54.1805 -48.682 53.9841 -48.7647 53.7876 -48.7647C53.6291 -48.7647 53.4705 -48.7096 53.3396 -48.5993C53.0467 -48.3511 53.0122 -47.9134 53.2569 -47.624C57.3683 -42.7646 63.3891 -39.98 69.7717 -39.98C76.1543 -39.98 81.6581 -42.5613 85.7455 -47.0519C89.2883 -42.968 93.1551 -39.2563 97.2872 -35.9064C90.2326 -28.3038 80.252 -23.9476 69.7717 -23.9476C58.6676 -23.9476 48.2011 -28.7829 41.0465 -37.2126C40.9087 -37.3746 40.7157 -37.4573 40.5192 -37.4573C40.3607 -37.4573 40.2022 -37.4021 40.0712 -37.2918C39.7783 -37.0437 39.7438 -36.606 39.9919 -36.3131C47.4084 -27.5732 58.2644 -22.5622 69.7717 -22.5622C80.669 -22.5622 91.0494 -27.1079 98.3728 -35.038C102.681 -31.6502 107.254 -28.645 112.062 -26.0982C111.948 -26.0603 111.841 -26.0017 111.758 -25.9017C101.282 -13.5673 85.9798 -6.49542 69.7717 -6.49542C53.5636 -6.49542 38.2619 -13.5707 27.785 -25.9017C27.5403 -26.1912 27.1027 -26.2291 26.8097 -25.981C26.5168 -25.7328 26.4823 -25.2952 26.7305 -25.0057C37.4692 -12.3611 53.1604 -5.10999 69.7752 -5.10999C86.3899 -5.11 102.081 -12.3611 112.82 -25.0057C112.982 -25.1952 113.009 -25.4434 112.94 -25.6639C123.841 -20.0395 135.838 -16.6345 148.272 -15.7419C145.157 -11.3203 141.903 -7.21571 138.516 -3.43163C138.478 -3.41096 138.44 -3.39717 138.405 -3.36615C138.319 -3.29378 138.261 -3.20073 138.219 -3.10078C120.55 16.4985 99.3412 27.3648 76.1233 28.5297C44.4998 30.1115 15.7091 13.6932 1.2207 -3.28688C0.972558 -3.57637 0.534875 -3.61084 0.241937 -3.3627C-0.0475532 -3.11456 -0.082038 -2.67688 0.1661 -2.38394ZM154.838 56.1624C129.383 56.1624 109.935 46.5092 95.3917 26.6514C100.978 25.0041 106.406 22.7708 111.655 19.9414C111.679 20.0448 111.72 20.1447 111.793 20.2309C122.532 32.8755 138.223 40.13 154.838 40.13C171.452 40.13 187.143 32.8789 197.882 20.2309C197.955 20.1447 197.996 20.0448 198.02 19.9414C202.8 22.5158 207.728 24.6077 212.791 26.2034C195.801 46.8952 177.887 56.1589 154.838 56.1589L154.838 56.1624ZM126.236 10.2021C133.56 18.1321 143.94 22.6743 154.838 22.6743C165.735 22.6743 176.115 18.1321 183.435 10.2021C187.757 13.6863 192.241 16.7191 196.866 19.3004C196.852 19.3142 196.835 19.3211 196.821 19.3348C186.344 31.6693 171.042 38.7446 154.834 38.7446C138.626 38.7446 123.324 31.6693 112.847 19.3348C112.834 19.3211 112.816 19.3142 112.803 19.3004C117.428 16.7191 121.911 13.6829 126.236 10.2021ZM154.838 -15.4766C156.495 -15.4766 158.149 -15.5214 159.797 -15.611C163.002 -11.0067 166.355 -6.74356 169.85 -2.8113C166.021 1.43114 160.596 3.87114 154.838 3.87115C149.079 3.87115 143.654 1.43114 139.825 -2.81129C143.32 -6.74356 146.677 -11.0067 149.878 -15.611C151.526 -15.5214 153.18 -15.4766 154.838 -15.4766ZM138.895 -1.78084C142.982 2.68906 148.734 5.25658 154.838 5.25657C160.941 5.25657 166.689 2.68905 170.78 -1.78084C174.492 2.29962 178.355 6.00787 182.36 9.32324C175.305 16.9293 165.321 21.2889 154.838 21.2889C144.354 21.2889 134.373 16.9327 127.315 9.32324C131.32 6.00787 135.183 2.29962 138.895 -1.78084Z" fill="white"/>
<path d="M69.7716 12.3113C91.6765 12.3113 113.34 1.72415 130.775 -17.4995C131.034 -17.7821 131.013 -18.2232 130.727 -18.4783C130.596 -18.5989 130.427 -18.6575 130.262 -18.6575C130.072 -18.6575 129.886 -18.5817 129.748 -18.43C112.579 0.500693 91.2767 10.9259 69.7682 10.9259C48.2596 10.9259 28.2916 1.62766 14.4821 -14.5908C14.234 -14.8837 13.7963 -14.9182 13.5033 -14.6701C13.2138 -14.4219 13.1759 -13.9842 13.4241 -13.6913C27.4989 2.83387 48.0356 12.3113 69.7647 12.3113L69.7716 12.3113Z" fill="white"/>
</svg>
