<svg width="161" height="161" viewBox="0 0 161 161" fill="none" xmlns="http://www.w3.org/2000/svg">
<path d="M159.792 80.5C159.792 36.708 124.292 1.20752 80.4995 1.20752C36.7075 1.20752 1.20703 36.708 1.20703 80.5C1.20703 124.292 36.7075 159.793 80.4995 159.793C124.292 159.793 159.792 124.292 159.792 80.5Z" fill="#091C46"/>
<path d="M159.792 80.5C159.792 36.708 124.292 1.20752 80.4995 1.20752C36.7075 1.20752 1.20703 36.708 1.20703 80.5C1.20703 124.292 36.7075 159.793 80.4995 159.793C124.292 159.793 159.792 124.292 159.792 80.5Z" stroke="url(#paint0_linear_47_17)" stroke-width="2.415"/>
<path d="M155.937 80.5C155.937 39.1532 122.419 5.63501 81.072 5.63501C39.7252 5.63501 6.20703 39.1532 6.20703 80.5C6.20703 121.847 39.7252 155.365 81.072 155.365C122.419 155.365 155.937 121.847 155.937 80.5Z" stroke="url(#paint1_linear_47_17)" stroke-width="1.61"/>
<path d="M31.1128 103.265L30.34 104.811H18.5934V103.613L22.2256 100.754V77.3379L18.207 75.9855L18.9798 74.4399H30.7264V75.6378L27.0556 78.4971V101.874L31.1128 103.265ZM48.2303 104.811H41.2365L29.2581 89.5868L41.1206 79.2313L36.6383 75.9855L37.4111 74.4399H47.8053V75.6378L33.8949 87.7707L44.5209 101.063L49.0031 103.265L48.2303 104.811ZM83.6767 104.811H71.9302V103.613L75.5623 100.754V90.5528H60.2995V101.874L64.3567 103.265L63.5839 104.811H51.8374V103.613L55.4695 100.754V77.3379L51.451 75.9855L52.2238 74.4399H63.9703V75.6378L60.2995 78.4971V88.814H75.5623V77.3379L71.5438 75.9855L72.3166 74.4399H84.0631V75.6378L80.3923 78.4971V101.874L84.4495 103.265L83.6767 104.811ZM100.45 104.811H88.7039V103.613L92.3361 100.754V77.3379L88.3175 75.9855L89.0903 74.4399H100.837V75.6378L97.1661 78.4971V101.874L101.223 103.265L100.45 104.811ZM142.011 104.85H130.265V103.652L133.897 100.792V79.4245L123.58 104.85H121.455L111.215 79.154V101.256L115.272 103.304L114.5 104.85H105.458V103.652L109.09 100.792V78.1494L105.072 75.9855L105.844 74.4399H114.229L123.889 98.7059L133.511 74.4399H142.398V75.6378L138.727 78.4971V101.874L142.784 103.304L142.011 104.85Z" fill="url(#paint2_linear_47_17)"/>
<path d="M90.654 60.9218H70.207V56.7293C73.097 57.7494 76.5889 58.3458 80.35 58.3458C84.1812 58.3458 87.7333 57.727 90.654 56.672V60.9218Z" fill="url(#paint3_linear_47_17)"/>
<path d="M53.207 37.4325C53.207 42.6206 56.133 47.5961 61.3414 51.2645C66.5497 54.933 73.6138 56.994 80.9795 56.994C88.3453 56.994 95.4093 54.933 100.618 51.2645C105.826 47.5961 108.752 42.6206 108.752 37.4325H105.661C105.661 42.0432 103.061 46.4649 98.4321 49.7252C93.8035 52.9854 87.5255 54.8171 80.9795 54.817C74.4336 54.817 68.1556 52.9854 63.527 49.7252C58.8982 46.4649 56.2977 42.0432 56.2977 37.4325H53.207Z" fill="url(#paint4_linear_47_17)"/>
<path d="M74.207 37.6901C74.7871 41.0709 76.0238 44.2909 77.6558 46.6707C79.288 49.0504 81.1882 50.4039 82.9555 50.4458C84.7227 50.4876 86.2191 49.2145 87.1287 46.8949C88.0385 44.5752 88.2905 41.3905 87.8315 38.0126L87.1381 37.9512C87.5507 40.9888 87.3242 43.8525 86.5061 45.9384C85.6881 48.0242 84.3426 49.1691 82.7534 49.1315C81.1642 49.0939 79.4555 47.8767 77.9878 45.7369C76.5201 43.5968 75.4083 40.7014 74.8866 37.6613L74.207 37.6901Z" fill="url(#paint5_linear_47_17)"/>
<path d="M88.0555 38.656C87.7617 40.3684 87.2964 42.0565 86.6861 43.6242C86.0757 45.1918 85.3322 46.6083 84.4984 47.7924C83.6644 48.9768 82.7562 49.9057 81.8256 50.5264C80.895 51.147 79.9603 51.4472 79.0746 51.4096C78.1891 51.3721 77.3701 50.9976 76.6643 50.3078C75.9586 49.6177 75.38 48.6258 74.9616 47.3883C74.5431 46.1511 74.2931 44.6926 74.2256 43.0962C74.1582 41.4998 74.2747 39.7969 74.5686 38.0845L75.2481 38.1133C74.9839 39.6531 74.8791 41.1845 74.9398 42.62C75.0004 44.0555 75.2253 45.367 75.6015 46.4797C75.9778 47.5922 76.4981 48.4843 77.1326 49.1046C77.7673 49.7251 78.5037 50.0617 79.3002 50.0956C80.0965 50.1292 80.9371 49.8594 81.7738 49.3013C82.6107 48.7433 83.4273 47.9079 84.1772 46.843C84.9271 45.778 85.5956 44.5043 86.1445 43.0948C86.6933 41.6851 87.1117 40.167 87.3759 38.6272L88.0555 38.656Z" fill="url(#paint6_linear_47_17)"/>
<path d="M76.207 38.1894C76.6672 40.7824 77.5655 43.2658 78.7127 45.1161C79.8598 46.9664 81.166 48.0389 82.3559 48.1074C83.5457 48.1758 84.5261 47.2347 85.0902 45.4827C85.6543 43.7309 85.758 41.305 85.3795 38.7169L84.4615 38.5969C84.7651 40.6732 84.6819 42.6194 84.2295 44.0247C83.7769 45.4303 82.9904 46.185 82.0359 46.1301C81.0813 46.0754 80.0335 45.215 79.1132 43.7306C78.193 42.2462 77.4723 40.2539 77.1032 38.1738L76.207 38.1894Z" fill="url(#paint7_linear_47_17)"/>
<path d="M85.6037 38.3505C85.3706 39.6638 85.0227 40.9621 84.5798 42.1714C84.1369 43.3807 83.6075 44.4772 83.022 45.3985C82.4366 46.3197 81.8064 47.0476 81.1674 47.5406C80.5285 48.0336 79.8936 48.282 79.2985 48.2715C78.7036 48.2612 78.1602 47.9923 77.6998 47.4802C77.2392 46.9681 76.8705 46.2228 76.6145 45.2869C76.3585 44.351 76.2203 43.2427 76.2079 42.0255C76.1956 40.8084 76.309 39.5059 76.542 38.1927L77.4381 38.2084C77.2512 39.2618 77.1601 40.3067 77.1701 41.2831C77.1801 42.2596 77.291 43.1486 77.4963 43.8994C77.7015 44.6501 77.9975 45.2481 78.3668 45.659C78.7363 46.0698 79.1721 46.2856 79.6495 46.2938C80.1268 46.3022 80.6363 46.1028 81.1487 45.7074C81.6613 45.312 82.1669 44.7281 82.6365 43.9889C83.1061 43.2499 83.5309 42.3702 83.8862 41.4002C84.2415 40.43 84.5207 39.3885 84.7076 38.3349L85.6037 38.3505Z" fill="url(#paint8_linear_47_17)"/>
<path d="M78.207 38.2329C78.5184 39.9088 79.0529 41.5271 79.6977 42.7464C80.3427 43.9658 81.0474 44.6908 81.6635 44.7685C82.2797 44.8463 82.7588 44.2709 83.0002 43.1634C83.2413 42.056 83.2259 40.5032 82.9567 38.8326L82.4793 38.7296C82.6952 40.0698 82.7078 41.3154 82.5143 42.2038C82.3207 43.0922 81.9363 43.554 81.442 43.4915C80.9477 43.429 80.3823 42.8475 79.865 41.8693C79.3477 40.8912 78.919 39.5929 78.6691 38.2485L78.207 38.2329Z" fill="url(#paint9_linear_47_17)"/>
<path d="M83.1705 38.2451C83.0127 39.0939 82.7961 39.9366 82.533 40.7247C82.27 41.5128 81.9654 42.2312 81.6369 42.8386C81.3085 43.4461 80.9625 43.9308 80.6186 44.2652C80.2749 44.5996 79.94 44.777 79.6331 44.7874C79.3263 44.7977 79.0535 44.6407 78.8304 44.3253C78.6074 44.01 78.4382 43.5425 78.3327 42.9497C78.2273 42.3567 78.1877 41.6499 78.2158 40.8697C78.2442 40.0895 78.34 39.251 78.4976 38.4023L78.9597 38.3866C78.8331 39.0677 78.7563 39.7403 78.7336 40.3661C78.7111 40.9921 78.7428 41.5591 78.8275 42.0347C78.912 42.5103 79.0477 42.8855 79.2268 43.1384C79.4056 43.3913 79.6244 43.5172 79.8706 43.509C80.1168 43.5006 80.3855 43.3583 80.6613 43.0901C80.9371 42.8219 81.2146 42.4331 81.4782 41.9457C81.7417 41.4584 81.986 40.8821 82.197 40.2499C82.4081 39.6175 82.5818 38.9416 82.7084 38.2607L83.1705 38.2451Z" fill="url(#paint10_linear_47_17)"/>
<path d="M75.207 38.3984C75.207 41.4941 75.7414 44.4631 76.6924 46.6521C77.6436 48.8412 78.9335 50.0709 80.2785 50.0709C81.6235 50.0709 82.9135 48.8412 83.8646 46.6521C84.8157 44.4631 85.35 41.4941 85.35 38.3984H84.5201C84.5201 40.9875 84.0731 43.4706 83.2776 45.3013C82.4823 47.132 81.4034 48.1607 80.2785 48.1607C79.1536 48.1607 78.0748 47.132 77.2794 45.3013C76.4839 43.4706 76.037 40.9875 76.037 38.3984H75.207Z" fill="url(#paint11_linear_47_17)"/>
<path d="M73.207 38.157C73.207 42.128 73.9534 45.9365 75.2818 48.7445C76.6104 51.5525 78.4122 53.13 80.291 53.13C82.1699 53.13 83.9716 51.5525 85.3002 48.7445C86.6286 45.9365 87.375 42.128 87.375 38.157H86.5037C86.5037 41.6396 85.8492 44.9797 84.6841 47.4423C83.5189 49.9048 81.9387 51.2885 80.291 51.2885C78.6434 51.2885 77.0631 49.9048 75.898 47.4423C74.7328 44.9797 74.0784 41.6396 74.0784 38.157H73.207Z" fill="url(#paint12_linear_47_17)"/>
<path d="M77.22 38.1343C77.1814 39.1228 77.2291 40.1194 77.3598 41.0625C77.4907 42.0055 77.7019 42.8749 77.9806 43.6165C78.2591 44.3582 78.599 44.9563 78.9793 45.374C79.3596 45.7914 79.7721 46.0194 80.191 46.0437C80.6101 46.0682 81.0266 45.8884 81.4151 45.5155C81.8036 45.1424 82.1555 44.5846 82.449 43.8762C82.7427 43.1678 82.9716 42.324 83.1218 41.3973C83.272 40.4706 83.3403 39.4806 83.3221 38.4888L82.6986 38.5524C82.713 39.3419 82.6588 40.1299 82.5392 40.8676C82.4195 41.6051 82.2373 42.2768 82.0037 42.8406C81.7699 43.4045 81.4898 43.8487 81.1806 44.1454C80.8715 44.4423 80.5399 44.5854 80.2063 44.5661C79.8728 44.5466 79.5446 44.3651 79.2419 44.0328C78.9392 43.7005 78.6686 43.2243 78.4469 42.6341C78.2252 42.0437 78.0569 41.3517 77.9528 40.6011C77.8486 39.8504 77.8108 39.0571 77.8415 38.2703L77.22 38.1343Z" fill="url(#paint13_linear_47_17)"/>
<path d="M79.207 38.157C79.207 39.5234 79.3936 40.8338 79.7258 41.7999C80.0579 42.7663 80.5084 43.309 80.978 43.309C81.4477 43.309 81.8981 42.7663 82.2303 41.7999C82.5624 40.8338 82.749 39.5234 82.749 38.157H82.3877C82.3877 39.2445 82.2391 40.2877 81.9748 41.0568C81.7104 41.8257 81.3519 42.2578 80.978 42.2578C80.6042 42.2578 80.2456 41.8257 79.9813 41.0568C79.7169 40.2877 79.5683 39.2445 79.5683 38.157H79.207Z" fill="url(#paint14_linear_47_17)"/>
<path d="M90.836 33.2712C90.9072 32.5486 90.6875 31.8262 90.1912 31.1511C89.695 30.4762 88.9331 29.8635 87.9555 29.3531C86.9779 28.8427 85.8063 28.4462 84.5171 28.1892C83.2279 27.9321 81.8499 27.8204 80.4729 27.8613C79.0959 27.9022 77.7507 28.0947 76.525 28.4265C75.2993 28.7582 74.2206 29.2217 73.3591 29.7867C72.4974 30.3516 71.8724 31.0054 71.5245 31.7056C71.1768 32.4056 71.1138 33.1364 71.34 33.8501L72.4107 33.7568C72.2096 33.1219 72.2654 32.472 72.5749 31.8492C72.8843 31.2265 73.4403 30.645 74.2066 30.1423C74.973 29.6398 75.9325 29.2275 77.0227 28.9326C78.113 28.6374 79.3094 28.4661 80.5342 28.4298C81.7591 28.3934 82.9848 28.4927 84.1315 28.7213C85.2783 28.9499 86.3204 29.3029 87.19 29.7567C88.0595 30.2107 88.737 30.7556 89.1785 31.3561C89.62 31.9565 89.8154 32.599 89.752 33.2417L90.836 33.2712Z" fill="url(#paint15_linear_47_17)"/>
<path d="M87.1149 33.6259C87.2879 33.0879 87.234 32.5363 86.9568 32.0106C86.6797 31.4849 86.1862 30.9981 85.5116 30.585C84.837 30.1718 83.9981 29.8427 83.0549 29.621C82.1116 29.3995 81.0875 29.2908 80.0555 29.3029C79.0236 29.315 78.0095 29.4475 77.0857 29.6909C76.1619 29.9345 75.3514 30.2829 74.7121 30.7113C74.0727 31.1399 73.6205 31.6377 73.3877 32.1695C73.1547 32.7011 73.147 33.2535 73.365 33.7869L74.7494 33.6288C74.5755 33.2033 74.5817 32.7626 74.7675 32.3384C74.9532 31.9143 75.3141 31.517 75.8241 31.1752C76.3341 30.8334 76.9807 30.5555 77.7176 30.3612C78.4545 30.1668 79.2635 30.0612 80.0869 30.0516C80.9101 30.0419 81.7272 30.1285 82.4797 30.3055C83.2322 30.4822 83.9015 30.7448 84.4395 31.0744C84.9778 31.404 85.3714 31.7923 85.5925 32.2117C85.8137 32.6311 85.8567 33.0711 85.7185 33.5003L87.1149 33.6259Z" fill="url(#paint16_linear_47_17)"/>
<path d="M85.6997 33.1978C85.7342 32.893 85.6279 32.5883 85.3879 32.3034C85.1478 32.0186 84.7795 31.7602 84.3068 31.545C83.8339 31.3296 83.2673 31.1623 82.6438 31.0539C82.0204 30.9454 81.354 30.8982 80.6881 30.9156C80.0221 30.9329 79.3716 31.014 78.7788 31.1541C78.186 31.294 77.6644 31.4894 77.2477 31.7279C76.831 31.9662 76.5288 32.2419 76.3606 32.5374C76.1924 32.8328 76.1619 33.141 76.2714 33.442L77.6948 33.3339C77.6187 33.1242 77.6398 32.9096 77.757 32.704C77.874 32.4983 78.0844 32.3063 78.3746 32.1404C78.6647 31.9744 79.0279 31.8383 79.4405 31.7409C79.8532 31.6435 80.3061 31.5868 80.7696 31.5749C81.2333 31.5628 81.6971 31.5957 82.1312 31.6712C82.5652 31.7467 82.9597 31.8631 83.2888 32.013C83.618 32.1629 83.8745 32.3429 84.0414 32.5411C84.2086 32.7394 84.2826 32.9515 84.2586 33.1637L85.6997 33.1978Z" fill="url(#paint17_linear_47_17)"/>
<path d="M57.207 38.2375H103.253" stroke="url(#paint18_linear_47_17)" stroke-width="1.127"/>
<path d="M53.207 35.8225H108.752" stroke="url(#paint19_linear_47_17)" stroke-width="1.127"/>
<path d="M73.207 120.509H88.019" stroke="url(#paint20_linear_47_17)" stroke-width="0.805"/>
<path d="M73.207 120.509H88.019" stroke="url(#paint21_linear_47_17)" stroke-width="0.805"/>
<path d="M62.207 56.2695H99.237" stroke="url(#paint22_linear_47_17)" stroke-width="0.805"/>
<path d="M62.207 56.2695H99.237" stroke="url(#paint23_linear_47_17)" stroke-width="0.805"/>
<path d="M74.207 33.4239L87.57 13.6208" stroke="url(#paint24_linear_47_17)" stroke-width="0.805"/>
<path d="M74.207 33.4011L88.053 15.6912" stroke="url(#paint25_linear_47_17)" stroke-width="0.805"/>
<path d="M53.207 33.4075H108.752" stroke="url(#paint26_linear_47_17)" stroke-width="0.805"/>
<path d="M15.207 67.0565H145.617" stroke="url(#paint27_linear_47_17)" stroke-width="0.805"/>
<path d="M65.391 123.97H60.6924V123.491L62.1452 122.363L60.9551 119.503H55.7619L54.4945 122.424L57.2148 123.352L56.9057 123.97H52.207V123.491L53.6599 122.347L58.0339 112.316L59.6414 111.528L64.1545 122.409L65.7001 123.352L65.391 123.97ZM58.4203 113.383L56.071 118.808H60.6769L58.4203 113.383ZM73.4608 121.234C73.4608 120.915 73.332 120.616 73.0744 120.338C72.8168 120.06 72.4922 119.807 72.1007 119.58C71.7194 119.343 71.1991 119.055 70.5396 118.715C69.7565 118.303 69.128 117.952 68.654 117.664C68.18 117.365 67.773 117.015 67.433 116.613C67.1032 116.211 66.9384 115.768 66.9384 115.284C66.9384 114.769 67.1548 114.217 67.5875 113.63C68.0203 113.032 68.5458 112.533 69.164 112.131C69.7926 111.719 70.3696 111.512 70.8951 111.512C71.534 111.512 72.2758 111.59 73.1208 111.744C73.9657 111.899 74.5839 112.064 74.9755 112.239V115.237H74.3882C73.8833 114.403 73.3268 113.754 72.7189 113.29C72.1213 112.826 71.4927 112.594 70.8333 112.594C70.246 112.594 69.7771 112.78 69.4268 113.151C69.0868 113.511 68.9167 113.985 68.9167 114.573C68.9167 114.913 69.0455 115.232 69.3031 115.531C69.571 115.82 69.8956 116.077 70.2769 116.304C70.6684 116.53 71.2094 116.824 71.8997 117.185C72.6622 117.566 73.2805 117.906 73.7545 118.205C74.2284 118.493 74.6252 118.833 74.9446 119.225C75.2743 119.606 75.4392 120.039 75.4392 120.523C75.4392 121.038 75.2073 121.595 74.7437 122.193C74.28 122.78 73.7133 123.28 73.0435 123.692C72.384 124.094 71.7812 124.295 71.2351 124.295C70.5654 124.295 69.7668 124.217 68.8395 124.063C67.9224 123.908 67.2629 123.743 66.8611 123.568V120.57H67.4484C67.9739 121.404 68.5716 122.053 69.2413 122.517C69.9111 122.981 70.6014 123.213 71.3124 123.213C71.7349 123.213 72.111 123.12 72.4407 122.934C72.7704 122.749 73.0229 122.507 73.198 122.208C73.3732 121.899 73.4608 121.574 73.4608 121.234ZM82.1501 123.97H77.4515V123.491L78.9044 122.347V112.981L77.2969 112.44L77.6061 111.822H82.3047V112.301L80.8364 113.444V122.795L82.4593 123.352L82.1501 123.97ZM96.3634 123.97H91.6648V123.491L93.1176 122.363L91.9275 119.503H86.7343L85.4669 122.424L88.1871 123.352L87.878 123.97H83.1794V123.491L84.6323 122.347L89.0063 112.316L90.6137 111.528L95.1269 122.409L96.6725 123.352L96.3634 123.97ZM89.3927 113.383L87.0434 118.808H91.6493L89.3927 113.383ZM108.096 113.46V123.985H107.246L99.9046 114.696V122.548L101.527 123.367L101.218 123.985H97.6016V123.506L99.0545 122.363V113.305L97.4471 112.44L97.7562 111.822H100.09L107.246 120.879V113.244L105.639 112.44L105.948 111.822H109.565V112.316L108.096 113.46Z" fill="url(#paint28_linear_47_17)"/>
<path d="M46.8217 138.481H44.9051L42.6383 134.823L42.154 134.472L42.3085 134.163H42.8856C43.3526 134.163 43.7202 134.046 43.9881 133.813C44.2629 133.573 44.4002 133.246 44.4002 132.834C44.4002 132.291 44.2491 131.841 43.9469 131.484C43.6447 131.12 43.205 130.938 42.628 130.938C42.2433 130.938 41.8895 131.051 41.5666 131.278V137.697L42.6486 138.068L42.4425 138.481H39.3101V138.161L40.2786 137.399V131.134L39.207 130.784L39.4131 130.371H40.6084C41.2335 130.371 41.8482 130.351 42.4528 130.31C42.8925 130.282 43.2187 130.268 43.4317 130.268C43.892 130.268 44.3006 130.361 44.6578 130.547C45.0219 130.732 45.3001 130.983 45.4925 131.299C45.6916 131.615 45.7913 131.962 45.7913 132.339C45.7913 132.683 45.6849 133.013 45.4719 133.329C45.2589 133.638 44.9773 133.909 44.6269 134.143C44.2835 134.369 43.9193 134.541 43.5347 134.658L44.2045 134.885L45.8016 137.461L47.0278 138.068L46.8217 138.481ZM53.8139 138.46H47.6315V138.141L48.6001 137.378V131.134L47.5285 130.773L47.7346 130.361H53.7109L54.2673 130.176V132.545L53.9582 132.649L52.732 130.825H49.8881V134.091H51.5058L52.258 132.772H52.5774V135.905L52.1653 136.111L51.5161 134.555H49.8881V137.996H52.6908L54.0612 135.966L54.3703 136.069V138.645L53.8139 138.46ZM60.578 136.636C60.578 136.423 60.4922 136.224 60.3204 136.039C60.1486 135.853 59.9322 135.685 59.6713 135.534C59.417 135.376 59.0702 135.183 58.6306 134.957C58.1084 134.682 57.6895 134.448 57.3735 134.256C57.0574 134.057 56.7861 133.823 56.5594 133.555C56.3397 133.287 56.2297 132.992 56.2297 132.669C56.2297 132.326 56.374 131.958 56.6625 131.567C56.951 131.168 57.3013 130.835 57.7135 130.567C58.1326 130.292 58.5172 130.155 58.8675 130.155C59.2934 130.155 59.788 130.206 60.3513 130.31C60.9147 130.413 61.3268 130.523 61.5878 130.639V132.638H61.1962C60.8596 132.082 60.4887 131.649 60.0834 131.34C59.6849 131.031 59.266 130.876 58.8263 130.876C58.4348 130.876 58.1223 131 57.8887 131.247C57.662 131.488 57.5486 131.804 57.5486 132.195C57.5486 132.422 57.6344 132.635 57.8062 132.834C57.9848 133.026 58.2012 133.198 58.4554 133.349C58.7164 133.5 59.077 133.696 59.5373 133.937C60.0456 134.191 60.4577 134.417 60.7738 134.617C61.0898 134.809 61.3542 135.036 61.5672 135.297C61.787 135.551 61.8969 135.839 61.8969 136.162C61.8969 136.506 61.7424 136.877 61.4332 137.275C61.1241 137.667 60.7463 138 60.2998 138.275C59.8601 138.542 59.4583 138.676 59.0942 138.676C58.6478 138.676 58.1154 138.625 57.4971 138.522C56.8858 138.419 56.4461 138.309 56.1782 138.192V136.193H56.5698C56.9201 136.75 57.3186 137.182 57.765 137.491C58.2115 137.801 58.6718 137.955 59.1458 137.955C59.4273 137.955 59.6782 137.893 59.8979 137.77C60.1177 137.646 60.2861 137.484 60.4028 137.285C60.5196 137.079 60.578 136.863 60.578 136.636ZM70.4719 132.752L70.1628 132.855L68.7924 130.825H67.5353V137.677L68.6172 138.048L68.4111 138.46H65.2787V138.141L66.2473 137.378V130.825H65.0211L63.6507 132.855L63.3416 132.752V130.176L63.898 130.361H69.9155L70.4719 130.176V132.752ZM78.7142 138.46H75.5818V138.141L76.5503 137.388L75.7569 135.482H72.2948L71.4499 137.43L73.2634 138.048L73.0573 138.46H69.9249V138.141L70.8934 137.378L73.8095 130.691L74.8811 130.165L77.8899 137.419L78.9203 138.048L78.7142 138.46ZM74.0671 131.402L72.5009 135.018H75.5715L74.0671 131.402ZM86.8865 131.443V135.266C86.8865 135.987 86.7114 136.605 86.361 137.12C86.0175 137.636 85.5916 138.024 85.0833 138.285C84.5749 138.539 84.0769 138.666 83.5893 138.666C82.9778 138.666 82.4283 138.532 81.9406 138.264C81.4597 137.989 81.0818 137.615 80.8072 137.141C80.5393 136.66 80.4053 136.121 80.4053 135.523V131.134L79.3337 130.773L79.5398 130.361H82.6722V130.68L81.6933 131.443V135.029C81.6933 135.901 81.9062 136.581 82.3322 137.069C82.7649 137.557 83.4175 137.801 84.2899 137.801C84.6127 137.801 84.9288 137.697 85.2379 137.491C85.5538 137.278 85.8114 136.969 86.0107 136.564C86.2168 136.159 86.3198 135.681 86.3198 135.132V131.309L85.2482 130.773L85.4543 130.361H87.8654V130.68L86.8865 131.443ZM96.3192 138.481H94.4027L92.1358 134.823L91.6515 134.472L91.8061 134.163H92.3831C92.8501 134.163 93.2177 134.046 93.4856 133.813C93.7603 133.573 93.8978 133.246 93.8978 132.834C93.8978 132.291 93.7466 131.841 93.4444 131.484C93.142 131.12 92.7025 130.938 92.1255 130.938C91.7407 130.938 91.387 131.051 91.0642 131.278V137.697L92.1461 138.068L91.94 138.481H88.8076V138.161L89.7762 137.399V131.134L88.7046 130.784L88.9106 130.371H90.1059C90.7309 130.371 91.3458 130.351 91.9503 130.31C92.3898 130.282 92.7162 130.268 92.9292 130.268C93.3893 130.268 93.7981 130.361 94.1554 130.547C94.5194 130.732 94.7976 130.983 94.99 131.299C95.1891 131.615 95.2888 131.962 95.2888 132.339C95.2888 132.683 95.1822 133.013 94.9694 133.329C94.7564 133.638 94.4748 133.909 94.1245 134.143C93.7809 134.369 93.4169 134.541 93.0322 134.658L93.702 134.885L95.2991 137.461L96.5253 138.068L96.3192 138.481ZM105.269 138.46H102.137V138.141L103.105 137.388L102.312 135.482H98.8498L98.0049 137.43L99.8184 138.048L99.6123 138.46H96.4797V138.141L97.4485 137.378L100.364 130.691L101.436 130.165L104.445 137.419L105.475 138.048L105.269 138.46ZM100.622 131.402L99.0559 135.018H102.126L100.622 131.402ZM113.091 131.453V138.47H112.524L107.63 132.278V137.512L108.712 138.058L108.506 138.47H106.095V138.151L107.063 137.388V131.35L105.992 130.773L106.198 130.361H107.754L112.524 136.399V131.309L111.453 130.773L111.659 130.361H114.07V130.691L113.091 131.453ZM122.334 132.752L122.025 132.855L120.655 130.825H119.397V137.677L120.479 138.048L120.273 138.46H117.141V138.141L118.109 137.378V130.825H116.883L115.513 132.855L115.204 132.752V130.176L115.76 130.361H121.778L122.334 130.176V132.752Z" fill="url(#paint29_linear_47_17)"/>
<defs>
<linearGradient id="paint0_linear_47_17" x1="107.628" y1="3.78352" x2="52.6465" y2="152.87" gradientUnits="userSpaceOnUse">
<stop stop-color="#F0DB78"/>
<stop offset="1" stop-color="#BA762F"/>
</linearGradient>
<linearGradient id="paint1_linear_47_17" x1="68.7842" y1="156.17" x2="93.3599" y2="4.83001" gradientUnits="userSpaceOnUse">
<stop stop-color="#BA762F"/>
<stop offset="1" stop-color="#EED876"/>
</linearGradient>
<linearGradient id="paint2_linear_47_17" x1="97.3385" y1="65.2855" x2="77.0525" y2="109.077" gradientUnits="userSpaceOnUse">
<stop stop-color="#EFD977"/>
<stop offset="1" stop-color="#BB7730"/>
</linearGradient>
<linearGradient id="paint3_linear_47_17" x1="84.6165" y1="55.4645" x2="76.325" y2="62.307" gradientUnits="userSpaceOnUse">
<stop stop-color="#EFD977"/>
<stop offset="1" stop-color="#BB7730"/>
</linearGradient>
<linearGradient id="paint4_linear_47_17" x1="93.3401" y1="34.909" x2="78.8928" y2="58.2506" gradientUnits="userSpaceOnUse">
<stop stop-color="#EED675"/>
<stop offset="0.9799" stop-color="#BB7730"/>
</linearGradient>
<linearGradient id="paint5_linear_47_17" x1="83.4911" y1="35.1015" x2="75.4107" y2="42.3877" gradientUnits="userSpaceOnUse">
<stop stop-color="#EED675"/>
<stop offset="0.9799" stop-color="#BB7730"/>
</linearGradient>
<linearGradient id="paint6_linear_47_17" x1="88.3155" y1="40.3304" x2="85.8875" y2="51.1256" gradientUnits="userSpaceOnUse">
<stop stop-color="#EED675"/>
<stop offset="0.9799" stop-color="#BB7730"/>
</linearGradient>
<linearGradient id="paint7_linear_47_17" x1="82.3996" y1="36.4051" x2="76.55" y2="41.0974" gradientUnits="userSpaceOnUse">
<stop stop-color="#EED675"/>
<stop offset="0.9799" stop-color="#BB7730"/>
</linearGradient>
<linearGradient id="paint8_linear_47_17" x1="85.2589" y1="39.606" x2="84.9696" y2="46.9561" gradientUnits="userSpaceOnUse">
<stop stop-color="#EED675"/>
<stop offset="1" stop-color="#BB7730"/>
</linearGradient>
<linearGradient id="paint9_linear_47_17" x1="81.3525" y1="37.2651" x2="78.0425" y2="39.4707" gradientUnits="userSpaceOnUse">
<stop stop-color="#EED675"/>
<stop offset="0.9799" stop-color="#BB7730"/>
</linearGradient>
<linearGradient id="paint10_linear_47_17" x1="83.41" y1="39.9281" x2="83.961" y2="43.3942" gradientUnits="userSpaceOnUse">
<stop stop-color="#EED675"/>
<stop offset="0.9799" stop-color="#BB7730"/>
</linearGradient>
<linearGradient id="paint11_linear_47_17" x1="82.5358" y1="36.8926" x2="74.882" y2="40.6769" gradientUnits="userSpaceOnUse">
<stop stop-color="#EED675"/>
<stop offset="0.9799" stop-color="#BB7730"/>
</linearGradient>
<linearGradient id="paint12_linear_47_17" x1="83.4439" y1="36.2255" x2="73.1294" y2="41.7787" gradientUnits="userSpaceOnUse">
<stop stop-color="#EED675"/>
<stop offset="0.9799" stop-color="#BB7730"/>
</linearGradient>
<linearGradient id="paint13_linear_47_17" x1="81.6274" y1="37.8664" x2="76.9599" y2="40.1089" gradientUnits="userSpaceOnUse">
<stop stop-color="#EED675"/>
<stop offset="0.9799" stop-color="#BB7730"/>
</linearGradient>
<linearGradient id="paint14_linear_47_17" x1="81.7663" y1="37.4924" x2="78.8815" y2="38.6208" gradientUnits="userSpaceOnUse">
<stop stop-color="#EED675"/>
<stop offset="0.9799" stop-color="#BB7730"/>
</linearGradient>
<linearGradient id="paint15_linear_47_17" x1="85.399" y1="32.3404" x2="82.1663" y2="39.353" gradientUnits="userSpaceOnUse">
<stop stop-color="#EED675"/>
<stop offset="0.9799" stop-color="#BB7730"/>
</linearGradient>
<linearGradient id="paint16_linear_47_17" x1="83.3275" y1="32.5273" x2="80.9922" y2="37.5535" gradientUnits="userSpaceOnUse">
<stop stop-color="#EED675"/>
<stop offset="0.9799" stop-color="#BB7730"/>
</linearGradient>
<linearGradient id="paint17_linear_47_17" x1="83.0703" y1="32.8051" x2="81.8286" y2="35.8929" gradientUnits="userSpaceOnUse">
<stop stop-color="#EED675"/>
<stop offset="0.9799" stop-color="#BB7730"/>
</linearGradient>
<linearGradient id="paint18_linear_47_17" x1="-nan" y1="-nan" x2="-nan" y2="-nan" gradientUnits="userSpaceOnUse">
<stop stop-color="#BB7730"/>
<stop offset="1" stop-color="#EED876"/>
</linearGradient>
<linearGradient id="paint19_linear_47_17" x1="-nan" y1="-nan" x2="-nan" y2="-nan" gradientUnits="userSpaceOnUse">
<stop stop-color="#BB7730"/>
<stop offset="1" stop-color="#EED876"/>
</linearGradient>
<linearGradient id="paint20_linear_47_17" x1="-nan" y1="-nan" x2="-nan" y2="-nan" gradientUnits="userSpaceOnUse">
<stop stop-color="#BB7730"/>
<stop offset="1" stop-color="#EED876"/>
</linearGradient>
<linearGradient id="paint21_linear_47_17" x1="-nan" y1="-nan" x2="-nan" y2="-nan" gradientUnits="userSpaceOnUse">
<stop stop-color="#EED876"/>
<stop offset="1" stop-color="#BB7730"/>
</linearGradient>
<linearGradient id="paint22_linear_47_17" x1="-nan" y1="-nan" x2="-nan" y2="-nan" gradientUnits="userSpaceOnUse">
<stop stop-color="#EED876"/>
<stop offset="1" stop-color="#BB7730"/>
</linearGradient>
<linearGradient id="paint23_linear_47_17" x1="-nan" y1="-nan" x2="-nan" y2="-nan" gradientUnits="userSpaceOnUse">
<stop stop-color="#BB7730"/>
<stop offset="1" stop-color="#EED876"/>
</linearGradient>
<linearGradient id="paint24_linear_47_17" x1="74.6073" y1="33.6941" x2="87.9703" y2="13.891" gradientUnits="userSpaceOnUse">
<stop stop-color="#BB7730"/>
<stop offset="1" stop-color="#EED876"/>
</linearGradient>
<linearGradient id="paint25_linear_47_17" x1="74.5876" y1="33.6987" x2="88.4336" y2="15.9887" gradientUnits="userSpaceOnUse">
<stop stop-color="#BB7730"/>
<stop offset="1" stop-color="#EED876"/>
</linearGradient>
<linearGradient id="paint26_linear_47_17" x1="-nan" y1="-nan" x2="-nan" y2="-nan" gradientUnits="userSpaceOnUse">
<stop stop-color="#BB7730"/>
<stop offset="1" stop-color="#EED876"/>
</linearGradient>
<linearGradient id="paint27_linear_47_17" x1="-nan" y1="-nan" x2="-nan" y2="-nan" gradientUnits="userSpaceOnUse">
<stop stop-color="#BB7730"/>
<stop offset="1" stop-color="#EED876"/>
</linearGradient>
<linearGradient id="paint28_linear_47_17" x1="88.8234" y1="108.112" x2="81.3255" y2="126.338" gradientUnits="userSpaceOnUse">
<stop stop-color="#EFD977"/>
<stop offset="1" stop-color="#BB7730"/>
</linearGradient>
<linearGradient id="paint29_linear_47_17" x1="92.0128" y1="127.928" x2="89.4423" y2="141.623" gradientUnits="userSpaceOnUse">
<stop stop-color="#EFD977"/>
<stop offset="1" stop-color="#BB7730"/>
</linearGradient>
</defs>
</svg>
