<svg width="585" height="585" viewBox="0 0 585 585" fill="none" xmlns="http://www.w3.org/2000/svg">
<path d="M509.779 292.197C509.779 172.03 412.364 74.6152 292.197 74.6152C172.03 74.6152 74.6152 172.03 74.6152 292.197C74.6152 412.364 172.03 509.779 292.197 509.779C412.364 509.779 509.779 412.364 509.779 292.197Z" fill="#091C46"/>
<path d="M509.779 292.197C509.779 172.03 412.364 74.6152 292.197 74.6152C172.03 74.6152 74.6152 172.03 74.6152 292.197C74.6152 412.364 172.03 509.779 292.197 509.779C412.364 509.779 509.779 412.364 509.779 292.197Z" stroke="url(#paint0_linear_37_33223)" stroke-width="6.62685"/>
<path d="M497.629 292.197C497.629 178.74 405.653 86.7646 292.196 86.7646C178.739 86.7646 86.7637 178.74 86.7637 292.197C86.7637 405.654 178.739 497.63 292.196 497.63C405.653 497.63 497.629 405.654 497.629 292.197Z" stroke="url(#paint1_linear_37_33223)" stroke-width="4.4179"/>
<path d="M156.638 354.666L154.517 358.907H122.284V355.621L132.251 347.774V283.52L121.224 279.809L123.344 275.568H155.577V278.855L145.504 286.701V350.849L156.638 354.666ZM203.609 358.907H184.417L151.548 317.132L184.099 288.716L171.8 279.809L173.92 275.568H202.442V278.855L164.272 312.148L193.43 348.623L205.729 354.666L203.609 358.907ZM300.875 358.907H268.642V355.621L278.609 347.774V319.782H236.727V350.849L247.86 354.666L245.74 358.907H213.507V355.621L223.473 347.774V283.52L212.446 279.809L214.567 275.568H246.8V278.855L236.727 286.701V315.011H278.609V283.52L267.582 279.809L269.702 275.568H301.935V278.855L291.862 286.701V350.849L302.996 354.666L300.875 358.907ZM346.903 358.907H314.67V355.621L324.637 347.774V283.52L313.61 279.809L315.73 275.568H347.963V278.855L337.89 286.701V350.849L349.024 354.666L346.903 358.907ZM460.948 359.013H428.715V355.727L438.681 347.88V289.246L410.371 359.013H404.54L376.442 288.504V349.153L387.575 354.772L385.454 359.013H360.643V355.727L370.61 347.88V285.747L359.583 279.809L361.704 275.568H384.712L411.22 342.155L437.621 275.568H462.008V278.855L451.935 286.701V350.849L463.068 354.772L460.948 359.013Z" fill="url(#paint2_linear_37_33223)"/>
<path d="M320.472 238.473H264.364V226.969C272.294 229.768 281.876 231.405 292.197 231.405C302.71 231.405 312.457 229.707 320.472 226.812V238.473Z" fill="url(#paint3_linear_37_33223)"/>
<path d="M215.768 174.019C215.768 188.255 223.797 201.908 238.089 211.974C252.38 222.041 271.764 227.696 291.976 227.696C312.188 227.696 331.572 222.041 345.864 211.974C360.156 201.908 368.185 188.255 368.185 174.019H359.704C359.704 186.671 352.568 198.804 339.867 207.75C327.166 216.696 309.939 221.723 291.976 221.722C274.014 221.722 256.787 216.696 244.086 207.75C231.384 198.804 224.249 186.671 224.249 174.019H215.768Z" fill="url(#paint4_linear_37_33223)"/>
<path d="M230.397 174.725C231.989 184.002 235.383 192.838 239.861 199.368C244.34 205.898 249.554 209.612 254.403 209.727C259.253 209.842 263.359 206.348 265.855 199.983C268.352 193.618 269.043 184.879 267.784 175.61L265.881 175.441C267.013 183.777 266.391 191.635 264.147 197.359C261.902 203.082 258.21 206.224 253.849 206.121C249.488 206.017 244.799 202.677 240.772 196.806C236.745 190.933 233.694 182.988 232.262 174.646L230.397 174.725Z" fill="url(#paint5_linear_37_33223)"/>
<path d="M350.904 177.375C350.098 182.074 348.821 186.706 347.146 191.008C345.471 195.309 343.431 199.196 341.143 202.446C338.855 205.696 336.363 208.245 333.809 209.948C331.255 211.651 328.69 212.474 326.26 212.371C323.83 212.268 321.583 211.241 319.646 209.348C317.71 207.454 316.122 204.732 314.974 201.337C313.826 197.942 313.139 193.939 312.954 189.559C312.769 185.178 313.089 180.506 313.895 175.807L315.76 175.886C315.035 180.111 314.748 184.313 314.914 188.252C315.08 192.191 315.697 195.79 316.73 198.843C317.762 201.896 319.19 204.344 320.931 206.046C322.673 207.749 324.694 208.673 326.879 208.766C329.064 208.858 331.371 208.117 333.667 206.586C335.963 205.055 338.204 202.762 340.262 199.84C342.32 196.918 344.154 193.423 345.66 189.555C347.166 185.687 348.314 181.521 349.039 177.296L350.904 177.375Z" fill="url(#paint6_linear_37_33223)"/>
<path d="M236.689 176.096C237.952 183.211 240.417 190.025 243.565 195.103C246.713 200.18 250.297 203.123 253.562 203.311C256.827 203.499 259.517 200.916 261.065 196.109C262.613 191.302 262.898 184.645 261.859 177.543L259.34 177.214C260.173 182.911 259.945 188.251 258.703 192.108C257.462 195.965 255.303 198.036 252.684 197.885C250.065 197.735 247.189 195.374 244.664 191.301C242.139 187.227 240.161 181.761 239.148 176.053L236.689 176.096Z" fill="url(#paint7_linear_37_33223)"/>
<path d="M345.054 176.538C344.414 180.142 343.459 183.704 342.244 187.022C341.028 190.341 339.576 193.35 337.969 195.878C336.363 198.406 334.633 200.403 332.88 201.756C331.127 203.109 329.385 203.79 327.752 203.761C326.119 203.733 324.628 202.995 323.365 201.59C322.101 200.185 321.089 198.14 320.387 195.572C319.684 193.003 319.305 189.962 319.271 186.622C319.237 183.282 319.548 179.708 320.188 176.105L322.647 176.148C322.134 179.038 321.884 181.906 321.911 184.585C321.939 187.265 322.243 189.704 322.806 191.764C323.37 193.824 324.182 195.465 325.195 196.593C326.209 197.72 327.405 198.312 328.715 198.335C330.025 198.358 331.423 197.811 332.829 196.726C334.235 195.641 335.623 194.038 336.911 192.01C338.2 189.982 339.365 187.568 340.34 184.906C341.316 182.244 342.082 179.386 342.594 176.495L345.054 176.538Z" fill="url(#paint8_linear_37_33223)"/>
<path d="M242.711 176.215C243.565 180.813 245.032 185.254 246.801 188.6C248.571 191.946 250.505 193.935 252.196 194.149C253.886 194.362 255.201 192.783 255.863 189.744C256.525 186.705 256.483 182.444 255.744 177.86L254.434 177.578C255.027 181.255 255.061 184.673 254.53 187.111C253.999 189.549 252.944 190.816 251.588 190.644C250.232 190.473 248.68 188.877 247.26 186.193C245.841 183.509 244.665 179.946 243.979 176.257L242.711 176.215Z" fill="url(#paint9_linear_37_33223)"/>
<path d="M339.473 176.249C339.04 178.578 338.446 180.89 337.724 183.053C337.002 185.215 336.167 187.187 335.265 188.853C334.364 190.52 333.415 191.851 332.471 192.768C331.528 193.686 330.609 194.173 329.767 194.201C328.925 194.229 328.176 193.798 327.564 192.933C326.952 192.068 326.488 190.785 326.198 189.158C325.909 187.531 325.8 185.592 325.878 183.451C325.955 181.31 326.218 179.009 326.651 176.68L327.919 176.637C327.571 178.506 327.361 180.352 327.298 182.069C327.237 183.787 327.324 185.343 327.556 186.648C327.788 187.953 328.16 188.982 328.652 189.676C329.143 190.37 329.743 190.716 330.418 190.693C331.094 190.67 331.831 190.28 332.588 189.544C333.345 188.808 334.106 187.741 334.83 186.403C335.553 185.066 336.223 183.485 336.802 181.75C337.381 180.015 337.858 178.16 338.205 176.292L339.473 176.249Z" fill="url(#paint10_linear_37_33223)"/>
<path d="M276.734 176.669C276.734 185.164 278.201 193.311 280.81 199.317C283.42 205.324 286.96 208.699 290.651 208.699C294.341 208.699 297.881 205.324 300.491 199.317C303.101 193.311 304.567 185.164 304.567 176.669H302.29C302.29 183.773 301.063 190.587 298.88 195.611C296.698 200.634 293.738 203.457 290.651 203.457C287.564 203.457 284.604 200.634 282.421 195.611C280.238 190.587 279.012 183.773 279.012 176.669H276.734Z" fill="url(#paint11_linear_37_33223)"/>
<path d="M270.99 176.006C270.99 186.903 273.038 197.353 276.684 205.059C280.329 212.764 285.273 217.093 290.429 217.093C295.585 217.093 300.529 212.764 304.174 205.059C307.82 197.353 309.868 186.903 309.868 176.006H307.477C307.477 185.562 305.681 194.728 302.484 201.485C299.286 208.243 294.95 212.039 290.429 212.039C285.908 212.039 281.572 208.243 278.374 201.485C275.177 194.728 273.381 185.562 273.381 176.006H270.99Z" fill="url(#paint12_linear_37_33223)"/>
<path d="M282.513 175.944C282.407 178.656 282.538 181.391 282.897 183.979C283.256 186.566 283.836 188.952 284.6 190.987C285.365 193.022 286.297 194.664 287.341 195.81C288.384 196.955 289.516 197.581 290.666 197.647C291.816 197.715 292.958 197.221 294.025 196.198C295.091 195.174 296.056 193.643 296.862 191.7C297.668 189.756 298.296 187.44 298.708 184.897C299.12 182.354 299.307 179.638 299.258 176.916L297.546 177.091C297.586 179.257 297.437 181.42 297.109 183.444C296.781 185.468 296.281 187.311 295.64 188.858C294.998 190.405 294.23 191.624 293.381 192.438C292.533 193.253 291.623 193.646 290.708 193.593C289.793 193.539 288.892 193.041 288.061 192.129C287.231 191.218 286.488 189.911 285.88 188.291C285.271 186.671 284.81 184.772 284.524 182.713C284.238 180.653 284.134 178.476 284.219 176.317L282.513 175.944Z" fill="url(#paint13_linear_37_33223)"/>
<path d="M285.57 176.006C285.57 179.756 286.082 183.351 286.994 186.002C287.905 188.654 289.141 190.143 290.43 190.143C291.719 190.143 292.955 188.654 293.866 186.002C294.778 183.351 295.29 179.756 295.29 176.006H294.298C294.298 178.99 293.891 181.853 293.165 183.963C292.44 186.073 291.456 187.259 290.43 187.259C289.404 187.259 288.42 186.073 287.695 183.963C286.969 181.853 286.562 178.99 286.562 176.006H285.57Z" fill="url(#paint14_linear_37_33223)"/>
<path d="M284.208 162.599C284.404 160.617 283.801 158.634 282.439 156.782C281.077 154.93 278.987 153.248 276.304 151.848C273.622 150.447 270.407 149.359 266.869 148.654C263.332 147.949 259.55 147.642 255.772 147.754C251.993 147.867 248.302 148.395 244.938 149.305C241.575 150.216 238.615 151.487 236.251 153.038C233.887 154.588 232.172 156.382 231.217 158.303C230.263 160.224 230.09 162.23 230.711 164.188L233.649 163.932C233.097 162.19 233.25 160.406 234.099 158.697C234.948 156.989 236.474 155.393 238.577 154.014C240.68 152.635 243.313 151.503 246.304 150.694C249.296 149.884 252.579 149.414 255.94 149.314C259.301 149.214 262.664 149.487 265.811 150.114C268.958 150.742 271.817 151.71 274.204 152.955C276.59 154.201 278.449 155.696 279.66 157.344C280.871 158.992 281.408 160.755 281.234 162.518L284.208 162.599Z" fill="url(#paint15_linear_37_33223)"/>
<path d="M276.461 163.573C276.936 162.097 276.788 160.583 276.028 159.141C275.267 157.699 273.913 156.363 272.062 155.229C270.211 154.095 267.909 153.192 265.321 152.584C262.732 151.976 259.922 151.678 257.09 151.711C254.259 151.744 251.476 152.108 248.941 152.776C246.406 153.444 244.182 154.4 242.428 155.576C240.673 156.752 239.432 158.118 238.794 159.577C238.154 161.036 238.133 162.552 238.731 164.015L242.53 163.581C242.053 162.414 242.07 161.205 242.58 160.041C243.09 158.877 244.08 157.786 245.479 156.849C246.879 155.911 248.653 155.148 250.675 154.615C252.697 154.082 254.917 153.792 257.176 153.765C259.435 153.739 261.677 153.976 263.742 154.462C265.807 154.947 267.644 155.668 269.12 156.572C270.597 157.476 271.677 158.542 272.284 159.693C272.891 160.844 273.009 162.051 272.63 163.229L276.461 163.573Z" fill="url(#paint16_linear_37_33223)"/>
<path d="M270.973 162.398C271.068 161.561 270.776 160.725 270.117 159.944C269.459 159.162 268.448 158.453 267.151 157.862C265.853 157.271 264.299 156.812 262.588 156.515C260.877 156.217 259.048 156.088 257.221 156.135C255.393 156.183 253.609 156.405 251.982 156.79C250.355 157.174 248.924 157.71 247.78 158.364C246.637 159.018 245.808 159.775 245.346 160.586C244.885 161.396 244.801 162.242 245.101 163.068L249.007 162.771C248.798 162.196 248.856 161.607 249.178 161.043C249.499 160.478 250.076 159.952 250.873 159.496C251.669 159.041 252.665 158.667 253.798 158.4C254.93 158.133 256.173 157.977 257.445 157.945C258.717 157.911 259.99 158.002 261.181 158.209C262.372 158.416 263.454 158.735 264.357 159.147C265.261 159.558 265.965 160.052 266.423 160.596C266.881 161.14 267.085 161.722 267.019 162.304L270.973 162.398Z" fill="url(#paint17_linear_37_33223)"/>
<path d="M228.579 176.227H354.931" stroke="url(#paint18_linear_37_33223)" stroke-width="3.09253"/>
<path d="M216.209 169.6H368.627" stroke="url(#paint19_linear_37_33223)" stroke-width="3.09253"/>
<path d="M149.941 401.981H190.586" stroke="url(#paint20_linear_37_33223)" stroke-width="2.20895"/>
<path d="M392.925 401.981H433.569" stroke="url(#paint21_linear_37_33223)" stroke-width="2.20895"/>
<path d="M350.513 225.707H452.124" stroke="url(#paint22_linear_37_33223)" stroke-width="2.20895"/>
<path d="M129.618 225.707H231.23" stroke="url(#paint23_linear_37_33223)" stroke-width="2.20895"/>
<path d="M302.769 163.018L339.437 108.678" stroke="url(#paint24_linear_37_33223)" stroke-width="2.20895"/>
<path d="M311.649 162.956L349.643 114.359" stroke="url(#paint25_linear_37_33223)" stroke-width="2.20895"/>
<path d="M216.209 162.974H368.627" stroke="url(#paint26_linear_37_33223)" stroke-width="2.20895"/>
<path d="M115.923 255.308H473.773" stroke="url(#paint27_linear_37_33223)" stroke-width="2.20895"/>
<path d="M246.958 411.481H234.064V410.166L238.051 407.07L234.785 399.224H220.535L217.057 407.24L224.522 409.785L223.673 411.481H210.78V410.166L214.767 407.028L226.77 379.503L231.18 377.34L243.565 407.197L247.806 409.785L246.958 411.481ZM227.83 382.429L221.383 397.315H234.022L227.83 382.429ZM269.101 403.974C269.101 403.098 268.748 402.278 268.041 401.514C267.334 400.751 266.444 400.058 265.369 399.436C264.323 398.786 262.895 397.994 261.086 397.061C258.937 395.93 257.212 394.969 255.911 394.177C254.611 393.357 253.494 392.396 252.561 391.293C251.656 390.19 251.204 388.974 251.204 387.646C251.204 386.232 251.797 384.719 252.985 383.108C254.172 381.468 255.614 380.096 257.311 378.994C259.036 377.863 260.619 377.297 262.061 377.297C263.814 377.297 265.85 377.509 268.168 377.933C270.487 378.357 272.183 378.81 273.258 379.29V387.518H271.646C270.261 385.228 268.734 383.447 267.066 382.174C265.426 380.902 263.701 380.266 261.891 380.266C260.28 380.266 258.993 380.775 258.032 381.793C257.099 382.782 256.632 384.083 256.632 385.695C256.632 386.628 256.986 387.504 257.693 388.324C258.428 389.116 259.318 389.823 260.365 390.445C261.439 391.067 262.923 391.873 264.818 392.862C266.91 393.908 268.607 394.841 269.907 395.661C271.208 396.453 272.296 397.386 273.173 398.461C274.078 399.507 274.53 400.694 274.53 402.023C274.53 403.437 273.894 404.964 272.622 406.604C271.349 408.215 269.794 409.587 267.956 410.718C266.147 411.82 264.493 412.372 262.994 412.372C261.156 412.372 258.965 412.16 256.42 411.736C253.904 411.311 252.094 410.859 250.992 410.378V402.15H252.603C254.045 404.441 255.685 406.222 257.523 407.494C259.361 408.767 261.255 409.403 263.206 409.403C264.365 409.403 265.397 409.148 266.302 408.639C267.207 408.131 267.9 407.466 268.38 406.646C268.861 405.798 269.101 404.907 269.101 403.974ZM292.945 411.481H280.052V410.166L284.039 407.028V381.326L279.628 379.842L280.476 378.145H293.369V379.46L289.34 382.599V408.258L293.794 409.785L292.945 411.481ZM331.947 411.481H319.054V410.166L323.041 407.07L319.775 399.224H305.524L302.047 407.24L309.511 409.785L308.663 411.481H295.77V410.166L299.756 407.028L311.759 379.503L316.17 377.34L328.554 407.197L332.795 409.785L331.947 411.481ZM312.819 382.429L306.373 397.315H319.011L312.819 382.429ZM364.142 382.641V411.523H361.81L341.664 386.034V407.579L346.117 409.827L345.269 411.523H335.345V410.209L339.332 407.07V382.217L334.921 379.842L335.769 378.145H342.173L361.81 402.999V382.047L357.399 379.842L358.247 378.145H368.172V379.503L364.142 382.641Z" fill="url(#paint28_linear_37_33223)"/>
<path d="M197.019 451.298H191.76L185.539 441.26L184.211 440.299L184.635 439.45H186.218C187.5 439.45 188.508 439.13 189.243 438.489C189.998 437.83 190.374 436.934 190.374 435.803C190.374 434.314 189.96 433.079 189.13 432.099C188.301 431.1 187.095 430.601 185.511 430.601C184.456 430.601 183.485 430.912 182.599 431.534V449.149L185.568 450.167L185.002 451.298H176.407V450.421L179.065 448.329V431.138L176.124 430.176L176.69 429.045H179.969C181.685 429.045 183.372 428.989 185.031 428.876C186.237 428.8 187.132 428.763 187.717 428.763C188.98 428.763 190.101 429.017 191.081 429.526C192.08 430.035 192.844 430.723 193.372 431.59C193.918 432.457 194.191 433.409 194.191 434.446C194.191 435.388 193.899 436.293 193.315 437.16C192.73 438.008 191.958 438.753 190.996 439.394C190.054 440.016 189.055 440.487 187.999 440.808L189.837 441.43L194.22 448.498L197.584 450.167L197.019 451.298ZM216.206 451.241H199.241V450.364L201.899 448.272V431.138L198.958 430.148L199.524 429.017H215.923L217.45 428.508V435.011L216.602 435.294L213.237 430.289H205.433V439.253H209.872L211.936 435.633H212.813V444.229L211.682 444.794L209.901 440.525H205.433V449.969H213.124L216.884 444.399L217.733 444.681V451.75L216.206 451.241ZM234.767 446.236C234.767 445.652 234.531 445.105 234.06 444.596C233.589 444.088 232.995 443.626 232.279 443.211C231.581 442.778 230.629 442.25 229.423 441.628C227.99 440.873 226.841 440.233 225.973 439.705C225.106 439.158 224.362 438.517 223.74 437.782C223.137 437.047 222.835 436.236 222.835 435.351C222.835 434.408 223.231 433.4 224.022 432.325C224.814 431.232 225.775 430.318 226.906 429.583C228.056 428.829 229.112 428.452 230.073 428.452C231.242 428.452 232.599 428.593 234.145 428.876C235.691 429.159 236.822 429.46 237.538 429.781V435.266H236.463C235.539 433.739 234.522 432.551 233.41 431.703C232.316 430.855 231.167 430.431 229.96 430.431C228.886 430.431 228.028 430.77 227.387 431.449C226.765 432.108 226.454 432.976 226.454 434.05C226.454 434.672 226.69 435.257 227.161 435.803C227.651 436.331 228.245 436.802 228.942 437.217C229.658 437.632 230.648 438.169 231.911 438.828C233.306 439.526 234.437 440.148 235.304 440.695C236.171 441.222 236.897 441.845 237.481 442.561C238.084 443.258 238.386 444.05 238.386 444.936C238.386 445.878 237.962 446.896 237.114 447.989C236.265 449.064 235.228 449.978 234.003 450.732C232.797 451.467 231.694 451.835 230.695 451.835C229.47 451.835 228.009 451.693 226.313 451.411C224.635 451.128 223.429 450.826 222.694 450.506V445.021H223.768C224.729 446.547 225.823 447.735 227.048 448.583C228.273 449.431 229.536 449.856 230.837 449.856C231.609 449.856 232.298 449.686 232.901 449.347C233.504 449.007 233.966 448.564 234.286 448.018C234.606 447.452 234.767 446.858 234.767 446.236ZM261.916 435.577L261.068 435.86L257.307 430.289H253.858V449.092L256.827 450.11L256.261 451.241H247.666V450.364L250.324 448.272V430.289H246.959L243.198 435.86L242.35 435.577V428.508L243.877 429.017H260.389L261.916 428.508V435.577ZM284.533 451.241H275.938V450.364L278.595 448.3L276.418 443.07H266.918L264.6 448.413L269.576 450.11L269.01 451.241H260.415V450.364L263.073 448.272L271.074 429.922L274.015 428.48L282.271 448.385L285.099 450.11L284.533 451.241ZM271.781 431.873L267.484 441.797H275.909L271.781 431.873ZM306.958 431.986V442.476C306.958 444.455 306.478 446.152 305.516 447.565C304.574 448.979 303.405 450.044 302.01 450.76C300.615 451.458 299.249 451.806 297.911 451.806C296.233 451.806 294.725 451.439 293.387 450.704C292.067 449.95 291.03 448.922 290.276 447.622C289.541 446.302 289.174 444.823 289.174 443.183V431.138L286.233 430.148L286.799 429.017H295.394V429.894L292.708 431.986V441.826C292.708 444.22 293.292 446.086 294.461 447.424C295.649 448.762 297.439 449.431 299.833 449.431C300.719 449.431 301.586 449.149 302.434 448.583C303.301 447.999 304.008 447.15 304.555 446.038C305.121 444.926 305.403 443.616 305.403 442.108V431.618L302.463 430.148L303.028 429.017H309.645V429.894L306.958 431.986ZM332.842 451.298H327.583L321.363 441.26L320.034 440.299L320.458 439.45H322.041C323.323 439.45 324.331 439.13 325.067 438.489C325.82 437.83 326.197 436.934 326.197 435.803C326.197 434.314 325.783 433.079 324.953 432.099C324.124 431.1 322.918 430.601 321.334 430.601C320.278 430.601 319.308 430.912 318.422 431.534V449.149L321.391 450.167L320.825 451.298H312.23V450.421L314.888 448.329V431.138L311.947 430.176L312.513 429.045H315.792C317.507 429.045 319.195 428.989 320.854 428.876C322.06 428.8 322.955 428.763 323.54 428.763C324.802 428.763 325.924 429.017 326.904 429.526C327.903 430.035 328.667 430.723 329.195 431.59C329.741 432.457 330.015 433.409 330.015 434.446C330.015 435.388 329.722 436.293 329.138 437.16C328.554 438.008 327.781 438.753 326.82 439.394C325.877 440.016 324.878 440.487 323.822 440.808L325.66 441.43L330.043 448.498L333.408 450.167L332.842 451.298ZM357.401 451.241H348.806V450.364L351.463 448.3L349.286 443.07H339.786L337.468 448.413L342.444 450.11L341.878 451.241H333.282V450.364L335.941 448.272L343.942 429.922L346.883 428.48L355.139 448.385L357.967 450.11L357.401 451.241ZM344.649 431.873L340.352 441.797H348.777L344.649 431.873ZM378.865 432.014V451.269H377.31L363.879 434.276V448.64L366.848 450.138L366.282 451.269H359.666V450.393L362.324 448.3V431.732L359.383 430.148L359.949 429.017H364.218L377.31 445.586V431.618L374.369 430.148L374.934 429.017H381.551V429.922L378.865 432.014ZM404.228 435.577L403.38 435.86L399.619 430.289H396.17V449.092L399.138 450.11L398.573 451.241H389.977V450.364L392.635 448.272V430.289H389.271L385.51 435.86L384.662 435.577V428.508L386.189 429.017H402.701L404.228 428.508V435.577Z" fill="url(#paint29_linear_37_33223)"/>
<path d="M559.078 256.555L559.002 256.567L557.837 247.032L524.934 251.064C523.069 242.535 518.553 223.198 512.502 205.955C514.287 205.256 516.42 204.446 518.485 203.675L530.906 244.43L555.553 240.19L554.789 235.444C554.608 234.317 550.167 207.642 534.574 176.266L534.585 176.259L530.558 167.409L500.384 181.141C496.043 173.566 485.926 156.479 474.969 141.853C476.463 140.647 478.252 139.236 479.988 137.878L504.083 173.017L526.318 161.565L524.162 157.265C523.648 156.244 511.314 131.956 486.829 106.612L486.773 106.665L480.415 99.5549L455.703 121.653C449.304 115.716 434.554 102.418 419.74 91.7185C420.806 90.1224 422.092 88.2428 423.348 86.4312L456.819 112.796L474.632 95.2396L471.293 91.779C470.499 90.9583 451.622 71.5942 420.908 54.7414L420.916 54.73L412.558 49.7642L395.629 78.2657C387.74 74.5253 369.677 66.2766 352.332 60.5241C352.869 58.6823 353.531 56.5 354.186 54.3972L394.029 69.4838L405.746 47.3853L401.522 45.0896C400.516 44.545 376.602 31.6936 342.125 24.8632L342.132 24.8329L332.586 23.0024L326.346 55.5621C317.655 54.7225 297.863 53.1 279.596 53.5803C279.475 51.6666 279.358 49.386 279.256 47.1886L321.857 47.8467L325.37 23.0818L320.616 22.3557C319.489 22.1855 292.735 18.2408 258.091 23.4714V23.4563L248.432 24.5795L252.263 57.5098C243.723 59.3214 224.359 63.72 207.079 69.6691C206.391 67.8764 205.593 65.7396 204.832 63.6746L245.663 51.5002L241.575 26.8261L236.821 27.5636C235.69 27.7413 208.792 32.0415 177.167 47.5857L177.201 47.6538L168.483 51.5266L181.951 81.8208C174.338 86.0946 157.163 96.0603 142.44 106.888C141.249 105.383 139.849 103.583 138.51 101.835L173.861 78.0501L162.606 55.7134L158.287 57.8313C157.266 58.3343 133.045 70.3726 107.596 94.4491L107.585 94.4378L100.297 100.875L122.244 125.719C116.268 132.084 102.884 146.751 92.0933 161.501C90.5049 160.423 88.629 159.126 86.8287 157.863L113.398 124.554L95.951 106.635L92.4715 109.956C91.6433 110.746 72.0182 129.637 54.9347 160.457L55.0066 160.499L50.574 168.343L79.4348 184.655C75.8646 192.624 68.0055 210.857 62.6312 228.326C60.778 227.827 58.5806 227.214 56.4664 226.605L70.6945 186.444L48.3502 175.207L46.1452 179.481C45.6233 180.495 33.343 204.59 27.2388 239.09H27.2236L25.204 248.598L57.6313 255.481C56.6215 264.153 54.6057 283.907 54.7267 302.182C52.8092 302.261 50.5286 302.337 48.3275 302.394L49.8289 259.812L25.1397 255.81L24.319 260.549C24.1261 261.672 19.6444 288.377 24.2093 323.153H24.1904L25.1435 332.832L58.1343 329.575C59.7984 338.145 63.8566 357.585 69.5032 374.964C67.6991 375.622 65.5509 376.382 63.4708 377.104L52.0112 336.069L27.269 339.726L27.9233 344.492C28.0784 345.623 31.8907 372.396 46.739 404.127H46.7239L50.54 413.075L81.0271 400.054C85.1873 407.728 94.9034 425.049 105.512 439.928C103.992 441.097 102.169 442.469 100.399 443.782L77.1353 408.087L54.6359 419.013L56.6934 423.363C57.185 424.395 69.3594 449.92 93.1863 475.801L93.1637 475.82L99.7255 482.99L124.18 460.608C130.648 466.47 145.549 479.598 160.488 490.123C159.44 491.731 158.173 493.629 156.94 495.452L123.17 469.473L105.561 487.234L108.942 490.657C109.748 491.47 130.031 511.405 161.15 527.944L161.203 527.845L169.376 532.573L185.975 503.875C193.906 507.525 212.064 515.565 229.476 521.117C228.958 522.967 228.323 525.156 227.695 527.267L187.677 512.638L176.217 534.869L180.468 537.115C181.482 537.649 206.58 550.553 241.227 556.979L243.084 547.244C218.236 542.633 197.65 534.422 189.345 530.61L192.386 524.71L234.007 539.925L235.509 535.02C235.917 533.681 239.521 521.862 240.104 518.712L240.898 514.404L236.7 513.167C213.629 506.367 186.372 493.338 186.1 493.206L182.042 491.258L165.839 519.268C143.529 507.407 126.139 493.247 119.366 487.117L124.04 482.404L159.168 509.427L162.073 505.202C162.863 504.049 169.856 493.86 171.358 491.027L173.411 487.158L169.777 484.715C149.815 471.296 127.735 450.677 127.512 450.469L124.226 447.394L100.667 468.951C83.561 450.382 72.056 431.498 67.6991 423.476L73.671 420.575L97.8647 457.704L102.006 454.678C103.133 453.85 113.106 446.55 115.463 444.379L118.681 441.411L116.06 437.901C101.669 418.627 87.6646 391.858 87.5246 391.59L85.4445 387.6L55.676 400.311C44.9388 377.456 40.128 356.874 38.3807 347.911L44.9463 346.939L56.8635 389.623L61.7235 387.982C63.0472 387.531 74.7526 383.568 77.6535 382.203L81.6171 380.338L80.1723 376.204C72.2376 353.497 66.9238 323.759 66.8708 323.46L66.0842 319.027L33.8498 322.208H33.8763C30.5518 297.152 32.2008 276.056 33.2522 266.979L39.8065 268.041L38.2445 312.333L43.373 312.238C44.7723 312.212 57.1283 311.974 60.3052 311.55L64.647 310.971L64.5222 306.596C63.8339 282.553 67.771 252.599 67.8126 252.297L68.4026 247.834L36.7393 241.113C41.1 216.242 49.0044 196.636 52.7298 188.301L58.66 191.281L43.8609 233.054L48.7775 234.506C50.1202 234.899 61.9769 238.386 65.1311 238.939L69.4464 239.691L70.6416 235.478C77.211 212.339 89.9678 184.954 90.0964 184.681L92.0026 180.604L63.7431 164.633C75.9175 142.822 89.6199 127.058 95.8149 120.447L100.448 125.205L72.8125 159.848L76.9878 162.825C78.1262 163.634 88.194 170.805 90.9965 172.359L94.8278 174.481L97.3353 170.892C111.102 151.169 132.107 129.456 132.319 129.236L135.451 126.007L114.022 101.748C132.338 84.3699 150.363 73.3264 158.325 68.8522L161.312 74.7787L124.543 99.5171L127.629 103.613C128.473 104.729 135.92 114.592 138.128 116.914L141.147 120.088L144.615 117.417C163.672 102.743 190.234 88.3449 190.502 88.2012L194.462 86.0605L179.288 51.9275L181.444 56.3147C204.125 45.1652 224.639 39.9914 233.58 38.089L234.665 44.6395L192.197 57.3018L193.921 62.1315C194.394 63.4477 198.562 75.0812 199.98 77.9556L201.916 81.8851L206.024 80.3685C228.587 72.0367 258.231 66.2085 258.53 66.1518L262.947 65.2895L259.207 33.1383C284.168 29.3298 305.272 30.559 314.361 31.4288L313.43 38.002L269.12 37.3137L269.316 42.4384C269.373 43.8377 269.853 56.1861 270.337 59.3517L271.003 63.6821L275.375 63.4703C299.399 62.3055 329.424 65.6526 329.727 65.6866L334.201 66.1896L340.294 34.4204C364.976 39.322 384.336 47.6084 392.57 51.5039L389.461 57.3699L348.017 41.6744L346.459 46.5608C346.035 47.8921 342.295 59.6732 341.674 62.816L340.827 67.1125L345.014 68.3984C368.005 75.4632 395.111 88.8063 395.383 88.9424L399.419 90.9356L415.946 63.1073C438.102 75.2212 454.134 88.9992 460.832 95.2055L456.104 99.865L421.29 72.4414L418.337 76.6357C417.531 77.7816 410.425 87.891 408.889 90.7011L406.79 94.5474L410.394 97.0322C430.201 110.682 452.042 131.555 452.262 131.763L455.51 134.875L483.354 109.978L479.836 113.374C497.397 131.551 508.607 149.497 513.156 157.42L507.256 160.461L482.197 123.911L478.127 127.035C477.019 127.886 467.22 135.42 464.916 137.648L461.77 140.692L464.47 144.138C479.311 163.067 493.944 189.5 494.087 189.764L496.262 193.705L525.72 180.298C536.991 202.896 542.286 223.356 544.241 232.278L537.698 233.405L524.779 191.012L519.96 192.767C518.648 193.248 507.041 197.487 504.17 198.921L500.252 200.88L501.791 204.979C510.259 227.494 516.269 257.1 516.329 257.399L517.218 261.812L549.438 257.864C552.626 282.901 550.875 303.96 549.782 313.021L543.235 311.928L545.016 267.648L539.888 267.716C538.489 267.735 526.133 267.913 522.952 268.321L518.606 268.877L518.708 273.253C519.279 297.299 515.191 327.234 515.149 327.533L514.537 331.992L546.166 338.868C541.681 363.716 533.681 383.284 529.915 391.601L523.999 388.59L539.007 346.89L534.094 345.415C532.755 345.014 520.917 341.466 517.759 340.903L513.448 340.127L512.23 344.333C505.547 367.437 492.654 394.763 492.521 395.035L490.596 399.104L518.765 415.208C507.094 437.534 493.505 454.114 487.442 460.922L482.692 456.285L509.439 420.95L505.191 418.079C504.03 417.296 493.788 410.386 490.944 408.904L487.06 406.88L484.647 410.534C471.384 430.601 450.938 452.84 450.73 453.063L447.682 456.372L469.72 480.078C451.849 497.918 434.108 509.412 426.268 514.09L423.128 508.239L459.258 482.574L456.07 478.558C455.2 477.465 447.504 467.794 445.238 465.525L442.141 462.427L438.741 465.185C420.061 480.339 393.874 495.407 393.61 495.554L389.707 497.793L403.481 526.771C380.853 537.599 359.749 542.932 350.846 544.747L349.817 538.189L392.396 525.89L390.709 521.045C390.247 519.725 386.178 508.058 384.786 505.168L382.884 501.224L378.765 502.702C356.129 510.841 326.437 516.42 326.142 516.473L321.717 517.297L325.181 549.464C300.185 553.06 278.129 551.665 269.044 550.719L270.031 544.154L314.334 545.22L314.183 540.096C314.141 538.696 313.763 526.344 313.305 523.175L312.678 518.84L308.302 519.014C284.267 519.975 254.271 516.371 253.973 516.333L249.502 515.792L241.223 557.073L250.754 558.987L257.274 526.484C265.958 527.395 285.734 529.188 304.005 528.863C304.107 530.78 304.206 533.057 304.289 535.258L261.696 534.237L257.97 558.968L262.717 559.732C263.844 559.914 291.502 564.089 326.217 559.142V559.161L335.884 558.121L332.333 525.16C340.888 523.42 360.29 519.188 377.619 513.387C378.292 515.183 379.071 517.328 379.813 519.4L338.88 531.227L342.76 555.935L347.518 555.239C348.649 555.072 376.027 550.901 407.717 535.689L407.777 535.818L416.559 531.646L402.327 501.704C409.831 497.237 426.744 486.837 441.188 475.642C442.417 477.117 443.862 478.883 445.242 480.596L410.508 505.27L422.327 527.312L426.589 525.085C427.599 524.555 451.501 511.908 476.334 487.192L476.346 487.204L483.467 480.585L460.896 456.304C466.709 449.792 479.719 434.788 490.127 419.766C491.742 420.802 493.649 422.054 495.483 423.272L469.769 457.246L487.665 474.719L491.062 471.311C491.867 470.498 511.008 451.115 527.305 419.872L527.237 419.834L531.972 411.555L503.191 395.103C506.799 387.153 514.749 368.958 520.21 351.515C522.059 352.022 524.253 352.65 526.367 353.266L511.942 393.356L534.23 404.702L536.458 400.44C536.983 399.43 549.385 375.395 555.655 340.925H555.67L557.735 331.429L525.342 324.386C526.393 315.718 528.508 295.976 528.477 277.701C530.395 277.629 532.676 277.568 534.877 277.519L533.167 320.09L557.837 324.212L558.681 319.477C558.881 318.35 563.526 291.509 559.063 256.552L559.078 256.555Z" fill="url(#paint30_linear_37_33223)"/>
<path d="M292.057 0C130.757 0 0 130.757 0 292.057C0 453.358 130.757 584.115 292.057 584.115C453.358 584.115 584.115 453.358 584.115 292.057C584.115 130.757 453.354 0 292.057 0ZM292.057 569.709C138.714 569.709 14.4015 445.401 14.4015 292.054C14.4015 138.71 138.71 14.3978 292.057 14.3978C445.401 14.3978 569.713 138.707 569.713 292.054C569.713 445.397 445.404 569.709 292.057 569.709Z" fill="url(#paint31_linear_37_33223)"/>
<defs>
<linearGradient id="paint0_linear_37_33223" x1="351.031" y1="-56.3853" x2="37.1151" y2="109.034" gradientUnits="userSpaceOnUse">
<stop stop-color="#EFD977"/>
<stop offset="1" stop-color="#BB7730"/>
</linearGradient>
<linearGradient id="paint1_linear_37_33223" x1="347.745" y1="-36.9212" x2="51.3575" y2="119.261" gradientUnits="userSpaceOnUse">
<stop stop-color="#EFD977"/>
<stop offset="1" stop-color="#BB7730"/>
</linearGradient>
<linearGradient id="paint2_linear_37_33223" x1="338.364" y1="250.448" x2="282.698" y2="370.615" gradientUnits="userSpaceOnUse">
<stop stop-color="#EFD977"/>
<stop offset="1" stop-color="#BB7730"/>
</linearGradient>
<linearGradient id="paint3_linear_37_33223" x1="303.904" y1="223.498" x2="281.152" y2="242.274" gradientUnits="userSpaceOnUse">
<stop stop-color="#EFD977"/>
<stop offset="1" stop-color="#BB7730"/>
</linearGradient>
<linearGradient id="paint4_linear_37_33223" x1="325.894" y1="167.094" x2="286.25" y2="231.144" gradientUnits="userSpaceOnUse">
<stop stop-color="#EED675"/>
<stop offset="0.9799" stop-color="#BB7730"/>
</linearGradient>
<linearGradient id="paint5_linear_37_33223" x1="255.873" y1="167.622" x2="233.7" y2="187.615" gradientUnits="userSpaceOnUse">
<stop stop-color="#EED675"/>
<stop offset="0.9799" stop-color="#BB7730"/>
</linearGradient>
<linearGradient id="paint6_linear_37_33223" x1="351.618" y1="181.97" x2="344.955" y2="211.592" gradientUnits="userSpaceOnUse">
<stop stop-color="#EED675"/>
<stop offset="0.9799" stop-color="#BB7730"/>
</linearGradient>
<linearGradient id="paint7_linear_37_33223" x1="253.682" y1="171.199" x2="237.63" y2="184.075" gradientUnits="userSpaceOnUse">
<stop stop-color="#EED675"/>
<stop offset="0.9799" stop-color="#BB7730"/>
</linearGradient>
<linearGradient id="paint8_linear_37_33223" x1="344.107" y1="179.983" x2="343.313" y2="200.152" gradientUnits="userSpaceOnUse">
<stop stop-color="#EED675"/>
<stop offset="1" stop-color="#BB7730"/>
</linearGradient>
<linearGradient id="paint9_linear_37_33223" x1="251.342" y1="173.559" x2="242.259" y2="179.611" gradientUnits="userSpaceOnUse">
<stop stop-color="#EED675"/>
<stop offset="0.9799" stop-color="#BB7730"/>
</linearGradient>
<linearGradient id="paint10_linear_37_33223" x1="340.131" y1="180.867" x2="341.643" y2="190.378" gradientUnits="userSpaceOnUse">
<stop stop-color="#EED675"/>
<stop offset="0.9799" stop-color="#BB7730"/>
</linearGradient>
<linearGradient id="paint11_linear_37_33223" x1="296.845" y1="172.537" x2="275.842" y2="182.921" gradientUnits="userSpaceOnUse">
<stop stop-color="#EED675"/>
<stop offset="0.9799" stop-color="#BB7730"/>
</linearGradient>
<linearGradient id="paint12_linear_37_33223" x1="299.081" y1="170.706" x2="270.777" y2="185.944" gradientUnits="userSpaceOnUse">
<stop stop-color="#EED675"/>
<stop offset="0.9799" stop-color="#BB7730"/>
</linearGradient>
<linearGradient id="paint13_linear_37_33223" x1="294.607" y1="175.208" x2="281.799" y2="181.362" gradientUnits="userSpaceOnUse">
<stop stop-color="#EED675"/>
<stop offset="0.9799" stop-color="#BB7730"/>
</linearGradient>
<linearGradient id="paint14_linear_37_33223" x1="292.593" y1="174.182" x2="284.677" y2="177.279" gradientUnits="userSpaceOnUse">
<stop stop-color="#EED675"/>
<stop offset="0.9799" stop-color="#BB7730"/>
</linearGradient>
<linearGradient id="paint15_linear_37_33223" x1="269.289" y1="160.045" x2="260.418" y2="179.288" gradientUnits="userSpaceOnUse">
<stop stop-color="#EED675"/>
<stop offset="0.9799" stop-color="#BB7730"/>
</linearGradient>
<linearGradient id="paint16_linear_37_33223" x1="266.069" y1="160.559" x2="259.661" y2="174.351" gradientUnits="userSpaceOnUse">
<stop stop-color="#EED675"/>
<stop offset="0.9799" stop-color="#BB7730"/>
</linearGradient>
<linearGradient id="paint17_linear_37_33223" x1="263.758" y1="161.32" x2="260.351" y2="169.793" gradientUnits="userSpaceOnUse">
<stop stop-color="#EED675"/>
<stop offset="0.9799" stop-color="#BB7730"/>
</linearGradient>
<linearGradient id="paint18_linear_37_33223" x1="-nan" y1="-nan" x2="-nan" y2="-nan" gradientUnits="userSpaceOnUse">
<stop stop-color="#BB7730"/>
<stop offset="1" stop-color="#EED876"/>
</linearGradient>
<linearGradient id="paint19_linear_37_33223" x1="-nan" y1="-nan" x2="-nan" y2="-nan" gradientUnits="userSpaceOnUse">
<stop stop-color="#BB7730"/>
<stop offset="1" stop-color="#EED876"/>
</linearGradient>
<linearGradient id="paint20_linear_37_33223" x1="-nan" y1="-nan" x2="-nan" y2="-nan" gradientUnits="userSpaceOnUse">
<stop stop-color="#BB7730"/>
<stop offset="1" stop-color="#EED876"/>
</linearGradient>
<linearGradient id="paint21_linear_37_33223" x1="-nan" y1="-nan" x2="-nan" y2="-nan" gradientUnits="userSpaceOnUse">
<stop stop-color="#EED876"/>
<stop offset="1" stop-color="#BB7730"/>
</linearGradient>
<linearGradient id="paint22_linear_37_33223" x1="-nan" y1="-nan" x2="-nan" y2="-nan" gradientUnits="userSpaceOnUse">
<stop stop-color="#EED876"/>
<stop offset="1" stop-color="#BB7730"/>
</linearGradient>
<linearGradient id="paint23_linear_37_33223" x1="-nan" y1="-nan" x2="-nan" y2="-nan" gradientUnits="userSpaceOnUse">
<stop stop-color="#BB7730"/>
<stop offset="1" stop-color="#EED876"/>
</linearGradient>
<linearGradient id="paint24_linear_37_33223" x1="303.867" y1="163.76" x2="340.535" y2="109.419" gradientUnits="userSpaceOnUse">
<stop stop-color="#BB7730"/>
<stop offset="1" stop-color="#EED876"/>
</linearGradient>
<linearGradient id="paint25_linear_37_33223" x1="312.694" y1="163.772" x2="350.688" y2="115.175" gradientUnits="userSpaceOnUse">
<stop stop-color="#BB7730"/>
<stop offset="1" stop-color="#EED876"/>
</linearGradient>
<linearGradient id="paint26_linear_37_33223" x1="-nan" y1="-nan" x2="-nan" y2="-nan" gradientUnits="userSpaceOnUse">
<stop stop-color="#BB7730"/>
<stop offset="1" stop-color="#EED876"/>
</linearGradient>
<linearGradient id="paint27_linear_37_33223" x1="-nan" y1="-nan" x2="-nan" y2="-nan" gradientUnits="userSpaceOnUse">
<stop stop-color="#BB7730"/>
<stop offset="1" stop-color="#EED876"/>
</linearGradient>
<linearGradient id="paint28_linear_37_33223" x1="311.257" y1="367.967" x2="290.682" y2="417.978" gradientUnits="userSpaceOnUse">
<stop stop-color="#EFD977"/>
<stop offset="1" stop-color="#BB7730"/>
</linearGradient>
<linearGradient id="paint29_linear_37_33223" x1="321.025" y1="422.34" x2="313.971" y2="459.921" gradientUnits="userSpaceOnUse">
<stop stop-color="#EFD977"/>
<stop offset="1" stop-color="#BB7730"/>
</linearGradient>
<linearGradient id="paint30_linear_37_33223" x1="364.43" y1="-142.026" x2="-24.8775" y2="62.3799" gradientUnits="userSpaceOnUse">
<stop stop-color="#EFD977"/>
<stop offset="1" stop-color="#BB7730"/>
</linearGradient>
<linearGradient id="paint31_linear_37_33223" x1="371.03" y1="-175.841" x2="-50.336" y2="46.1997" gradientUnits="userSpaceOnUse">
<stop stop-color="#EFD977"/>
<stop offset="1" stop-color="#BB7730"/>
</linearGradient>
</defs>
</svg>
