<svg width="181" height="797" viewBox="0 0 181 797" fill="none" xmlns="http://www.w3.org/2000/svg">
<path d="M49.1004 590.207H65.1093C47.2482 573.125 35.0498 538.558 35.0498 498.648C35.0498 458.738 47.4605 423.606 65.5458 406.665H49.8082C20.2678 423.606 0 458.419 0 498.648C0 538.877 19.9374 573.125 49.1004 590.207Z" fill="url(#paint0_linear_37_31552)"/>
<path d="M115.661 590.207H131.67C160.809 573.125 180.77 538.558 180.77 498.648C180.77 458.738 160.503 423.606 130.962 406.665H115.225C133.31 423.606 145.721 458.419 145.721 498.648C145.721 538.877 133.499 573.125 115.661 590.207Z" fill="url(#paint1_linear_37_31552)"/>
<path d="M79.6908 590.207C73.9455 571.178 70.1114 537.32 70.1114 498.648C70.1114 459.977 74.0045 425.611 79.8206 406.665H61.5583C45.6674 425.611 35.0498 459.694 35.0498 498.648C35.0498 537.603 45.5022 571.178 61.2044 590.207H79.6908Z" fill="url(#paint2_linear_37_31552)"/>
<path d="M101.067 590.207H119.554C135.244 571.178 145.708 537.32 145.708 498.648C145.708 459.977 135.091 425.611 119.2 406.665H100.938C106.765 425.611 110.647 459.694 110.647 498.648C110.647 537.603 106.813 571.178 101.055 590.207H101.067Z" fill="url(#paint3_linear_37_31552)"/>
<path d="M101.067 590.207C106.813 571.178 110.659 537.32 110.659 498.648C110.659 459.977 106.766 425.611 100.949 406.665H79.8205C73.9926 425.611 70.1113 459.694 70.1113 498.648C70.1113 537.603 73.9455 571.178 79.6907 590.207H101.067Z" fill="url(#paint4_linear_37_31552)"/>
<g style="mix-blend-mode:multiply">
<path d="M139.905 412.552H40.8662C41.9044 411.761 42.9661 411.006 44.0161 410.275H136.743C137.805 411.006 138.866 411.761 139.905 412.552Z" fill="url(#paint5_linear_37_31552)"/>
<path d="M146.699 418.167H34.0586C34.908 417.377 35.7574 416.622 36.6422 415.89H144.116C145 416.622 145.85 417.377 146.699 418.167Z" fill="url(#paint6_linear_37_31552)"/>
<path d="M152.433 423.818H28.3252C29.0212 423.063 29.7527 422.296 30.5077 421.541H150.25C151.017 422.296 151.737 423.051 152.433 423.818Z" fill="url(#paint7_linear_37_31552)"/>
<path d="M157.293 429.422H23.4766C24.1136 428.631 24.7271 427.9 25.3523 427.145H155.406C156.043 427.9 156.656 428.631 157.282 429.422H157.293Z" fill="url(#paint8_linear_37_31552)"/>
<path d="M161.481 435.073H19.2881C19.8308 434.318 20.3852 433.551 20.9279 432.796H159.829C160.384 433.551 160.926 434.318 161.469 435.073H161.481Z" fill="url(#paint9_linear_37_31552)"/>
<path d="M165.092 440.688H15.6787C16.127 439.933 16.6107 439.166 17.1062 438.411H163.664C164.148 439.166 164.631 439.933 165.092 440.688Z" fill="url(#paint10_linear_37_31552)"/>
<path d="M168.241 446.327H12.5283C12.9176 445.572 13.3423 444.817 13.767 444.05H167.002C167.427 444.817 167.852 445.572 168.241 446.327Z" fill="url(#paint11_linear_37_31552)"/>
<path d="M170.943 451.943H9.81543C10.1576 451.152 10.5233 450.433 10.8772 449.666H169.881C170.247 450.433 170.613 451.152 170.943 451.943Z" fill="url(#paint12_linear_37_31552)"/>
<path d="M173.279 457.582H7.47949C7.75083 456.827 8.05756 456.06 8.36429 455.305H172.406C172.712 456.06 173.007 456.827 173.279 457.582Z" fill="url(#paint13_linear_37_31552)"/>
<path d="M175.249 463.197H5.50977C5.75751 462.442 5.99345 461.676 6.26479 460.921H174.494C174.766 461.676 175.013 462.431 175.249 463.197Z" fill="url(#paint14_linear_37_31552)"/>
<path d="M176.924 468.848H3.8457C4.05805 468.093 4.27041 467.326 4.48276 466.571H176.287C176.499 467.326 176.712 468.093 176.924 468.848Z" fill="url(#paint15_linear_37_31552)"/>
<path d="M178.257 474.464H2.5127C2.66606 473.697 2.84302 472.942 3.03178 472.187H177.738C177.927 472.942 178.104 473.709 178.257 474.464Z" fill="url(#paint16_linear_37_31552)"/>
<path d="M179.319 480.103H1.45117C1.56914 479.348 1.72251 478.593 1.87587 477.826H178.894C179.048 478.593 179.189 479.336 179.319 480.103Z" fill="url(#paint17_linear_37_31552)"/>
<path d="M180.05 485.718H0.719727C0.778713 484.963 0.873091 484.197 0.991064 483.442H179.767C179.897 484.197 179.98 484.952 180.039 485.718H180.05Z" fill="url(#paint18_linear_37_31552)"/>
<path d="M180.533 491.358H0.235352C0.270743 490.603 0.32973 489.836 0.388716 489.081H180.38C180.439 489.836 180.498 490.603 180.533 491.358Z" fill="url(#paint19_linear_37_31552)"/>
<path d="M180.746 496.973H0.0234375C0.0234375 496.218 0.0234375 495.451 0.0588294 494.696H180.711C180.746 495.463 180.746 496.218 180.746 496.973Z" fill="url(#paint20_linear_37_31552)"/>
<path d="M180.746 500.335C180.746 501.09 180.746 501.845 180.711 502.612H0.0471106C0.0117188 501.845 0.0117188 501.09 0.0117188 500.335H180.746Z" fill="url(#paint21_linear_37_31552)"/>
<path d="M180.534 505.951C180.498 506.718 180.439 507.473 180.345 508.228H0.41239C0.318011 507.473 0.259025 506.706 0.223633 505.951H180.534Z" fill="url(#paint22_linear_37_31552)"/>
<path d="M180.05 511.59C179.991 512.345 179.897 513.112 179.779 513.867H0.991064C0.873091 513.112 0.778713 512.345 0.719727 511.59H180.05Z" fill="url(#paint23_linear_37_31552)"/>
<path d="M179.319 517.205C179.201 517.96 179.048 518.727 178.894 519.482H1.87587C1.72251 518.727 1.56914 517.972 1.45117 517.205H179.319Z" fill="url(#paint24_linear_37_31552)"/>
<path d="M178.257 522.821C178.104 523.576 177.927 524.331 177.738 525.098H3.03178C2.84302 524.343 2.66606 523.588 2.5127 522.821H178.257Z" fill="url(#paint25_linear_37_31552)"/>
<path d="M176.924 528.472C176.712 529.227 176.499 529.982 176.287 530.749H4.48276C4.27041 529.982 4.05805 529.227 3.8457 528.472H176.924Z" fill="url(#paint26_linear_37_31552)"/>
<path d="M175.249 534.075C175.037 534.83 174.766 535.586 174.494 536.352H6.26479C5.99345 535.586 5.72212 534.83 5.50977 534.075H175.249Z" fill="url(#paint27_linear_37_31552)"/>
<path d="M173.279 539.726C173.007 540.481 172.701 541.248 172.406 542.003H8.36429C8.05756 541.248 7.76263 540.493 7.47949 539.726H173.279Z" fill="url(#paint28_linear_37_31552)"/>
<path d="M170.943 545.342C170.613 546.132 170.27 546.864 169.917 547.619H10.8536C10.4879 546.864 10.1576 546.132 9.81543 545.342H170.943Z" fill="url(#paint29_linear_37_31552)"/>
<path d="M168.241 550.981C167.852 551.736 167.427 552.491 167.002 553.258H13.767C13.3423 552.503 12.9176 551.736 12.5283 550.981H168.241Z" fill="url(#paint30_linear_37_31552)"/>
<path d="M165.092 556.597C164.643 557.352 164.183 558.118 163.699 558.874H17.0708C16.5871 558.118 16.127 557.352 15.6787 556.597H165.08H165.092Z" fill="url(#paint31_linear_37_31552)"/>
<path d="M161.481 562.236C160.938 562.991 160.384 563.746 159.841 564.513H20.9279C20.3852 563.758 19.8308 562.991 19.2881 562.236H161.469H161.481Z" fill="url(#paint32_linear_37_31552)"/>
<path d="M157.293 567.851C156.68 568.606 156.078 569.373 155.441 570.128H25.317C24.68 569.373 24.0783 568.606 23.4648 567.851H157.282H157.293Z" fill="url(#paint33_linear_37_31552)"/>
<path d="M152.433 573.502C151.737 574.257 151.017 575.024 150.25 575.779H30.5194C29.7644 575.024 29.033 574.257 28.3369 573.502H152.433Z" fill="url(#paint34_linear_37_31552)"/>
<path d="M146.758 579.106C145.909 579.896 145.06 580.651 144.175 581.383H36.5835C35.6987 580.651 34.8493 579.896 34.0117 579.106H146.758Z" fill="url(#paint35_linear_37_31552)"/>
<path d="M139.939 584.757C138.877 585.535 137.816 586.302 136.718 587.034H44.0507C42.9535 586.302 41.9036 585.535 40.8418 584.757H139.939Z" fill="url(#paint36_linear_37_31552)"/>
</g>
<path d="M91.9713 601.462H88.7979V662.725H91.9713V601.462Z" fill="url(#paint37_linear_37_31552)"/>
<path d="M94.7446 680.504C94.7446 685.069 92.798 688.774 90.3796 688.774C87.9611 688.774 86.0264 685.069 86.0264 680.504C86.0264 675.938 87.9729 672.234 90.3796 672.234C92.7862 672.234 94.7446 675.938 94.7446 680.504Z" fill="url(#paint38_linear_37_31552)"/>
<path d="M77.0482 715.931C75.1252 720.968 75.6325 726.761 76.6589 783.282H77.8032C77.874 779.743 78.1217 719.907 79.6554 716.71L80.2688 786.597H81.8379L82.4749 713.052C82.5811 712.946 82.6873 712.852 82.7934 712.757L83.4187 790.773H84.9877L85.6248 711.011C85.7428 710.964 85.8372 710.917 85.9551 710.87L86.5804 794.949H88.1494L88.7865 710.103C88.8927 710.079 88.9988 710.068 89.105 710.044L89.7421 796.931H91.3111L91.9482 710.115C92.0543 710.127 92.1605 710.15 92.2667 710.162L92.9037 794.949H94.4728L95.098 710.976C95.2042 711.023 95.3104 711.07 95.4284 711.129L96.0654 790.773H97.6345L98.2597 713.029C98.3659 713.135 98.4839 713.229 98.59 713.335L99.2271 786.609H100.796L101.398 717.524C102.507 720.862 101.775 718.585 102.955 783.294H104.099C104.725 749.046 104.5 763.262 104.795 723.859C105.539 705.066 83.5249 701.538 77.0482 715.943V715.931Z" fill="url(#paint39_linear_37_31552)"/>
<path d="M96.3132 692.985C96.3132 696.253 93.6589 698.919 90.391 698.919C87.1231 698.919 84.4688 696.265 84.4688 692.985C84.4688 689.706 87.1231 687.063 90.391 687.063C93.6589 687.063 96.3132 689.717 96.3132 692.985Z" fill="url(#paint40_linear_37_31552)"/>
<path d="M95.1574 702.576C95.1574 705.207 93.0221 707.354 90.3795 707.354C87.7369 707.354 85.6016 705.219 85.6016 702.576C85.6016 699.934 87.7369 697.798 90.3795 697.798C93.0221 697.798 95.1574 699.934 95.1574 702.576Z" fill="url(#paint41_linear_37_31552)"/>
<path d="M98.2246 668.034C98.2246 672.363 94.709 675.879 90.3794 675.879C86.0498 675.879 82.5342 672.363 82.5342 668.034C82.5342 663.704 86.0498 660.189 90.3794 660.189C94.709 660.189 98.2246 663.704 98.2246 668.034Z" fill="url(#paint42_linear_37_31552)"/>
<path d="M80.8703 590.207C74.889 570.789 71.2437 536.541 71.2437 498.648C71.2437 460.755 74.948 426 81 406.665H78.617C72.624 426.366 68.9668 460.743 68.9668 498.648C68.9668 536.553 72.565 570.435 78.4754 590.207H80.8703Z" fill="url(#paint43_linear_37_31552)"/>
<path d="M62.6318 590.207C46.2099 570.954 36.1822 536.636 36.1822 498.648C36.1822 460.661 46.3633 425.847 62.9975 406.665H60.0718C43.8151 426.52 33.8936 460.826 33.8936 498.648C33.8936 536.47 43.6617 570.293 59.7178 590.207H62.62H62.6318Z" fill="url(#paint44_linear_37_31552)"/>
<path d="M118.127 590.207H121.029C137.073 570.293 146.841 536.211 146.841 498.648C146.841 461.086 136.931 426.519 120.675 406.665H117.749C134.383 425.847 144.564 460.39 144.564 498.648C144.564 536.907 134.537 570.942 118.127 590.207Z" fill="url(#paint45_linear_37_31552)"/>
<path d="M99.8875 590.207H102.282C108.193 570.435 111.803 536.282 111.803 498.648C111.803 461.015 108.146 426.378 102.153 406.665H99.7695C105.822 426.012 109.526 460.496 109.526 498.648C109.526 536.801 105.881 570.789 99.8993 590.207H99.8875Z" fill="url(#paint46_linear_37_31552)"/>
<path d="M99.8993 590.207H102.259C108.181 570.435 111.791 536.305 111.791 498.648C111.791 460.991 108.134 426.366 102.129 406.665H99.7695C105.822 426.012 109.514 460.496 109.514 498.648C109.514 536.801 105.869 570.777 99.8993 590.207Z" fill="url(#paint47_linear_37_31552)"/>
<path d="M80.8585 590.207C74.889 570.789 71.2437 536.529 71.2437 498.648C71.2437 460.767 74.9362 426.012 80.9882 406.665H78.6288C72.624 426.366 68.9668 460.72 68.9668 498.648C68.9668 536.576 72.5768 570.435 78.499 590.207H80.8585Z" fill="url(#paint48_linear_37_31552)"/>
<path d="M91.9713 0H88.7979V375.414H91.9713V0Z" fill="url(#paint49_linear_37_31552)"/>
<path d="M112.865 395.316H108.099C108.099 385.548 100.147 377.596 90.3792 377.596C80.611 377.596 72.6597 385.548 72.6597 395.316H67.8936C67.8936 382.917 77.9802 372.83 90.3792 372.83C102.778 372.83 112.865 382.917 112.865 395.316Z" fill="url(#paint50_linear_37_31552)"/>
<path d="M130.265 392.414H50.5156C49.6295 392.414 48.9111 393.132 48.9111 394.018V405.544C48.9111 406.43 49.6295 407.148 50.5156 407.148H130.265C131.151 407.148 131.87 406.43 131.87 405.544V394.018C131.87 393.132 131.151 392.414 130.265 392.414Z" fill="url(#paint51_linear_37_31552)"/>
<path d="M132.79 602.559C132.79 603.432 132.059 604.14 131.151 604.14H49.6076C48.6992 604.14 47.9678 603.432 47.9678 602.559V591.151C47.9678 590.278 48.6992 589.57 49.6076 589.57H131.151C132.059 589.57 132.79 590.278 132.79 591.151V602.559Z" fill="url(#paint52_linear_37_31552)"/>
<defs>
<linearGradient id="paint0_linear_37_31552" x1="0" y1="498.911" x2="65.5458" y2="498.911" gradientUnits="userSpaceOnUse">
<stop stop-color="#274891"/>
<stop offset="1" stop-color="#091C46"/>
</linearGradient>
<linearGradient id="paint1_linear_37_31552" x1="115.225" y1="498.911" x2="180.77" y2="498.911" gradientUnits="userSpaceOnUse">
<stop stop-color="#274891"/>
<stop offset="1" stop-color="#091C46"/>
</linearGradient>
<linearGradient id="paint2_linear_37_31552" x1="35.0498" y1="498.911" x2="79.8206" y2="498.911" gradientUnits="userSpaceOnUse">
<stop stop-color="#274891"/>
<stop offset="1" stop-color="#091C46"/>
</linearGradient>
<linearGradient id="paint3_linear_37_31552" x1="100.938" y1="498.911" x2="145.708" y2="498.911" gradientUnits="userSpaceOnUse">
<stop stop-color="#274891"/>
<stop offset="1" stop-color="#091C46"/>
</linearGradient>
<linearGradient id="paint4_linear_37_31552" x1="70.1113" y1="498.911" x2="110.659" y2="498.911" gradientUnits="userSpaceOnUse">
<stop stop-color="#274891"/>
<stop offset="1" stop-color="#091C46"/>
</linearGradient>
<linearGradient id="paint5_linear_37_31552" x1="40.8662" y1="411.419" x2="139.905" y2="411.419" gradientUnits="userSpaceOnUse">
<stop stop-color="#FF7364"/>
<stop offset="1" stop-color="#9C0F00"/>
</linearGradient>
<linearGradient id="paint6_linear_37_31552" x1="34.0586" y1="417.035" x2="146.699" y2="417.035" gradientUnits="userSpaceOnUse">
<stop stop-color="#FF7364"/>
<stop offset="1" stop-color="#9C0F00"/>
</linearGradient>
<linearGradient id="paint7_linear_37_31552" x1="28.3252" y1="422.674" x2="152.433" y2="422.674" gradientUnits="userSpaceOnUse">
<stop stop-color="#FF7364"/>
<stop offset="1" stop-color="#9C0F00"/>
</linearGradient>
<linearGradient id="paint8_linear_37_31552" x1="23.4766" y1="428.289" x2="157.293" y2="428.289" gradientUnits="userSpaceOnUse">
<stop stop-color="#FF7364"/>
<stop offset="1" stop-color="#9C0F00"/>
</linearGradient>
<linearGradient id="paint9_linear_37_31552" x1="19.2881" y1="433.928" x2="161.481" y2="433.928" gradientUnits="userSpaceOnUse">
<stop stop-color="#FF7364"/>
<stop offset="1" stop-color="#9C0F00"/>
</linearGradient>
<linearGradient id="paint10_linear_37_31552" x1="15.6787" y1="439.544" x2="165.092" y2="439.544" gradientUnits="userSpaceOnUse">
<stop stop-color="#FF7364"/>
<stop offset="1" stop-color="#9C0F00"/>
</linearGradient>
<linearGradient id="paint11_linear_37_31552" x1="12.5283" y1="445.183" x2="168.241" y2="445.183" gradientUnits="userSpaceOnUse">
<stop stop-color="#FF7364"/>
<stop offset="1" stop-color="#9C0F00"/>
</linearGradient>
<linearGradient id="paint12_linear_37_31552" x1="9.81543" y1="450.798" x2="170.943" y2="450.798" gradientUnits="userSpaceOnUse">
<stop stop-color="#FF7364"/>
<stop offset="1" stop-color="#9C0F00"/>
</linearGradient>
<linearGradient id="paint13_linear_37_31552" x1="7.47949" y1="456.449" x2="173.279" y2="456.449" gradientUnits="userSpaceOnUse">
<stop stop-color="#FF7364"/>
<stop offset="1" stop-color="#9C0F00"/>
</linearGradient>
<linearGradient id="paint14_linear_37_31552" x1="5.50977" y1="462.065" x2="175.249" y2="462.065" gradientUnits="userSpaceOnUse">
<stop stop-color="#274891"/>
<stop offset="1" stop-color="#091C46"/>
</linearGradient>
<linearGradient id="paint15_linear_37_31552" x1="3.8457" y1="467.716" x2="176.924" y2="467.716" gradientUnits="userSpaceOnUse">
<stop stop-color="#274891"/>
<stop offset="1" stop-color="#091C46"/>
</linearGradient>
<linearGradient id="paint16_linear_37_31552" x1="2.5127" y1="473.319" x2="178.257" y2="473.319" gradientUnits="userSpaceOnUse">
<stop stop-color="#FF7364"/>
<stop offset="1" stop-color="#9C0F00"/>
</linearGradient>
<linearGradient id="paint17_linear_37_31552" x1="1.45117" y1="478.959" x2="179.319" y2="478.959" gradientUnits="userSpaceOnUse">
<stop stop-color="#FF7364"/>
<stop offset="1" stop-color="#9C0F00"/>
</linearGradient>
<linearGradient id="paint18_linear_37_31552" x1="0.719727" y1="484.574" x2="180.05" y2="484.574" gradientUnits="userSpaceOnUse">
<stop stop-color="#FF7364"/>
<stop offset="1" stop-color="#9C0F00"/>
</linearGradient>
<linearGradient id="paint19_linear_37_31552" x1="0.235352" y1="490.225" x2="180.533" y2="490.225" gradientUnits="userSpaceOnUse">
<stop stop-color="#FF7364"/>
<stop offset="1" stop-color="#9C0F00"/>
</linearGradient>
<linearGradient id="paint20_linear_37_31552" x1="0.0234375" y1="495.829" x2="180.746" y2="495.829" gradientUnits="userSpaceOnUse">
<stop stop-color="#FF7364"/>
<stop offset="1" stop-color="#9C0F00"/>
</linearGradient>
<linearGradient id="paint21_linear_37_31552" x1="0.023516" y1="501.48" x2="180.746" y2="501.48" gradientUnits="userSpaceOnUse">
<stop stop-color="#FF7364"/>
<stop offset="1" stop-color="#9C0F00"/>
</linearGradient>
<linearGradient id="paint22_linear_37_31552" x1="0.23543" y1="507.083" x2="180.534" y2="507.083" gradientUnits="userSpaceOnUse">
<stop stop-color="#FF7364"/>
<stop offset="1" stop-color="#9C0F00"/>
</linearGradient>
<linearGradient id="paint23_linear_37_31552" x1="0.719727" y1="512.734" x2="180.05" y2="512.734" gradientUnits="userSpaceOnUse">
<stop stop-color="#FF7364"/>
<stop offset="1" stop-color="#9C0F00"/>
</linearGradient>
<linearGradient id="paint24_linear_37_31552" x1="1.45117" y1="518.35" x2="179.319" y2="518.35" gradientUnits="userSpaceOnUse">
<stop stop-color="#FF7364"/>
<stop offset="1" stop-color="#9C0F00"/>
</linearGradient>
<linearGradient id="paint25_linear_37_31552" x1="2.5127" y1="523.965" x2="178.257" y2="523.965" gradientUnits="userSpaceOnUse">
<stop stop-color="#FF7364"/>
<stop offset="1" stop-color="#9C0F00"/>
</linearGradient>
<linearGradient id="paint26_linear_37_31552" x1="3.8457" y1="529.616" x2="176.924" y2="529.616" gradientUnits="userSpaceOnUse">
<stop stop-color="#274891"/>
<stop offset="1" stop-color="#091C46"/>
</linearGradient>
<linearGradient id="paint27_linear_37_31552" x1="5.50977" y1="535.22" x2="175.249" y2="535.22" gradientUnits="userSpaceOnUse">
<stop stop-color="#274891"/>
<stop offset="1" stop-color="#091C46"/>
</linearGradient>
<linearGradient id="paint28_linear_37_31552" x1="7.47949" y1="540.859" x2="173.279" y2="540.859" gradientUnits="userSpaceOnUse">
<stop stop-color="#FF7364"/>
<stop offset="1" stop-color="#9C0F00"/>
</linearGradient>
<linearGradient id="paint29_linear_37_31552" x1="9.81543" y1="546.474" x2="170.943" y2="546.474" gradientUnits="userSpaceOnUse">
<stop stop-color="#FF7364"/>
<stop offset="1" stop-color="#9C0F00"/>
</linearGradient>
<linearGradient id="paint30_linear_37_31552" x1="12.5283" y1="552.125" x2="168.241" y2="552.125" gradientUnits="userSpaceOnUse">
<stop stop-color="#FF7364"/>
<stop offset="1" stop-color="#9C0F00"/>
</linearGradient>
<linearGradient id="paint31_linear_37_31552" x1="15.6787" y1="557.729" x2="165.092" y2="557.729" gradientUnits="userSpaceOnUse">
<stop stop-color="#FF7364"/>
<stop offset="1" stop-color="#9C0F00"/>
</linearGradient>
<linearGradient id="paint32_linear_37_31552" x1="19.2881" y1="563.38" x2="161.481" y2="563.38" gradientUnits="userSpaceOnUse">
<stop stop-color="#FF7364"/>
<stop offset="1" stop-color="#9C0F00"/>
</linearGradient>
<linearGradient id="paint33_linear_37_31552" x1="23.4766" y1="568.984" x2="157.293" y2="568.984" gradientUnits="userSpaceOnUse">
<stop stop-color="#FF7364"/>
<stop offset="1" stop-color="#9C0F00"/>
</linearGradient>
<linearGradient id="paint34_linear_37_31552" x1="28.3251" y1="574.635" x2="152.433" y2="574.635" gradientUnits="userSpaceOnUse">
<stop stop-color="#FF7364"/>
<stop offset="1" stop-color="#9C0F00"/>
</linearGradient>
<linearGradient id="paint35_linear_37_31552" x1="34.0117" y1="580.25" x2="146.758" y2="580.25" gradientUnits="userSpaceOnUse">
<stop stop-color="#FF7364"/>
<stop offset="1" stop-color="#9C0F00"/>
</linearGradient>
<linearGradient id="paint36_linear_37_31552" x1="40.83" y1="585.889" x2="139.939" y2="585.889" gradientUnits="userSpaceOnUse">
<stop stop-color="#FF7364"/>
<stop offset="1" stop-color="#9C0F00"/>
</linearGradient>
<linearGradient id="paint37_linear_37_31552" x1="90.3905" y1="662.713" x2="90.3905" y2="601.462" gradientUnits="userSpaceOnUse">
<stop stop-color="#E9C156"/>
<stop offset="0.03" stop-color="#C99E43"/>
<stop offset="0.06" stop-color="#AC7D32"/>
<stop offset="0.09" stop-color="#966525"/>
<stop offset="0.12" stop-color="#89561D"/>
<stop offset="0.15" stop-color="#85521B"/>
<stop offset="0.24" stop-color="#AF7B28"/>
<stop offset="0.33" stop-color="#E1AB39"/>
<stop offset="0.34" stop-color="#E3B040"/>
<stop offset="0.38" stop-color="#EDCC66"/>
<stop offset="0.41" stop-color="#F4E283"/>
<stop offset="0.45" stop-color="#FAF299"/>
<stop offset="0.49" stop-color="#FDFBA5"/>
<stop offset="0.52" stop-color="#FFFFAA"/>
<stop offset="0.54" stop-color="#FDF9A3"/>
<stop offset="0.57" stop-color="#F8EB8F"/>
<stop offset="0.61" stop-color="#EFD470"/>
<stop offset="0.65" stop-color="#E4B345"/>
<stop offset="0.66" stop-color="#E1AB39"/>
<stop offset="0.7" stop-color="#C69130"/>
<stop offset="0.8" stop-color="#905D1E"/>
<stop offset="0.85" stop-color="#7C4918"/>
<stop offset="0.87" stop-color="#8D5C22"/>
<stop offset="0.93" stop-color="#BE923E"/>
<stop offset="0.98" stop-color="#DDB44F"/>
<stop offset="1" stop-color="#E9C156"/>
</linearGradient>
<linearGradient id="paint38_linear_37_31552" x1="101.344" y1="688.774" x2="101.344" y2="672.234" gradientUnits="userSpaceOnUse">
<stop stop-color="#E9C156"/>
<stop offset="0.03" stop-color="#C99E43"/>
<stop offset="0.06" stop-color="#AC7D32"/>
<stop offset="0.09" stop-color="#966525"/>
<stop offset="0.12" stop-color="#89561D"/>
<stop offset="0.15" stop-color="#85521B"/>
<stop offset="0.24" stop-color="#AF7B28"/>
<stop offset="0.33" stop-color="#E1AB39"/>
<stop offset="0.34" stop-color="#E3B040"/>
<stop offset="0.38" stop-color="#EDCC66"/>
<stop offset="0.41" stop-color="#F4E283"/>
<stop offset="0.45" stop-color="#FAF299"/>
<stop offset="0.49" stop-color="#FDFBA5"/>
<stop offset="0.52" stop-color="#FFFFAA"/>
<stop offset="0.54" stop-color="#FDF9A3"/>
<stop offset="0.57" stop-color="#F8EB8F"/>
<stop offset="0.61" stop-color="#EFD470"/>
<stop offset="0.65" stop-color="#E4B345"/>
<stop offset="0.66" stop-color="#E1AB39"/>
<stop offset="0.7" stop-color="#C69130"/>
<stop offset="0.8" stop-color="#905D1E"/>
<stop offset="0.85" stop-color="#7C4918"/>
<stop offset="0.87" stop-color="#8D5C22"/>
<stop offset="0.93" stop-color="#BE923E"/>
<stop offset="0.98" stop-color="#DDB44F"/>
<stop offset="1" stop-color="#E9C156"/>
</linearGradient>
<linearGradient id="paint39_linear_37_31552" x1="75.7471" y1="752.24" x2="104.814" y2="752.24" gradientUnits="userSpaceOnUse">
<stop stop-color="#274891"/>
<stop offset="1" stop-color="#091C46"/>
</linearGradient>
<linearGradient id="paint40_linear_37_31552" x1="90.3792" y1="698.907" x2="90.3792" y2="687.051" gradientUnits="userSpaceOnUse">
<stop stop-color="#E9C156"/>
<stop offset="0.03" stop-color="#C99E43"/>
<stop offset="0.06" stop-color="#AC7D32"/>
<stop offset="0.09" stop-color="#966525"/>
<stop offset="0.12" stop-color="#89561D"/>
<stop offset="0.15" stop-color="#85521B"/>
<stop offset="0.24" stop-color="#AF7B28"/>
<stop offset="0.33" stop-color="#E1AB39"/>
<stop offset="0.34" stop-color="#E3B040"/>
<stop offset="0.38" stop-color="#EDCC66"/>
<stop offset="0.41" stop-color="#F4E283"/>
<stop offset="0.45" stop-color="#FAF299"/>
<stop offset="0.49" stop-color="#FDFBA5"/>
<stop offset="0.52" stop-color="#FFFFAA"/>
<stop offset="0.54" stop-color="#FDF9A3"/>
<stop offset="0.57" stop-color="#F8EB8F"/>
<stop offset="0.61" stop-color="#EFD470"/>
<stop offset="0.65" stop-color="#E4B345"/>
<stop offset="0.66" stop-color="#E1AB39"/>
<stop offset="0.7" stop-color="#C69130"/>
<stop offset="0.8" stop-color="#905D1E"/>
<stop offset="0.85" stop-color="#7C4918"/>
<stop offset="0.87" stop-color="#8D5C22"/>
<stop offset="0.93" stop-color="#BE923E"/>
<stop offset="0.98" stop-color="#DDB44F"/>
<stop offset="1" stop-color="#E9C156"/>
</linearGradient>
<linearGradient id="paint41_linear_37_31552" x1="90.3795" y1="707.354" x2="90.3795" y2="697.798" gradientUnits="userSpaceOnUse">
<stop stop-color="#E9C156"/>
<stop offset="0.03" stop-color="#C99E43"/>
<stop offset="0.06" stop-color="#AC7D32"/>
<stop offset="0.09" stop-color="#966525"/>
<stop offset="0.12" stop-color="#89561D"/>
<stop offset="0.15" stop-color="#85521B"/>
<stop offset="0.24" stop-color="#AF7B28"/>
<stop offset="0.33" stop-color="#E1AB39"/>
<stop offset="0.34" stop-color="#E3B040"/>
<stop offset="0.38" stop-color="#EDCC66"/>
<stop offset="0.41" stop-color="#F4E283"/>
<stop offset="0.45" stop-color="#FAF299"/>
<stop offset="0.49" stop-color="#FDFBA5"/>
<stop offset="0.52" stop-color="#FFFFAA"/>
<stop offset="0.54" stop-color="#FDF9A3"/>
<stop offset="0.57" stop-color="#F8EB8F"/>
<stop offset="0.61" stop-color="#EFD470"/>
<stop offset="0.65" stop-color="#E4B345"/>
<stop offset="0.66" stop-color="#E1AB39"/>
<stop offset="0.7" stop-color="#C69130"/>
<stop offset="0.8" stop-color="#905D1E"/>
<stop offset="0.85" stop-color="#7C4918"/>
<stop offset="0.87" stop-color="#8D5C22"/>
<stop offset="0.93" stop-color="#BE923E"/>
<stop offset="0.98" stop-color="#DDB44F"/>
<stop offset="1" stop-color="#E9C156"/>
</linearGradient>
<linearGradient id="paint42_linear_37_31552" x1="90.3794" y1="675.879" x2="90.3794" y2="660.189" gradientUnits="userSpaceOnUse">
<stop stop-color="#E9C156"/>
<stop offset="0.03" stop-color="#C99E43"/>
<stop offset="0.06" stop-color="#AC7D32"/>
<stop offset="0.09" stop-color="#966525"/>
<stop offset="0.12" stop-color="#89561D"/>
<stop offset="0.15" stop-color="#85521B"/>
<stop offset="0.24" stop-color="#AF7B28"/>
<stop offset="0.33" stop-color="#E1AB39"/>
<stop offset="0.34" stop-color="#E3B040"/>
<stop offset="0.38" stop-color="#EDCC66"/>
<stop offset="0.41" stop-color="#F4E283"/>
<stop offset="0.45" stop-color="#FAF299"/>
<stop offset="0.49" stop-color="#FDFBA5"/>
<stop offset="0.52" stop-color="#FFFFAA"/>
<stop offset="0.54" stop-color="#FDF9A3"/>
<stop offset="0.57" stop-color="#F8EB8F"/>
<stop offset="0.61" stop-color="#EFD470"/>
<stop offset="0.65" stop-color="#E4B345"/>
<stop offset="0.66" stop-color="#E1AB39"/>
<stop offset="0.7" stop-color="#C69130"/>
<stop offset="0.8" stop-color="#905D1E"/>
<stop offset="0.85" stop-color="#7C4918"/>
<stop offset="0.87" stop-color="#8D5C22"/>
<stop offset="0.93" stop-color="#BE923E"/>
<stop offset="0.98" stop-color="#DDB44F"/>
<stop offset="1" stop-color="#E9C156"/>
</linearGradient>
<linearGradient id="paint43_linear_37_31552" x1="74.9834" y1="405.874" x2="74.9834" y2="591.811" gradientUnits="userSpaceOnUse">
<stop stop-color="#E9C156"/>
<stop offset="0.03" stop-color="#C99E43"/>
<stop offset="0.06" stop-color="#AC7D32"/>
<stop offset="0.09" stop-color="#966525"/>
<stop offset="0.12" stop-color="#89561D"/>
<stop offset="0.15" stop-color="#85521B"/>
<stop offset="0.24" stop-color="#AF7B28"/>
<stop offset="0.33" stop-color="#E1AB39"/>
<stop offset="0.34" stop-color="#E3B040"/>
<stop offset="0.38" stop-color="#EDCC66"/>
<stop offset="0.41" stop-color="#F4E283"/>
<stop offset="0.45" stop-color="#FAF299"/>
<stop offset="0.49" stop-color="#FDFBA5"/>
<stop offset="0.52" stop-color="#FFFFAA"/>
<stop offset="0.54" stop-color="#FDF9A3"/>
<stop offset="0.57" stop-color="#F8EB8F"/>
<stop offset="0.61" stop-color="#EFD470"/>
<stop offset="0.65" stop-color="#E4B345"/>
<stop offset="0.66" stop-color="#E1AB39"/>
<stop offset="0.7" stop-color="#C69130"/>
<stop offset="0.8" stop-color="#905D1E"/>
<stop offset="0.85" stop-color="#7C4918"/>
<stop offset="0.87" stop-color="#8D5C22"/>
<stop offset="0.93" stop-color="#BE923E"/>
<stop offset="0.98" stop-color="#DDB44F"/>
<stop offset="1" stop-color="#E9C156"/>
</linearGradient>
<linearGradient id="paint44_linear_37_31552" x1="48.4514" y1="405.874" x2="48.4514" y2="591.811" gradientUnits="userSpaceOnUse">
<stop stop-color="#E9C156"/>
<stop offset="0.03" stop-color="#C99E43"/>
<stop offset="0.06" stop-color="#AC7D32"/>
<stop offset="0.09" stop-color="#966525"/>
<stop offset="0.12" stop-color="#89561D"/>
<stop offset="0.15" stop-color="#85521B"/>
<stop offset="0.24" stop-color="#AF7B28"/>
<stop offset="0.33" stop-color="#E1AB39"/>
<stop offset="0.34" stop-color="#E3B040"/>
<stop offset="0.38" stop-color="#EDCC66"/>
<stop offset="0.41" stop-color="#F4E283"/>
<stop offset="0.45" stop-color="#FAF299"/>
<stop offset="0.49" stop-color="#FDFBA5"/>
<stop offset="0.52" stop-color="#FFFFAA"/>
<stop offset="0.54" stop-color="#FDF9A3"/>
<stop offset="0.57" stop-color="#F8EB8F"/>
<stop offset="0.61" stop-color="#EFD470"/>
<stop offset="0.65" stop-color="#E4B345"/>
<stop offset="0.66" stop-color="#E1AB39"/>
<stop offset="0.7" stop-color="#C69130"/>
<stop offset="0.8" stop-color="#905D1E"/>
<stop offset="0.85" stop-color="#7C4918"/>
<stop offset="0.87" stop-color="#8D5C22"/>
<stop offset="0.93" stop-color="#BE923E"/>
<stop offset="0.98" stop-color="#DDB44F"/>
<stop offset="1" stop-color="#E9C156"/>
</linearGradient>
<linearGradient id="paint45_linear_37_31552" x1="132.307" y1="405.874" x2="132.307" y2="591.811" gradientUnits="userSpaceOnUse">
<stop stop-color="#E9C156"/>
<stop offset="0.03" stop-color="#C99E43"/>
<stop offset="0.06" stop-color="#AC7D32"/>
<stop offset="0.09" stop-color="#966525"/>
<stop offset="0.12" stop-color="#89561D"/>
<stop offset="0.15" stop-color="#85521B"/>
<stop offset="0.24" stop-color="#AF7B28"/>
<stop offset="0.33" stop-color="#E1AB39"/>
<stop offset="0.34" stop-color="#E3B040"/>
<stop offset="0.38" stop-color="#EDCC66"/>
<stop offset="0.41" stop-color="#F4E283"/>
<stop offset="0.45" stop-color="#FAF299"/>
<stop offset="0.49" stop-color="#FDFBA5"/>
<stop offset="0.52" stop-color="#FFFFAA"/>
<stop offset="0.54" stop-color="#FDF9A3"/>
<stop offset="0.57" stop-color="#F8EB8F"/>
<stop offset="0.61" stop-color="#EFD470"/>
<stop offset="0.65" stop-color="#E4B345"/>
<stop offset="0.66" stop-color="#E1AB39"/>
<stop offset="0.7" stop-color="#C69130"/>
<stop offset="0.8" stop-color="#905D1E"/>
<stop offset="0.85" stop-color="#7C4918"/>
<stop offset="0.87" stop-color="#8D5C22"/>
<stop offset="0.93" stop-color="#BE923E"/>
<stop offset="0.98" stop-color="#DDB44F"/>
<stop offset="1" stop-color="#E9C156"/>
</linearGradient>
<linearGradient id="paint46_linear_37_31552" x1="105.786" y1="405.874" x2="105.786" y2="591.811" gradientUnits="userSpaceOnUse">
<stop stop-color="#E9C156"/>
<stop offset="0.03" stop-color="#C99E43"/>
<stop offset="0.06" stop-color="#AC7D32"/>
<stop offset="0.09" stop-color="#966525"/>
<stop offset="0.12" stop-color="#89561D"/>
<stop offset="0.15" stop-color="#85521B"/>
<stop offset="0.24" stop-color="#AF7B28"/>
<stop offset="0.33" stop-color="#E1AB39"/>
<stop offset="0.34" stop-color="#E3B040"/>
<stop offset="0.38" stop-color="#EDCC66"/>
<stop offset="0.41" stop-color="#F4E283"/>
<stop offset="0.45" stop-color="#FAF299"/>
<stop offset="0.49" stop-color="#FDFBA5"/>
<stop offset="0.52" stop-color="#FFFFAA"/>
<stop offset="0.54" stop-color="#FDF9A3"/>
<stop offset="0.57" stop-color="#F8EB8F"/>
<stop offset="0.61" stop-color="#EFD470"/>
<stop offset="0.65" stop-color="#E4B345"/>
<stop offset="0.66" stop-color="#E1AB39"/>
<stop offset="0.7" stop-color="#C69130"/>
<stop offset="0.8" stop-color="#905D1E"/>
<stop offset="0.85" stop-color="#7C4918"/>
<stop offset="0.87" stop-color="#8D5C22"/>
<stop offset="0.93" stop-color="#BE923E"/>
<stop offset="0.98" stop-color="#DDB44F"/>
<stop offset="1" stop-color="#E9C156"/>
</linearGradient>
<linearGradient id="paint47_linear_37_31552" x1="105.786" y1="405.874" x2="105.786" y2="591.811" gradientUnits="userSpaceOnUse">
<stop stop-color="#E9C156"/>
<stop offset="0.03" stop-color="#C99E43"/>
<stop offset="0.06" stop-color="#AC7D32"/>
<stop offset="0.09" stop-color="#966525"/>
<stop offset="0.12" stop-color="#89561D"/>
<stop offset="0.15" stop-color="#85521B"/>
<stop offset="0.24" stop-color="#AF7B28"/>
<stop offset="0.33" stop-color="#E1AB39"/>
<stop offset="0.34" stop-color="#E3B040"/>
<stop offset="0.38" stop-color="#EDCC66"/>
<stop offset="0.41" stop-color="#F4E283"/>
<stop offset="0.45" stop-color="#FAF299"/>
<stop offset="0.49" stop-color="#FDFBA5"/>
<stop offset="0.52" stop-color="#FFFFAA"/>
<stop offset="0.54" stop-color="#FDF9A3"/>
<stop offset="0.57" stop-color="#F8EB8F"/>
<stop offset="0.61" stop-color="#EFD470"/>
<stop offset="0.65" stop-color="#E4B345"/>
<stop offset="0.66" stop-color="#E1AB39"/>
<stop offset="0.7" stop-color="#C69130"/>
<stop offset="0.8" stop-color="#905D1E"/>
<stop offset="0.85" stop-color="#7C4918"/>
<stop offset="0.87" stop-color="#8D5C22"/>
<stop offset="0.93" stop-color="#BE923E"/>
<stop offset="0.98" stop-color="#DDB44F"/>
<stop offset="1" stop-color="#E9C156"/>
</linearGradient>
<linearGradient id="paint48_linear_37_31552" x1="74.9834" y1="405.874" x2="74.9834" y2="591.811" gradientUnits="userSpaceOnUse">
<stop stop-color="#E9C156"/>
<stop offset="0.03" stop-color="#C99E43"/>
<stop offset="0.06" stop-color="#AC7D32"/>
<stop offset="0.09" stop-color="#966525"/>
<stop offset="0.12" stop-color="#89561D"/>
<stop offset="0.15" stop-color="#85521B"/>
<stop offset="0.24" stop-color="#AF7B28"/>
<stop offset="0.33" stop-color="#E1AB39"/>
<stop offset="0.34" stop-color="#E3B040"/>
<stop offset="0.38" stop-color="#EDCC66"/>
<stop offset="0.41" stop-color="#F4E283"/>
<stop offset="0.45" stop-color="#FAF299"/>
<stop offset="0.49" stop-color="#FDFBA5"/>
<stop offset="0.52" stop-color="#FFFFAA"/>
<stop offset="0.54" stop-color="#FDF9A3"/>
<stop offset="0.57" stop-color="#F8EB8F"/>
<stop offset="0.61" stop-color="#EFD470"/>
<stop offset="0.65" stop-color="#E4B345"/>
<stop offset="0.66" stop-color="#E1AB39"/>
<stop offset="0.7" stop-color="#C69130"/>
<stop offset="0.8" stop-color="#905D1E"/>
<stop offset="0.85" stop-color="#7C4918"/>
<stop offset="0.87" stop-color="#8D5C22"/>
<stop offset="0.93" stop-color="#BE923E"/>
<stop offset="0.98" stop-color="#DDB44F"/>
<stop offset="1" stop-color="#E9C156"/>
</linearGradient>
<linearGradient id="paint49_linear_37_31552" x1="90.3787" y1="375.414" x2="90.3787" y2="-322.444" gradientUnits="userSpaceOnUse">
<stop stop-color="#E9C156"/>
<stop offset="0.03" stop-color="#C99E43"/>
<stop offset="0.06" stop-color="#AC7D32"/>
<stop offset="0.09" stop-color="#966525"/>
<stop offset="0.12" stop-color="#89561D"/>
<stop offset="0.15" stop-color="#85521B"/>
<stop offset="0.24" stop-color="#AF7B28"/>
<stop offset="0.33" stop-color="#E1AB39"/>
<stop offset="0.34" stop-color="#E3B040"/>
<stop offset="0.38" stop-color="#EDCC66"/>
<stop offset="0.41" stop-color="#F4E283"/>
<stop offset="0.45" stop-color="#FAF299"/>
<stop offset="0.49" stop-color="#FDFBA5"/>
<stop offset="0.52" stop-color="#FFFFAA"/>
<stop offset="0.54" stop-color="#FDF9A3"/>
<stop offset="0.57" stop-color="#F8EB8F"/>
<stop offset="0.61" stop-color="#EFD470"/>
<stop offset="0.65" stop-color="#E4B345"/>
<stop offset="0.66" stop-color="#E1AB39"/>
<stop offset="0.7" stop-color="#C69130"/>
<stop offset="0.8" stop-color="#905D1E"/>
<stop offset="0.85" stop-color="#7C4918"/>
<stop offset="0.87" stop-color="#8D5C22"/>
<stop offset="0.93" stop-color="#BE923E"/>
<stop offset="0.98" stop-color="#DDB44F"/>
<stop offset="1" stop-color="#E9C156"/>
</linearGradient>
<linearGradient id="paint50_linear_37_31552" x1="70.6187" y1="384.073" x2="113.526" y2="384.073" gradientUnits="userSpaceOnUse">
<stop stop-color="#E9C156"/>
<stop offset="0.03" stop-color="#C99E43"/>
<stop offset="0.06" stop-color="#AC7D32"/>
<stop offset="0.09" stop-color="#966525"/>
<stop offset="0.12" stop-color="#89561D"/>
<stop offset="0.15" stop-color="#85521B"/>
<stop offset="0.24" stop-color="#AF7B28"/>
<stop offset="0.33" stop-color="#E1AB39"/>
<stop offset="0.34" stop-color="#E3B040"/>
<stop offset="0.38" stop-color="#EDCC66"/>
<stop offset="0.41" stop-color="#F4E283"/>
<stop offset="0.45" stop-color="#FAF299"/>
<stop offset="0.49" stop-color="#FDFBA5"/>
<stop offset="0.52" stop-color="#FFFFAA"/>
<stop offset="0.54" stop-color="#FDF9A3"/>
<stop offset="0.57" stop-color="#F8EB8F"/>
<stop offset="0.61" stop-color="#EFD470"/>
<stop offset="0.65" stop-color="#E4B345"/>
<stop offset="0.66" stop-color="#E1AB39"/>
<stop offset="0.7" stop-color="#C69130"/>
<stop offset="0.8" stop-color="#905D1E"/>
<stop offset="0.85" stop-color="#7C4918"/>
<stop offset="0.87" stop-color="#8D5C22"/>
<stop offset="0.93" stop-color="#BE923E"/>
<stop offset="0.98" stop-color="#DDB44F"/>
<stop offset="1" stop-color="#E9C156"/>
</linearGradient>
<linearGradient id="paint51_linear_37_31552" x1="48.9111" y1="399.787" x2="131.858" y2="399.787" gradientUnits="userSpaceOnUse">
<stop stop-color="#E9C156"/>
<stop offset="0.03" stop-color="#C99E43"/>
<stop offset="0.06" stop-color="#AC7D32"/>
<stop offset="0.09" stop-color="#966525"/>
<stop offset="0.12" stop-color="#89561D"/>
<stop offset="0.15" stop-color="#85521B"/>
<stop offset="0.24" stop-color="#AF7B28"/>
<stop offset="0.33" stop-color="#E1AB39"/>
<stop offset="0.34" stop-color="#E3B040"/>
<stop offset="0.38" stop-color="#EDCC66"/>
<stop offset="0.41" stop-color="#F4E283"/>
<stop offset="0.45" stop-color="#FAF299"/>
<stop offset="0.49" stop-color="#FDFBA5"/>
<stop offset="0.52" stop-color="#FFFFAA"/>
<stop offset="0.54" stop-color="#FDF9A3"/>
<stop offset="0.57" stop-color="#F8EB8F"/>
<stop offset="0.61" stop-color="#EFD470"/>
<stop offset="0.65" stop-color="#E4B345"/>
<stop offset="0.66" stop-color="#E1AB39"/>
<stop offset="0.7" stop-color="#C69130"/>
<stop offset="0.8" stop-color="#905D1E"/>
<stop offset="0.85" stop-color="#7C4918"/>
<stop offset="0.87" stop-color="#8D5C22"/>
<stop offset="0.93" stop-color="#BE923E"/>
<stop offset="0.98" stop-color="#DDB44F"/>
<stop offset="1" stop-color="#E9C156"/>
</linearGradient>
<linearGradient id="paint52_linear_37_31552" x1="47.9796" y1="596.861" x2="132.79" y2="596.861" gradientUnits="userSpaceOnUse">
<stop stop-color="#E9C156"/>
<stop offset="0.03" stop-color="#C99E43"/>
<stop offset="0.06" stop-color="#AC7D32"/>
<stop offset="0.09" stop-color="#966525"/>
<stop offset="0.12" stop-color="#89561D"/>
<stop offset="0.15" stop-color="#85521B"/>
<stop offset="0.24" stop-color="#AF7B28"/>
<stop offset="0.33" stop-color="#E1AB39"/>
<stop offset="0.34" stop-color="#E3B040"/>
<stop offset="0.38" stop-color="#EDCC66"/>
<stop offset="0.41" stop-color="#F4E283"/>
<stop offset="0.45" stop-color="#FAF299"/>
<stop offset="0.49" stop-color="#FDFBA5"/>
<stop offset="0.52" stop-color="#FFFFAA"/>
<stop offset="0.54" stop-color="#FDF9A3"/>
<stop offset="0.57" stop-color="#F8EB8F"/>
<stop offset="0.61" stop-color="#EFD470"/>
<stop offset="0.65" stop-color="#E4B345"/>
<stop offset="0.66" stop-color="#E1AB39"/>
<stop offset="0.7" stop-color="#C69130"/>
<stop offset="0.8" stop-color="#905D1E"/>
<stop offset="0.85" stop-color="#7C4918"/>
<stop offset="0.87" stop-color="#8D5C22"/>
<stop offset="0.93" stop-color="#BE923E"/>
<stop offset="0.98" stop-color="#DDB44F"/>
<stop offset="1" stop-color="#E9C156"/>
</linearGradient>
</defs>
</svg>
